<svg id="meetup-icon" xmlns="http://www.w3.org/2000/svg" xmlns:xlink="http://www.w3.org/1999/xlink" viewBox="0 0 68.78 57.78" fill="#e48337" ><use xlink:href="#A" x="1.89" y="1.89"/><symbol id="A" overflow="visible"><path d="M54.359 52.756c-4.849-.854-9.827-3.98-10.847-9.132-.552-4.483.31-9.082 2.551-13.013l6.811-12.801c1.334-2.615-1.761-5.805-4.165-3.674-3.024 2.88-4.157 7.022-6.074 10.632-2.442 5-4.415 10.273-7.397 14.986-1.466 2.317-4.021 4.8-7 3.73-3.307-1.013-2.43-4.913-1.349-7.264 1.841-5.443 4.913-10.53 5.647-16.301 1.209-3.311-3.666-5.726-5.344-2.495L20.69 32.853c-1.897 4.271-2.445 8.996-4.282 13.229-1.72 3.341-6.123 3.78-9.449 3.383-3.595-.488-7.072-3.383-6.921-7.234-.378-5.575 2.143-10.772 3.402-16.09 1.691-5.781 3.728-11.456 6.1-16.993 1.788-3.647 4.626-7.994 9.203-7.922 4.082-.454 7.351 2.495 11.048 3.576 4.407.726 6.199-5.14 10.583-4.785 3.352-.159 5.197 4.127 8.534 3.455 3.886-1.285 8.712-1.89 12.148.756 3.024 2.888 2.056 7.59.998 11.173-2.366 7.862-7.495 14.71-9.026 22.84-.756 2.816.25 6.735 3.73 6.879 2.778.408 7.106.922 7.287 4.475-1.444 3.606-6.403 3.78-9.638 3.092z"/></symbol></svg>