<svg id="instagram-icon" data-name="Calque 1" xmlns="http://www.w3.org/2000/svg" xmlns:xlink="http://www.w3.org/1999/xlink" viewBox="0 0 64 63.88" fill="#e48337" ><defs><symbol id="D" data-name="D" viewBox="0 0 64 63.88"><path  d="M32,48.25a15.43,15.43,0,0,1-1.67-.09,14.74,14.74,0,0,1-1.62-.25,15.67,15.67,0,0,1-1.57-.4L25.67,47l-1.43-.69-1.35-.82-1.26-.94-1.16-1.06-1.06-1.16L18.46,41l-.82-1.35L17,38.24a15.82,15.82,0,0,1-.55-1.5c-.16-.51-.29-1-.4-1.56a14.74,14.74,0,0,1-.25-1.62,15.11,15.11,0,0,1-.09-1.66,15.43,15.43,0,0,1,.09-1.67A15.11,15.11,0,0,1,16,28.61c.11-.53.24-1.05.4-1.56s.35-1,.55-1.5l.69-1.43.82-1.35.95-1.26,1.06-1.16,1.16-1.06,1.26-.94,1.35-.82,1.43-.7,1.5-.55,1.57-.4a14.74,14.74,0,0,1,1.62-.25A15.43,15.43,0,0,1,32,15.54a15.71,15.71,0,0,1,1.67.09,15.11,15.11,0,0,1,1.62.25l1.56.4,1.5.55,1.43.7,1.35.82,1.27.94,1.16,1.06,1.06,1.16.94,1.26.82,1.35.69,1.43.55,1.5a13.75,13.75,0,0,1,.41,1.56l.25,1.62a16.84,16.84,0,0,1,0,3.33c-.06.55-.14,1.09-.25,1.62a14.5,14.5,0,0,1-.41,1.57l-.55,1.5-.69,1.42L45.59,41l-.94,1.26-1.06,1.16L42.43,44.5l-1.27.94-1.35.83L38.38,47l-1.5.55-1.56.4-1.62.25a15.71,15.71,0,0,1-1.67.09Zm0-5.65c.37,0,.73,0,1.1-.05l1.06-.16,1-.26,1-.36.94-.45.88-.54.82-.61.76-.69.69-.76.62-.82.53-.89.45-.93.36-1a9.17,9.17,0,0,0,.27-1c.07-.35.12-.7.16-1.06l.05-1.1c0-.37,0-.74-.05-1.1s-.09-.72-.16-1.07l-.27-1-.36-1-.45-.94-.53-.88-.62-.83-.69-.76-.76-.69L38,23l-.88-.54L36.21,22l-1-.36-1-.26-1.06-.16a10.12,10.12,0,0,0-1.1,0c-.37,0-.74,0-1.1,0l-1.07.16c-.35.07-.69.16-1,.26l-1,.36-.94.45L26,23l-.83.61-.76.69-.69.76-.61.83-.54.88-.45.94-.36,1-.26,1-.16,1.07a10,10,0,0,0-.06,1.1,10.28,10.28,0,0,0,.06,1.1c0,.35.09.71.16,1.06l.26,1,.36,1,.45.93.54.89.61.82.69.76.76.69.83.61.88.54.94.45c.32.13.65.25,1,.36l1,.26c.35.07.71.12,1.07.16s.73.05,1.1.05Z"/><path d="M49.06,52.9l-.39,0-.39-.06-.37-.1-.37-.13-.35-.17-.33-.21a2.34,2.34,0,0,1-.31-.24l-.29-.26-.25-.3-.23-.32-.19-.34a3,3,0,0,1-.16-.36c0-.12-.09-.24-.13-.37s-.06-.25-.08-.38,0-.26,0-.39V49c0-.13,0-.26,0-.39l.06-.39c0-.13.06-.25.1-.38l.13-.37c.05-.12.11-.23.17-.35a3.62,3.62,0,0,1,.2-.33l.24-.32a2.37,2.37,0,0,1,.27-.28l.29-.26.32-.23.33-.19.36-.16.37-.13.38-.08.39,0h.27l.39,0,.39.06a2.49,2.49,0,0,1,.37.09l.37.14.35.17.33.2.31.24a3.71,3.71,0,0,1,.29.27l.25.29.23.32a2.9,2.9,0,0,1,.19.34l.16.36c.05.12.09.25.13.37l.08.38c0,.13,0,.26.05.39V49c0,.13,0,.26,0,.39a2.63,2.63,0,0,1-.06.39c0,.13-.06.26-.1.38a2.32,2.32,0,0,1-.13.37l-.17.35-.2.34L52,51.5c-.08.1-.17.19-.26.29l-.3.25-.31.23-.34.2-.36.16-.37.12-.38.09-.38,0h-.28Z"/><path d="M28.92,63.88c-1.78,0-3.36,0-4.79,0l-3.83-.11-3-.19L16,63.42l-1.14-.17-1-.2-.94-.23L12,62.55l-.84-.31L9.5,61.5l-1.19-.65-1.07-.72-1-.86L5.14,58.22,3.93,56.85l-.5-.66L3,55.53l-.4-.69-.36-.72a15.94,15.94,0,0,1-.67-1.64l-.44-1.36L.78,49.64.5,47.92.3,45.85.16,43.32l-.1-3.09,0-3.77V31.9l0-6.63.13-5,.1-2L.4,16.66l.15-1.31.18-1,.46-1.77.58-1.66.7-1.53c.25-.49.53-1,.83-1.43s.61-.88.94-1.3a15.39,15.39,0,0,1,1.08-1.2,13.72,13.72,0,0,1,1.2-1.09l1.32-1,1.27-.79,1.29-.65,1.36-.53L13.24,1,14.89.64,16.75.39,18.88.21,21.32.09,27.06,0h7.62l7.21.11,2.74.07,1.79.09L47.54.4l1.07.14,1,.19,1,.23,1,.28.94.32.93.37.92.42,1.19.6a9.38,9.38,0,0,1,.91.58,10.48,10.48,0,0,1,.9.75l1.16,1.13,1,1.08.76.88a9.34,9.34,0,0,1,.58.82l.49.88.66,1.36.52,1.26L63,13l.3,1.44.23,1.72.16,2.12.12,2.63.11,3.28L64,27.82l0,3.81-.07,7.5-.09,3.35-.13,2.89-.15,2.24-.19,1.45-.24,1.1-.28,1.06-.33,1-.37,1-.41.93-.46.88-.5.85-.55.8-.58.77-.64.71-.67.68-.72.64-.76.59-.81.55-.85.51-.89.46-1.41.65-1.37.51c-.49.15-1,.28-1.48.38l-1.77.27L46,63.58l-2.86.13-3.67.08-4.64.06-5.94,0ZM32,58.24l8.57-.05,3.24-.06,2-.09,1.49-.16,1.35-.23,1.24-.31L51,57l1-.47a10.88,10.88,0,0,0,1.85-1.23l.84-.76a11.13,11.13,0,0,0,.8-.88,8.9,8.9,0,0,0,.67-.94,7.88,7.88,0,0,0,.56-1,9.19,9.19,0,0,0,.46-1.15l.37-1.29.28-1.48L58.07,46l.15-1.92L58.3,42l.06-2.91,0-7.14-.06-7.14-.06-2.9-.08-2.12L58,17.24l-.13-1-.15-.89-.18-.8-.23-.75L57,13.05l-.33-.76-.33-.65L56,11l-.4-.59-.44-.54-.47-.52L54.2,8.9l-.55-.45L53.06,8l-.63-.37-.66-.35L51.06,7l-.75-.28c-.53-.18-1.07-.33-1.62-.46L46.9,5.94c-.24,0-.77-.07-1.53-.1l-2.91-.08-8.24-.1-8.62,0-3.39,0L20,5.75l-1.62.11L17,6l-1.23.18-1.09.23-1,.28L12.8,7,12,7.44l-.82.48-.61.41L10,8.76l-.52.46L9,9.71l-.44.52-.41.55-.37.59L7.41,12l-.3.67-.27.72A15.65,15.65,0,0,0,6.4,15l-.33,1.79-.23,2-.1,2.38-.06,3.68,0,9.37.16,8.95L6,46.3l.07,1,.08.61.26,1.14.27,1L7,51l.35.79.4.72.48.68.55.68.65.68.85.79c.28.24.57.46.87.67a8.6,8.6,0,0,0,.92.55A9,9,0,0,0,13,57l1.09.37,1.22.29,1.39.22,1.57.17,1.94.09,3.22.06,8.56.05Z"/></symbol></defs><use width="64" height="63.88" transform="matrix(1, 0, 0, -1, 0, 63.88)" xlink:href="#D"/></svg>