<svg id="Calque_1" data-name="Calque 1" xmlns="http://www.w3.org/2000/svg" viewBox="0 0 1850 1040">
  <defs>
    <style>
      .cls-1 {
        fill: #e97c1d;
      }

      .cls-2 {
        fill: none;
      }

      .cls-3 {
        fill: #e98316;
      }

      .cls-4 {
        fill: #ea8626;
      }
    </style>
  </defs>
  <g id="Calque_2" data-name="Calque 2">
    <rect class="cls-1" width="1850" height="1040"/>
  </g>
  <g>
    <path class="cls-2" d="M1344,513.35a15.36,15.36,0,0,1,4.48-2A15.36,15.36,0,0,0,1344,513.35Z"/>
    <path class="cls-2" d="M1354.39,511a15.8,15.8,0,0,1,2.08.13A15.8,15.8,0,0,0,1354.39,511Z"/>
    <path class="cls-2" d="M525.66,344.78c-.4.09-.79.17-1.19.23C524.87,345,525.26,344.87,525.66,344.78Z"/>
    <path class="cls-2" d="M1356.47,511.13a16.93,16.93,0,0,1,2,.37A16.93,16.93,0,0,0,1356.47,511.13Z"/>
    <path class="cls-2" d="M1353.33,511c.36,0,.71,0,1.06,0-.35,0-.7,0-1.06,0a13.73,13.73,0,0,0-4.88.35A13.73,13.73,0,0,1,1353.33,511Z"/>
    <path class="cls-2" d="M530.17,343.07a15.61,15.61,0,0,1-2.91,1.26A15.61,15.61,0,0,0,530.17,343.07Z"/>
    <path class="cls-2" d="M1358.48,511.5q1,.25,2,.6Q1359.47,511.76,1358.48,511.5Z"/>
    <path class="cls-2" d="M531.8,342.05a16.26,16.26,0,0,1-1.52,1A16.26,16.26,0,0,0,531.8,342.05Z"/>
    <path class="cls-2" d="M540,322.4c.38,9.17-3,15.82-8,19.49,5-3.67,8.36-10.32,8-19.49.31-10.18-2.84-18.73-8.75-25.17C537.18,303.67,540.33,312.22,540,322.4Z"/>
    <path class="cls-1" d="M52.9,244.32c17.45,14.85,32.87,32.19,47.78,50.24,5.11,6.2,9.65,13.05,14.49,19.57,7.85,10.58,14.92,21.87,21.77,33.34,10.26,17.21,19.75,35,29.1,52.94,9.91,19,18.65,38.73,27.94,58.11,6.2,12.92,11.7,26.29,17.71,39.34,6.93,15,14.18,29.87,21.09,44.93,6.49,14.15,13.16,28.19,20.17,42,4.49,8.85,9.15,17.58,13.81,26.31A620.69,620.69,0,0,0,301,667.46c5.57,8.2,11.37,16.21,17.64,23.71,11.44,13.69,22.88,27.4,35.72,39.28a360.19,360.19,0,0,0,38.71,31c17.1,11.92,34.95,22,53.16,31.33,19.32,9.9,39.08,18.44,58.91,26.75,15.7,6.57,31.71,12.13,47.45,18.57,23.22,9.49,46.65,18.24,69.47,29.08,15.47,7.35,30.86,14.93,45.82,23.55a402.37,402.37,0,0,1,34,22.31,314.3,314.3,0,0,1,28.59,23.17,414.8,414.8,0,0,1,40.2,42.58q10.44,12.68,20.51,25.72c8.83,11.49,17.28,23.37,25.46,35.52H921.44c-3.76-7.55-7.61-15-11.62-22.41-10.59-19.48-22.33-38-37-53.6a263.22,263.22,0,0,0-46.65-39c-10.25-6.8-20.51-13.57-31.2-19.36-18.81-10.19-37.54-20.59-56.54-30.33-8.19-4.19-16.1-9.15-24.15-13.69a302.94,302.94,0,0,1-32.1-21.23c-12.71-9.49-25.29-19.46-34.92-33.49-4.83-7-8.27-14.86-9-24-1-13,3.53-22.81,13-29.54,7.21-5.14,15.25-7.07,23.49-8.51,9.69-1.7,19.17-.15,28.79.89,14.33,1.56,28.64,3.26,42.87,5.59,23.36,3.82,46.19,9.76,67.83,21.7,20,11.06,40.14,21.9,59.89,33.62q30.31,18,59.37,38.71c9.15,6.49,18.87,11.89,28.31,17.81,13.5,8.45,27.24,16.29,40.9,24.34,11.14,6.58,22.3,13.12,33.59,19.37,17.14,9.5,34.1,19.5,50.93,29.76,14.33,8.73,28.42,18,42.4,27.53,18.56,12.66,36.39,26.58,53.88,41.11,8.87,7.37,17.17,15.64,25.6,23.72,3.71,3.55,7.31,7.24,10.87,11h209.21q-11-23-23-45.37a667.76,667.76,0,0,0-38.85-63.86c-6-8.59-11.77-17.46-18.77-25-4.26-4.61-7.37-10.49-11.74-15-9-9.25-17.51-19-26.66-28a444.1,444.1,0,0,0-34-30.26,381.19,381.19,0,0,0-35.44-25.58c-8.67-5.45-17.37-10.86-26.22-15.89-13-7.36-26.18-14-39.64-20.1-12.31-5.56-24.78-10.52-37.32-15.22a556.9,556.9,0,0,0-59.1-18.21c-19.41-4.92-39-8.66-58.65-11.88-10.75-1.77-21.52-3.61-32.41-4.35-9.44-.64-18.83-2.22-28.25-3.3-5.24-.59-10.53-.92-15.74-1.13-9-.36-17.83-1.7-26.81-1.7-11.92,0-23.86-.81-35.76-1.49-8.78-.51-17.54-.52-26.3-.89-9.82-.41-19.62-1-29.39-2.24a9.27,9.27,0,0,0-1.57-.15c-11.26.67-22.42-2.07-33.67-1.27-8.7.63-17.21-1.18-25.61-3.11-19.64-4.52-39.28-9.21-58.72-14.77-18.24-5.21-36.22-11.64-54.21-18s-35.82-13.34-53.43-21c-20.91-9.12-41.53-19.07-62-29.59C523,616,510.26,609.09,497.73,601.67c-21-12.42-42.06-24.72-62.18-39.08-9.91-7.06-20.05-13.67-29.87-20.89-11.45-8.41-22.73-17.13-34-26-11.67-9.15-23.22-18.49-34.48-28.35-12.8-11.21-25.61-22.41-38-34.27-9.92-9.51-20.07-18.73-29.54-28.81-8.18-8.72-16.68-17-24.77-25.87-11.42-12.51-22.7-25.2-33.91-37.94-13.35-15.18-26.15-31.1-38.38-47.53-11.64-15.64-23.25-31.35-34.59-47.33-18.56-26.14-35.81-53.42-52.55-81.16-7.71-12.77-15.37-25.6-22.62-38.73-12.5-22.64-24.78-45.46-36-69C19.12,60.59,10.94,44.71,4,28c-.86-2.09-1.85-4-4-4.5v181.9a9.14,9.14,0,0,1,5,1.84C21.3,219,37.37,231.11,52.9,244.32ZM1308,957.86c4,0,7.35,4.49,7.24,9.44-.1,4.29-2.54,7.28-5.78,7.06-3.84-.25-7.47-4.9-7.48-9.56C1301.93,960.94,1304.64,957.82,1308,957.86Zm-23.53-25.69c2.75-2.65,6-2,9-.65,4.38,2,7.65,9.15,7,14.65-.58,4.75-4.16,8-8.69,7.83-3.9-.13-7.67-3.64-9.26-8.64C1280.92,940.65,1281.67,934.82,1284.43,932.17ZM1151.74,812.49c1.42-3.48,4-.75,5.87.24,14.76,7.68,29.52,15.33,44.21,23.18,13,7,24.77,16.3,35.9,26.73a298.87,298.87,0,0,1,27.13,29.18c3.74,4.58,6.84,9.49,6,16.58a35.38,35.38,0,0,1,0,4.11c-.4,3.59-1.65,5-4.73,5.5-6.26,1-11.85-.93-16.57-5.9-11-11.53-21.69-23.37-32.85-34.63-13.82-14-26.71-29.13-40.73-42.79a145,145,0,0,0-20.57-17.16C1153.63,816.38,1150.61,815.29,1151.74,812.49Z"/>
    <path class="cls-1" d="M307.12,65.43c5.6,17.57,11.33,35.08,17.34,52.45,2.58,7.49,4.55,15.15,6.38,22.88A475.88,475.88,0,0,0,349.77,201a470.74,470.74,0,0,0,27.77,59.6,404.15,404.15,0,0,0,27.78,43.5c.57.78,1.17,1.53,1.79,2.27,5,6,7.39,14.11,13.72,19.16,5.72,4.56,10,11.54,15.24,17,10.75,11.22,21.68,22.2,33.2,32.34a379.38,379.38,0,0,0,72.88,50.55,413.69,413.69,0,0,0,43.1,20,423.15,423.15,0,0,0,73.55,21.5q19.47,3.81,39.15,5.9a402.9,402.9,0,0,0,55.22,2.26c32.81-1.08,65.13-6,96.06-19.68,15.31-6.77,30-15.09,43.28-26.57,1.27-1.11,2.89-2,3.38-3.79,1-3.68,3.25-4,6.08-4.45,8.93-1.41,17.94-.35,26.82-1.28,20-2.09,40-.6,60.05-1,10.36-.22,20.65,1.38,31,2.15,13.5,1,26.89,3,40.26,5.27a255.45,255.45,0,0,1,28.94,6.64c11.25,3.26,22.41,6.85,33.4,11.2A382.29,382.29,0,0,1,1158.76,460a342.85,342.85,0,0,1,32,18.93,425.45,425.45,0,0,1,36.83,27.67c7,5.87,14,11.73,20.85,17.84,5.16,4.61,10.27,9.36,15,14.49,14.64,15.71,29.71,30.92,43.13,48.1,9.59,12.29,19.05,24.73,28.22,37.47,14.3,19.84,27.6,40.56,40.49,61.66,13.61,22.28,26.51,45.11,38.5,68.63,12.54,24.58,24.68,49.41,36.21,74.67,5.56,12.18,10.77,24.55,16.13,36.84,5.19,11.9,10.5,23.72,15.59,35.68,4.54,10.68,8.87,21.49,13.27,32.27,2.42,5.94,4.68,12,7.19,17.87,9.64,22.69,18.56,45.78,27.79,68.7q3.87,9.62,7.82,19.19h98.47a184.09,184.09,0,0,1-15.59-52.56c-1.36-9.83-1.5-19.72,2.75-29,4.44-9.66,14.86-12.06,22-5a30.68,30.68,0,0,1,8.51,16c.74,3.6,1.65,7.19,2.08,10.85,1.53,12.83,7.19,23,14.46,32.27a222.65,222.65,0,0,0,25.79,27.4h85.85q-9.19-7.23-17.92-15.37a187.19,187.19,0,0,1-18.87-19.68,348.06,348.06,0,0,1-40.38-63.12c-11.43-23.06-20.78-47.24-29.3-71.87-7.93-22.92-15-46.24-21.68-69.7C1642.45,760,1631,719.68,1617,680.47a576.75,576.75,0,0,0-27.14-64.19,516.57,516.57,0,0,0-28.72-50.34c-8-12.27-16.32-24.19-25.17-35.68q-11.51-14.94-23.88-28.79a455.35,455.35,0,0,0-48.3-46.73,443.2,443.2,0,0,0-40.9-30.53c-10.26-6.74-20.86-12.83-31.52-18.69-14.49-8-29.53-14.34-44.73-20.22A299.93,299.93,0,0,0,1283.09,368c-12.84-1.93-25.66-4.64-38.74-4.37-4.86.1-9.76-1.54-14.69-1-24.21,2.48-48.5,0-72.68,1.55-10.67.7-21.45-.41-32,2a9.63,9.63,0,0,1-2.63.13c-10.73-.68-21.43.71-32.07,1.53-31.24,2.39-62.48,2.51-93.73,2a253.13,253.13,0,0,1-25.71-1.86c-8.19-1-16.41-1.79-24.61-2.73-14-1.6-27.87-4.05-41.71-6.82a621.82,621.82,0,0,1-90.59-25.75A677.22,677.22,0,0,1,736,298.2c-16.27-8.36-32.28-17.36-47.94-27.13q-27.9-17.42-54.43-37.69c-12.65-9.69-25.14-19.66-37.25-30.23-13.24-11.55-26.38-23.27-38.87-36-11.15-11.32-21.86-23.22-32.92-34.62-13-13.38-24.58-28.31-36.21-43.15-17.22-22-33.86-44.56-48.85-68.76-3.4-5.5-7.06-10.78-10.38-16.36a12.11,12.11,0,0,1-2-4.31H287.94c.46,5.84,2.74,11.08,4.29,16.51C296.93,32.92,302,49.21,307.12,65.43ZM1619.24,909.6c5.22.07,10.15,5.11,10.17,10.39,0,5-4.46,10.37-8.76,10.47-5.26.11-9.79-4.86-9.69-10.64C1611.05,914.68,1615.21,909.54,1619.24,909.6Zm-18-52c3.65.08,7,4.66,6.79,9.28-.14,3-2,5.2-4.27,5.12-3.89-.13-8-4.43-7.81-8.24S1598.24,857.57,1601.28,857.63Zm-267.12-329.2c1.49-6.55,5.12-12.09,9.81-15.08a15.36,15.36,0,0,1,4.48-2,13.73,13.73,0,0,1,4.88-.35c.36,0,.71,0,1.06,0a15.8,15.8,0,0,1,2.08.13,16.93,16.93,0,0,1,2,.37q1,.25,2,.6a38.41,38.41,0,0,1,8.26,4.53A85.6,85.6,0,0,1,1384.45,530c6.49,7.22,13.66,13.61,19.59,21.52,5.12,6.82,10.26,13.91,11.65,23.11,2.18,14.33-.31,27.4-9.39,38.1-4.19,4.94-9.22,6.32-15,5.39-10.88-1.76-19.71-8.38-27.78-16.47a106,106,0,0,1-22.63-34.57c-3.67-8.85-7.12-18-6.79-28.26C1334.27,535.38,1333.35,532,1334.16,528.43ZM485.72,269.76c7.91-.66,14.94,2.19,21.45,7,7.42,5.46,14.39,11.74,21.4,17.86a35.43,35.43,0,0,1,2.7,2.64c5.91,6.44,9.06,15,8.75,25.17.37,9.17-3,15.82-8,19.49a1.88,1.88,0,0,1-.23.16,16.26,16.26,0,0,1-1.52,1l-.11.05a15.61,15.61,0,0,1-2.91,1.26,14.59,14.59,0,0,1-1.6.45c-.4.09-.79.17-1.19.23a18.92,18.92,0,0,1-6.36-.13c-19.16-3.59-34.95-14.43-45.9-33.74a37.85,37.85,0,0,1-4.91-18C467.05,280.73,475.19,270.63,485.72,269.76Z"/>
    <path class="cls-3" d="M4,28c6.92,16.7,15.1,32.58,22.84,48.74,11.27,23.55,23.55,46.37,36.05,69,7.25,13.13,14.91,26,22.62,38.73,16.74,27.74,34,55,52.55,81.16,11.34,16,22.95,31.69,34.59,47.33,12.23,16.43,25,32.35,38.38,47.53,11.21,12.74,22.49,25.43,33.91,37.94,8.09,8.86,16.59,17.15,24.77,25.87,9.47,10.08,19.62,19.3,29.54,28.81,12.36,11.86,25.17,23.06,38,34.27,11.26,9.86,22.81,19.2,34.48,28.35,11.23,8.82,22.51,17.54,34,26,9.82,7.22,20,13.83,29.87,20.89,20.12,14.36,41.19,26.66,62.18,39.08,12.53,7.42,25.31,14.28,38.18,20.91,20.44,10.52,41.06,20.47,62,29.59q26.42,11.54,53.43,21c18,6.34,36,12.77,54.21,18C725,696.74,744.6,701.43,764.24,706c8.4,1.93,16.91,3.74,25.61,3.11,11.25-.8,22.41,1.94,33.67,1.27a9.27,9.27,0,0,1,1.57.15c9.77,1.28,19.57,1.83,29.39,2.24,8.76.37,17.52.38,26.3.89,11.9.68,23.84,1.5,35.76,1.49,9,0,17.86,1.34,26.81,1.7,5.21.21,10.5.54,15.74,1.13,9.42,1.08,18.81,2.66,28.25,3.3,10.89.74,21.66,2.58,32.41,4.35,19.64,3.22,39.24,7,58.65,11.88a556.9,556.9,0,0,1,59.1,18.21c12.54,4.7,25,9.66,37.32,15.22,13.46,6.08,26.67,12.74,39.64,20.1,8.85,5,17.55,10.44,26.22,15.89a381.19,381.19,0,0,1,35.44,25.58,444.1,444.1,0,0,1,34,30.26c9.15,9,17.7,18.76,26.66,28,4.37,4.51,7.48,10.39,11.74,15,7,7.58,12.8,16.45,18.77,25a667.76,667.76,0,0,1,38.85,63.86q12.06,22.3,23,45.37h108.68q-3.93-9.57-7.82-19.19c-9.23-22.92-18.15-46-27.79-68.7-2.51-5.9-4.77-11.93-7.19-17.87-4.4-10.78-8.73-21.59-13.27-32.27-5.09-12-10.4-23.78-15.59-35.68-5.36-12.29-10.57-24.66-16.13-36.84-11.53-25.26-23.67-50.09-36.21-74.67-12-23.52-24.89-46.35-38.5-68.63-12.89-21.1-26.19-41.82-40.49-61.66-9.17-12.74-18.63-25.18-28.22-37.47-13.42-17.18-28.49-32.39-43.13-48.1-4.78-5.13-9.89-9.88-15-14.49-6.84-6.11-13.85-12-20.85-17.84a425.45,425.45,0,0,0-36.83-27.67,342.85,342.85,0,0,0-32-18.93,382.29,382.29,0,0,0-36.35-16.45c-11-4.35-22.15-7.94-33.4-11.2a255.45,255.45,0,0,0-28.94-6.64c-13.37-2.23-26.76-4.26-40.26-5.27-10.32-.77-20.61-2.37-31-2.15-20,.44-40-1-60.05,1-8.88.93-17.89-.13-26.82,1.28-2.83.45-5.1.77-6.08,4.45-.49,1.82-2.11,2.68-3.38,3.79-13.25,11.48-28,19.8-43.28,26.57C818.3,469.07,786,474,753.17,475.09A402.9,402.9,0,0,1,698,472.83q-19.69-2.06-39.15-5.9a423.15,423.15,0,0,1-73.55-21.5,413.69,413.69,0,0,1-43.1-20,379.38,379.38,0,0,1-72.88-50.55c-11.52-10.14-22.45-21.12-33.2-32.34-5.25-5.47-9.52-12.45-15.24-17-6.33-5.05-8.76-13.2-13.72-19.16-.62-.74-1.22-1.49-1.79-2.27a404.15,404.15,0,0,1-27.78-43.5A470.74,470.74,0,0,1,349.77,201a475.88,475.88,0,0,1-18.93-60.26c-1.83-7.73-3.8-15.39-6.38-22.88-6-17.37-11.74-34.88-17.34-52.45C302,49.21,296.93,32.92,292.23,16.51,290.68,11.08,288.4,5.84,287.94,0H217.27c-.19,5.06,2.16,9.1,4.13,13.17,5,10.41,9.25,21.28,13.72,32C241,59.28,246.22,73.66,251.6,88c7.07,18.84,13.88,37.8,20.23,57,3.3,9.95,6.79,19.85,10.18,29.78,6.46,18.92,9,38.45,5.87,58.69a48,48,0,0,1-12.74,25.76c-7.64,8.21-17,8.9-26.74,7.56-8.86-1.24-16.09-6.82-23.44-12.07s-13.46-11.92-19.73-18.48c-8.25-8.62-16.6-17.18-24-26.81-8.94-11.59-18.15-22.89-26.4-35.22-5.64-8.42-11.6-16.56-16.83-25.34-11.55-19.43-22.9-39-32.14-60.18-4.17-9.53-8.6-18.9-12.62-28.51a528.67,528.67,0,0,1-18.9-53A28.53,28.53,0,0,1,72.78,0H0V23.51C2.17,24,3.16,25.92,4,28ZM503.45,479.06c3.27-.53,6.25.61,9,2.64,21,15.4,43.71,26.19,67.36,34.6,18.21,6.47,36.83,10.39,55.63,13.25A363.78,363.78,0,0,0,680,533.6c8.39.23,16.83,1.4,25.23.84,13.65-.93,27.33-.84,41-2.05,7.15-.64,14.29-1.86,21.52-1.63,4.9.15,9.78-1,14.67-1.43q21.22-2,42.39-4.83c9.06-1.23,18.16-2.46,27.21-3.07,11.73-.8,23.34-3.23,35.15-3.11,7.68.08,15.37-1.27,23.06-2,1.92-.17,3.85-.34,5.78-.35,14.06,0,28.13-.44,42.18.15,8.38.35,16.78,1.24,25.17,2a334.44,334.44,0,0,1,34.44,5.11A345.25,345.25,0,0,1,1069,537.62c16,5.8,31.73,12.23,46.91,20.36,17.87,9.58,35.5,19.74,52.36,31.75a529,529,0,0,1,50.34,40.52c11.19,10.23,21.94,21.12,32.49,32.31,9.79,10.38,19.06,21.34,28.27,32.37,7.61,9.1,14.72,18.76,21.8,28.46,5.24,7.19,10.34,14.53,15.47,21.81,6.58,9.36,12.42,19.43,18.55,29.22,12.67,20.28,24.06,41.54,35,63.13,6.48,12.76,12.38,25.86,18.44,38.87.8,1.72,2,3.38,1.51,6.61-5.68-6.37-9.12-13.63-13.4-20.09-7.54-11.37-15.43-22.39-23.43-33.32-9.42-12.86-19.93-24.4-30.18-36.26-6.48-7.49-13.65-14.18-20.72-20.94-10.07-9.62-20.08-19.36-31-27.66-7.22-5.49-14.41-11-21.69-16.41A343.76,343.76,0,0,0,1215.17,706a402.14,402.14,0,0,0-63.06-29.41A358,358,0,0,0,1103,662.69a403.15,403.15,0,0,0-47.48-7.13c-11.52-.93-23.07-1.88-34.59-3.15-7.15-.79-14.41.06-21.6-.36-41.27-2.37-82.57-.13-123.82-1.45-15.56-.5-31.16-1.53-46.73-3-14.88-1.38-29.66-3.53-44.44-5.69A323.65,323.65,0,0,1,744,633a501.77,501.77,0,0,1-66.53-23.52q-24.7-10.85-48.44-24.15a536.49,536.49,0,0,1-69.38-46.69c-15.47-12.18-30.26-25.44-44.73-39.18-3.82-3.62-8.1-6.58-11.41-10.93a25.56,25.56,0,0,1-2.44-3.23C499.35,482.25,500.38,479.56,503.45,479.06Z"/>
    <path class="cls-1" d="M687.89,46.3c1.51,34.21,7.68,67.38,19.57,98.81a292.22,292.22,0,0,0,31.2,60,283.94,283.94,0,0,0,32.83,40,268.42,268.42,0,0,0,65.31,49.44c18.08,9.66,36.78,17.4,56.3,22.35A355,355,0,0,0,930,324a38.59,38.59,0,0,0,5.27.24c7.38,0,14.77-.23,22.14.05,17.37.67,34.28-3.09,51.16-7a325.32,325.32,0,0,0,45.8-14.42c15.66-6.13,31.24-12.52,46.45-20.16,13.4-6.73,27-13,40.25-20.06,12-6.35,24-12.68,36.09-18.89,23.16-11.93,46.28-24,70-34.3A512.11,512.11,0,0,1,1304,188.6a256.1,256.1,0,0,1,44.62-8.93c11.16-1.29,22.43-2.49,33.65-1.38,15.37,1.53,30.7,3.34,45.79,7.71a225.92,225.92,0,0,1,55.51,24.79,301.3,301.3,0,0,1,52.82,41.66c13.66,13.36,26.28,28,38.51,43,8.83,10.87,17,22.46,24.86,34.36,11.17,17,21.43,34.66,31.18,52.8,16,29.87,30,61.09,43,92.85,8.62,21,16.91,42.13,24.59,63.61,6.74,18.81,13.36,37.68,20.29,56.39,5.18,14,10.07,28.12,15.19,42.14,5.38,14.77,10.91,29.48,16.31,44.24,5.27,14.4,10.8,28.66,16.72,42.7,5.37,12.75,10.7,25.52,16.28,38.15,9.38,21.24,19.66,41.87,30.57,62.08q14,25.88,29.91,50.12c1.81,2.74,3.38,5.82,6.25,7.34V628.59c-11.17-4.39-20.55-12.15-29.21-21.29A73.26,73.26,0,0,1,1805,582.24c-3.39-9.13-4.55-18.42-1.82-28.18,3.21-11.44,11.66-19,22-19.53,7-.35,13.62.61,20,4.09a53.22,53.22,0,0,0,4.92,2.12V502.38a36,36,0,0,1-12-8.79c-10.51-11.06-19.92-23.2-26.06-38.41a221.94,221.94,0,0,1-14.71-59.06c-1.87-16.94-2.7-33.95-3.42-51-.61-14.42-.16-28.83-.83-43.21-1.35-29.22-3.44-58.34-11.64-86.31-8.66-29.54-21.51-56.29-38.8-80.09-16.75-23.06-35.84-43-58-58.57-26.16-18.38-54.21-31.07-84.33-37.21-13.67-2.79-27.37-5.13-41.28-5.08-4.23,0-8.31-1.52-12.58-1.25-11,.68-22,1.3-33.06,2.26-17.37,1.5-34.47,4.94-51.51,8.87A415.37,415.37,0,0,0,1418.82,57c-2.14.75-4.26,1.76-6.85,1.39.45-3.13,2.34-4.36,4.07-5.6,7.49-5.37,14.9-10.89,22.67-15.72,21.75-13.54,44.07-25.56,67.55-34.45A9.59,9.59,0,0,0,1510.38,0H1157c-.43,2.79-2.38,4-4.14,5.28a115.78,115.78,0,0,1-52.08,22c-9.2,1.46-18.46,2.8-27.75,2.36-20.25-.95-40-4.62-59.09-13.39-7.7-3.56-15.14-7.65-22.53-11.93-1.72-1-3.58-1.85-4.22-4.32H828c1.12,6.56,4.06,12.3,6.34,18.29,5.75,15.06,12.28,29.71,20.59,43.06A176.89,176.89,0,0,0,884.77,97.7c28.7,26.6,61.53,41.57,97.37,48.4a234.31,234.31,0,0,0,57.75,3.42,413,413,0,0,0,50.7-6.48c23.62-4.33,46.91-10.52,70.31-16.15a19.77,19.77,0,0,1,11.93.91c6.61,2.51,9,9.49,5.91,16.75-2.65,6.19-7.6,9.66-12,13.58a315,315,0,0,1-63.11,43.26,294.41,294.41,0,0,1-78,27.5,263.66,263.66,0,0,1-67.14,4.81,254.41,254.41,0,0,1-68.93-13.5,244.21,244.21,0,0,1-48.85-22.93,230.29,230.29,0,0,1-51.43-42.69c-14.07-15.74-26.47-33-36.15-52.7a252.94,252.94,0,0,1-19.77-54.46,316.86,316.86,0,0,1-6.22-36.31c-.41-3.66-.26-7.41-.36-11.11H686.63C685.92,15.47,687.22,30.9,687.89,46.3Z"/>
    <path class="cls-4" d="M439.52,20.67c15,24.2,31.63,46.8,48.85,68.76,11.63,14.84,23.21,29.77,36.21,43.15,11.06,11.4,21.77,23.3,32.92,34.62,12.49,12.68,25.63,24.4,38.87,36,12.11,10.57,24.6,20.54,37.25,30.23q26.52,20.26,54.43,37.69c15.66,9.77,31.67,18.77,47.94,27.13a677.22,677.22,0,0,0,77.9,34.4,621.82,621.82,0,0,0,90.59,25.75c13.84,2.77,27.72,5.22,41.71,6.82,8.2.94,16.42,1.75,24.61,2.73a253.13,253.13,0,0,0,25.71,1.86c31.25.53,62.49.41,93.73-2,10.64-.82,21.34-2.21,32.07-1.53a9.63,9.63,0,0,0,2.63-.13c10.59-2.41,21.37-1.3,32-2,24.18-1.59,48.47.93,72.68-1.55,4.93-.5,9.83,1.14,14.69,1,13.08-.27,25.9,2.44,38.74,4.37a299.93,299.93,0,0,1,63.58,17.32c15.2,5.88,30.24,12.26,44.73,20.22,10.66,5.86,21.26,12,31.52,18.69a443.2,443.2,0,0,1,40.9,30.53,455.35,455.35,0,0,1,48.3,46.73q12.35,13.89,23.88,28.79c8.85,11.49,17.2,23.41,25.17,35.68a516.57,516.57,0,0,1,28.72,50.34A576.75,576.75,0,0,1,1617,680.47c14,39.21,25.42,79.52,36.92,119.79,6.69,23.46,13.75,46.78,21.68,69.7,8.52,24.63,17.87,48.81,29.3,71.87a348.06,348.06,0,0,0,40.38,63.12,187.19,187.19,0,0,0,18.87,19.68q8.73,8.14,17.92,15.37H1850V882.26c-2.87-1.52-4.44-4.6-6.25-7.34q-16-24.23-29.91-50.12c-10.91-20.21-21.19-40.84-30.57-62.08-5.58-12.63-10.91-25.4-16.28-38.15-5.92-14-11.45-28.3-16.72-42.7-5.4-14.76-10.93-29.47-16.31-44.24-5.12-14-10-28.15-15.19-42.14-6.93-18.71-13.55-37.58-20.29-56.39-7.68-21.48-16-42.64-24.59-63.61-13-31.76-27-63-43-92.85-9.75-18.14-20-35.83-31.18-52.8-7.83-11.9-16-23.49-24.86-34.36-12.23-15.05-24.85-29.67-38.51-43a301.3,301.3,0,0,0-52.82-41.66A225.92,225.92,0,0,0,1428,186c-15.09-4.37-30.42-6.18-45.79-7.71-11.22-1.11-22.49.09-33.65,1.38A256.1,256.1,0,0,0,1304,188.6a512.11,512.11,0,0,0-56.8,20.84c-23.73,10.35-46.85,22.37-70,34.3-12.06,6.21-24.08,12.54-36.09,18.89-13.29,7-26.85,13.33-40.25,20.06-15.21,7.64-30.79,14-46.45,20.16a325.32,325.32,0,0,1-45.8,14.42c-16.88,3.88-33.79,7.64-51.16,7-7.37-.28-14.76,0-22.14-.05A38.59,38.59,0,0,1,930,324a355,355,0,0,1-36.89-7c-19.52-4.95-38.22-12.69-56.3-22.35a268.42,268.42,0,0,1-65.31-49.44,283.94,283.94,0,0,1-32.83-40,292.22,292.22,0,0,1-31.2-60c-11.89-31.43-18.06-64.6-19.57-98.81-.67-15.4-2-30.83-1.26-46.3H657.1c.17,6.83,1.55,13.46,2.52,20.15,2.44,16.85,5.52,33.58,7.62,50.48,2.09,16.74,3,33.63-.84,50.31-5.12,22.5-22.37,37.64-42.17,38.92-12,.79-21-4.49-29.15-13.82-9.14-10.53-18.4-20.92-27.52-31.47-9.75-11.28-18.73-23.35-27.62-35.59-8.46-11.63-16-24-23.86-36.12-6.79-10.52-12.45-21.93-17.89-33.47A25.65,25.65,0,0,1,495.72,0H427.17a12.11,12.11,0,0,0,2,4.31C432.46,9.89,436.12,15.17,439.52,20.67ZM1184.78,311a178,178,0,0,1,15.35-13,220.08,220.08,0,0,1,100.27-44.31c16.76-3,33.64-3.2,50.46-2.26a201.44,201.44,0,0,1,52.33,10.44,266.45,266.45,0,0,1,43.5,18.64,311.18,311.18,0,0,1,62.87,44.87,379.73,379.73,0,0,1,41.06,44.3c18.48,23.49,33.91,49.43,44,79.33a167.15,167.15,0,0,1,8.08,33.22c1,8.38,1.11,16.82-1.76,25-3.12,8.83-10.06,12.41-17.65,8.86-4-1.87-7.32-4.9-10.58-8-14.22-13.73-28.24-27.75-42.51-41.43a819.51,819.51,0,0,0-62.82-55.11c-25.69-20-52.72-37.11-81.91-49a277.41,277.41,0,0,0-56.8-16,368.78,368.78,0,0,0-38.19-4.64c-15.4-1.07-30.84-2.62-42.9-1.5-11.85,0-20.29.24-28.72-.07s-16.45-1.73-24.06-6a36,36,0,0,1-10.4-8.3C1180.17,320.79,1180.11,315.57,1184.78,311Z"/>
    <path class="cls-4" d="M60.75,367.79c22.19,22.5,41.54,47.87,56.64,77.54,12.1,23.79,20.71,49.12,24.55,76.49,2,14.21,3.42,28.65,2.41,43a400.36,400.36,0,0,1-10.29,66.75c-6.75,27.79-15.51,54.73-23.94,81.83-8.48,27.29-16.84,54.65-21.81,83.24a262.13,262.13,0,0,0-3.77,59.6,172.06,172.06,0,0,0,7.7,43.41c3.11,9.64,6.31,19.21,11,28a213.72,213.72,0,0,0,15.38,25c14.18,19.73,31.48,35.13,49.54,49.47,15.43,12.25,31.63,23,47.75,33.89l5.8,3.91H347.19c-7.8-9.76-15.05-20.09-22.32-30.42-9.86-14-18.62-28.92-27.18-44-7.78-13.72-14.82-28-21.38-42.55a612.91,612.91,0,0,1-33-92.16A602.94,602.94,0,0,1,229.66,768c-2.66-16.81-4.72-33.73-6.75-50.64-1.63-13.63-2.19-27.44-3.62-41.11-1.53-14.7-1.79-29.55-3.8-44.2a152.85,152.85,0,0,1-1.3-16.58c-.33-12.8-2.3-25.37-3.65-38-2.1-19.62-5.23-39-9-58.31-2-10.25-4.85-20.22-7.38-30.3-3.84-15.28-9.28-29.8-15.29-44-3.74-8.85-7.94-17.45-12.23-25.95-6.72-13.33-14.73-25.63-22.95-37.7-6.67-9.8-14.51-18.45-21.9-27.54C108,336.74,92.75,321.9,77,307.81a656.85,656.85,0,0,0-72.1-55.54A35.46,35.46,0,0,0,0,250v69.3c4.09,1,7.3,4,10.74,6.44A368.28,368.28,0,0,1,60.75,367.79Zm122,382.26c8.4,12.08,12.62,26.43,14.57,41.83,2.06,16.28,2.6,32.78,5.14,49,3.37,21.4,8.94,41.93,17.87,61.09a222.34,222.34,0,0,1,8.36,21.32,51.42,51.42,0,0,1,2.09,26c-1.56,8.7-8.9,19.61-19.66,19.76-9.95.13-17.37-5.16-24.6-12-10.12-9.67-18.39-21.5-27.34-32.47-13-15.93-24.57-33.28-32.7-53.48-6.78-16.84-10.81-34.32-10.64-53.08.83-19.46,3.61-38.45,11-56.14,3.92-9.44,9.79-17.08,17.87-22C159.33,731.06,173,736,182.76,750.05Z"/>
    <path class="cls-3" d="M77,307.81c15.79,14.09,31,28.93,44.79,45.84,7.39,9.09,15.23,17.74,21.9,27.54,8.22,12.07,16.23,24.37,22.95,37.7,4.29,8.5,8.49,17.1,12.23,25.95,6,14.21,11.45,28.73,15.29,44,2.53,10.08,5.35,20,7.38,30.3,3.81,19.27,6.94,38.69,9,58.31,1.35,12.65,3.32,25.22,3.65,38a152.85,152.85,0,0,0,1.3,16.58c2,14.65,2.27,29.5,3.8,44.2,1.43,13.67,2,27.48,3.62,41.11,2,16.91,4.09,33.83,6.75,50.64a602.94,602.94,0,0,0,13.67,62.85,612.91,612.91,0,0,0,33,92.16c6.56,14.57,13.6,28.83,21.38,42.55,8.56,15.09,17.32,30,27.18,44,7.27,10.33,14.52,20.66,22.32,30.42h53.1a503.59,503.59,0,0,1-33.16-38.52A543.72,543.72,0,0,1,310.78,913c-10.09-20-20.08-40.2-27.14-62.06-3.46-10.71-5.58-21.78-3.11-33.28,2.41-11.22,7.62-20.21,16.05-26.5,17.26-12.89,34.9-11.37,52.84-2.18,12.2,6.25,22.79,15.5,33.39,24.65a370.5,370.5,0,0,0,41.7,31.22c20.08,12.91,41.25,22.85,62.66,32.17,18.61,8.1,37.51,15.22,56.38,22.44,21.39,8.19,42.69,16.7,63.61,26.36A361.07,361.07,0,0,1,652,950.25c13.72,8.88,27.07,18.36,39.51,29.53,6.54,5.88,13.06,11.84,18.83,18.8,2.82,3.4,6.26,5.94,9.09,9.37,8.6,10.44,17,21.09,25.09,32h72.07c-8.18-12.15-16.63-24-25.46-35.52q-10-13.07-20.51-25.72a414.8,414.8,0,0,0-40.2-42.58A314.3,314.3,0,0,0,701.87,913a402.37,402.37,0,0,0-34-22.31c-15-8.62-30.35-16.2-45.82-23.55-22.82-10.84-46.25-19.59-69.47-29.08-15.74-6.44-31.75-12-47.45-18.57-19.83-8.31-39.59-16.85-58.91-26.75C428,783.41,410.14,773.34,393,761.42a360.19,360.19,0,0,1-38.71-31c-12.84-11.88-24.28-25.59-35.72-39.28-6.27-7.5-12.07-15.51-17.64-23.71a620.69,620.69,0,0,1-34.21-56.36c-4.66-8.73-9.32-17.46-13.81-26.31-7-13.81-13.68-27.85-20.17-42-6.91-15.06-14.16-29.89-21.09-44.93-6-13.05-11.51-26.42-17.71-39.34-9.29-19.38-18-39.11-27.94-58.11-9.35-17.93-18.84-35.73-29.1-52.94C130.09,336,123,324.71,115.17,314.13c-4.84-6.52-9.38-13.37-14.49-19.57-14.91-18.05-30.33-35.39-47.78-50.24C37.37,231.11,21.3,219,5,207.25a9.14,9.14,0,0,0-5-1.84V250a35.46,35.46,0,0,1,4.86,2.32A656.85,656.85,0,0,1,77,307.81Z"/>
    <path class="cls-1" d="M710.38,998.58c-5.77-7-12.29-12.92-18.83-18.8-12.44-11.17-25.79-20.65-39.51-29.53a361.07,361.07,0,0,0-44.88-24.42c-20.92-9.66-42.22-18.17-63.61-26.36-18.87-7.22-37.77-14.34-56.38-22.44-21.41-9.32-42.58-19.26-62.66-32.17a370.5,370.5,0,0,1-41.7-31.22c-10.6-9.15-21.19-18.4-33.39-24.65-17.94-9.19-35.58-10.71-52.84,2.18-8.43,6.29-13.64,15.28-16.05,26.5-2.47,11.5-.35,22.57,3.11,33.28,7.06,21.86,17.05,42,27.14,62.06a543.72,543.72,0,0,0,56.35,88.47A503.59,503.59,0,0,0,400.29,1040H516.71c-1.4-1.67-2.79-3.35-4.15-5.09-9.43-12-17.26-25.42-24.71-39.15a24.16,24.16,0,0,1-2.38-16.07c1.2-6.52,5.35-10.54,10.36-13a25.34,25.34,0,0,1,12.87-2.8,137.1,137.1,0,0,1,41.15,9.5,104.59,104.59,0,0,1,37.71,26.44c10.47,11.28,19.23,24.23,23.05,40.17H744.56c-8.1-11-16.49-21.61-25.09-32C716.64,1004.52,713.2,1002,710.38,998.58Z"/>
    <path class="cls-1" d="M31.89,1028.24c-1.86-7.28-1.6-14.74-1.07-22.1.53-7.52,7.25-14.82,13.72-15.91a7.08,7.08,0,0,1,6,1.76,11.84,11.84,0,0,1,3.44,4.61c6.69,16.12,16.8,29.27,26.55,42.8l.44.6h63.13c-6.47-5.4-12.91-10.85-19.26-16.46-7.7-6.8-15.18-13.95-22.33-21.58-4.15-4.43-8.45-8.66-12.39-13.38C73.77,969.05,60.67,947.05,53.16,921c-3.65-12.67-6.48-25.64-6.88-39.21-.17-5.73-1.09-11.44-.94-17.23a339.75,339.75,0,0,1,5.13-50.82c5.34-29.75,14.06-58.25,23-86.67,8.68-27.43,17.07-55,23-83.45a282.57,282.57,0,0,0,5.54-75.43,257.26,257.26,0,0,0-17.32-77.33A270.35,270.35,0,0,0,60.21,442,236.23,236.23,0,0,0,6.73,383.07c-2.07-1.61-4.13-3.16-6.73-3.19V1040H35.22Q33.42,1034.18,31.89,1028.24Z"/>
    <path class="cls-3" d="M1183.45,1005.3c-17.49-14.53-35.32-28.45-53.88-41.11-14-9.53-28.07-18.8-42.4-27.53-16.83-10.26-33.79-20.26-50.93-29.76-11.29-6.25-22.45-12.79-33.59-19.37-13.66-8-27.4-15.89-40.9-24.34-9.44-5.92-19.16-11.32-28.31-17.81q-29.09-20.64-59.37-38.71c-19.75-11.72-39.87-22.56-59.89-33.62-21.64-11.94-44.47-17.88-67.83-21.7-14.23-2.33-28.54-4-42.87-5.59-9.62-1-19.1-2.59-28.79-.89-8.24,1.44-16.28,3.37-23.49,8.51-9.42,6.73-14,16.53-13,29.54.72,9.13,4.16,17,9,24,9.63,14,22.21,24,34.92,33.49a302.94,302.94,0,0,0,32.1,21.23c8,4.54,16,9.5,24.15,13.69,19,9.74,37.73,20.14,56.54,30.33,10.69,5.79,20.95,12.56,31.2,19.36a263.22,263.22,0,0,1,46.65,39c14.69,15.61,26.43,34.12,37,53.6,4,7.37,7.86,14.86,11.62,22.41H967a364.55,364.55,0,0,1-20.45-37.74c-4.91-10.48-9.91-20.89-13.52-32.11-2.68-8.29-3.45-16.58-1.08-25.37,2.86-10.64,12.78-18.93,23.45-15.81a468.19,468.19,0,0,1,64.19,24,497.74,497.74,0,0,1,54.63,29.24c9.78,6,19.29,12.71,28.74,19.46a459.45,459.45,0,0,1,39.1,31.45c2.52,2.25,5,4.54,7.48,6.83h70.39c-3.56-3.74-7.16-7.43-10.87-11C1200.62,1020.94,1192.32,1012.67,1183.45,1005.3Zm-328.63-128c-6.25,1.6-12.49,1.4-18.83.58-7.3-1-14.66-1.27-21.92-2.93a168,168,0,0,1-37.23-13,188.14,188.14,0,0,1-33.27-21,62,62,0,0,1-11.68-11.46c-3.31-4.41-5.82-9.28-6.19-15.34-.61-10.25,4.61-17.56,13.36-18.41,2.79-.27,5.62,0,8.42,0,16.82,0,33.07,3.78,49,9.85a163.07,163.07,0,0,1,39.76,22.32,150.22,150.22,0,0,1,23.11,21.34,33.36,33.36,0,0,1,3.42,4.67C868.83,863.9,865.12,874.69,854.82,877.33Z"/>
    <path class="cls-3" d="M60.21,442a270.35,270.35,0,0,1,24.56,48.85,257.26,257.26,0,0,1,17.32,77.33,282.57,282.57,0,0,1-5.54,75.43c-6,28.49-14.35,56-23,83.45-9,28.42-17.71,56.92-23,86.67a339.75,339.75,0,0,0-5.13,50.82c-.15,5.79.77,11.5.94,17.23.4,13.57,3.23,26.54,6.88,39.21,7.51,26,20.61,48,36.92,67.58,3.94,4.72,8.24,8.95,12.39,13.38,7.15,7.63,14.63,14.78,22.33,21.58,6.35,5.61,12.79,11.06,19.26,16.46h77.62l-5.8-3.91c-16.12-10.9-32.32-21.64-47.75-33.89-18.06-14.34-35.36-29.74-49.54-49.47a213.72,213.72,0,0,1-15.38-25c-4.66-8.8-7.86-18.37-11-28a172.06,172.06,0,0,1-7.7-43.41,262.13,262.13,0,0,1,3.77-59.6c5-28.59,13.33-56,21.81-83.24,8.43-27.1,17.19-54,23.94-81.83a400.36,400.36,0,0,0,10.29-66.75c1-14.4-.42-28.84-2.41-43-3.84-27.37-12.45-52.7-24.55-76.49-15.1-29.67-34.45-55-56.64-77.54a368.28,368.28,0,0,0-50-42.1C7.3,323.27,4.09,320.21,0,319.25v60.63c2.6,0,4.66,1.58,6.73,3.19A236.23,236.23,0,0,1,60.21,442Z"/>
    <path class="cls-4" d="M1438.71,37.09c-7.77,4.83-15.18,10.35-22.67,15.72-1.73,1.24-3.62,2.47-4.07,5.6,2.59.37,4.71-.64,6.85-1.39a415.37,415.37,0,0,1,42.94-12.51c17-3.93,34.14-7.37,51.51-8.87,11-1,22-1.58,33.06-2.26,4.27-.27,8.35,1.27,12.58,1.25,13.91-.05,27.61,2.29,41.28,5.08,30.12,6.14,58.17,18.83,84.33,37.21,22.19,15.59,41.28,35.51,58,58.57,17.29,23.8,30.14,50.55,38.8,80.09,8.2,28,10.29,57.09,11.64,86.31.67,14.38.22,28.79.83,43.21.72,17.07,1.55,34.08,3.42,51A221.94,221.94,0,0,0,1812,455.18c6.14,15.21,15.55,27.35,26.06,38.41a36,36,0,0,0,12,8.79V48.26c-4-1.57-7.39-4.62-11-7.12a341.39,341.39,0,0,0-70.47-37.73c-2.15-.83-4.42-1.41-6.09-3.41H1510.38a9.59,9.59,0,0,1-4.12,2.64C1482.78,11.53,1460.46,23.55,1438.71,37.09Z"/>
    <path class="cls-4" d="M733.29,47.42a252.94,252.94,0,0,0,19.77,54.46c9.68,19.75,22.08,37,36.15,52.7a230.29,230.29,0,0,0,51.43,42.69,244.21,244.21,0,0,0,48.85,22.93,254.41,254.41,0,0,0,68.93,13.5,263.66,263.66,0,0,0,67.14-4.81,294.41,294.41,0,0,0,78-27.5,315,315,0,0,0,63.11-43.26c4.44-3.92,9.39-7.39,12-13.58,3.1-7.26.7-14.24-5.91-16.75a19.77,19.77,0,0,0-11.93-.91c-23.4,5.63-46.69,11.82-70.31,16.15a413,413,0,0,1-50.7,6.48,234.31,234.31,0,0,1-57.75-3.42c-35.84-6.83-68.67-21.8-97.37-48.4a176.89,176.89,0,0,1-29.88-36.35c-8.31-13.35-14.84-28-20.59-43.06C832,12.3,829.08,6.56,828,0H726.71c.1,3.7-.05,7.45.36,11.11A316.86,316.86,0,0,0,733.29,47.42Z"/>
    <path class="cls-4" d="M53.94,996.6A11.84,11.84,0,0,0,50.5,992a7.08,7.08,0,0,0-6-1.76c-6.47,1.09-13.19,8.39-13.72,15.91-.53,7.36-.79,14.82,1.07,22.1q1.53,5.94,3.33,11.76H80.93l-.44-.6C70.74,1025.87,60.63,1012.72,53.94,996.6Z"/>
    <path class="cls-1" d="M93.2,60.18c4,9.61,8.45,19,12.62,28.51,9.24,21.14,20.59,40.75,32.14,60.18,5.23,8.78,11.19,16.92,16.83,25.34,8.25,12.33,17.46,23.63,26.4,35.22,7.44,9.63,15.79,18.19,24,26.81,6.27,6.56,12.48,13.31,19.73,18.48s14.58,10.83,23.44,12.07c9.71,1.34,19.1.65,26.74-7.56a48,48,0,0,0,12.74-25.76c3.14-20.24.59-39.77-5.87-58.69-3.39-9.93-6.88-19.83-10.18-29.78-6.35-19.21-13.16-38.17-20.23-57-5.38-14.33-10.63-28.71-16.48-42.8-4.47-10.74-8.69-21.61-13.72-32-2-4.07-4.32-8.11-4.13-13.17H72.78A28.53,28.53,0,0,0,74.3,7.18,528.67,528.67,0,0,0,93.2,60.18Z"/>
    <path class="cls-3" d="M516.08,42.86C523.91,55,531.48,67.35,539.94,79c8.89,12.24,17.87,24.31,27.62,35.59,9.12,10.55,18.38,20.94,27.52,31.47,8.11,9.33,17.13,14.61,29.15,13.82,19.8-1.28,37-16.42,42.17-38.92,3.79-16.68,2.93-33.57.84-50.31-2.1-16.9-5.18-33.63-7.62-50.48-1-6.69-2.35-13.32-2.52-20.15H495.72a25.65,25.65,0,0,0,2.47,9.39C503.63,20.93,509.29,32.34,516.08,42.86Z"/>
    <path class="cls-3" d="M991.45,4.32c7.39,4.28,14.83,8.37,22.53,11.93,19,8.77,38.84,12.44,59.09,13.39,9.29.44,18.55-.9,27.75-2.36a115.78,115.78,0,0,0,52.08-22C1154.66,4,1156.61,2.79,1157,0H987.23C987.87,2.47,989.73,3.32,991.45,4.32Z"/>
    <path class="cls-4" d="M1825.11,534.53c-10.31.53-18.76,8.09-22,19.53-2.73,9.76-1.57,19.05,1.82,28.18a73.26,73.26,0,0,0,15.83,25.06c8.66,9.14,18,16.9,29.21,21.29V540.74a53.22,53.22,0,0,1-4.92-2.12C1838.73,535.14,1832.06,534.18,1825.11,534.53Z"/>
    <path class="cls-1" d="M1839,41.14c3.59,2.5,6.94,5.55,11,7.12V0h-87.54c1.67,2,3.94,2.58,6.09,3.41A341.39,341.39,0,0,1,1839,41.14Z"/>
    <path class="cls-4" d="M1155.37,817.53a145,145,0,0,1,20.57,17.16c14,13.66,26.91,28.84,40.73,42.79,11.16,11.26,21.89,23.1,32.85,34.63,4.72,5,10.31,6.85,16.57,5.9,3.08-.46,4.33-1.91,4.73-5.5a35.38,35.38,0,0,0,0-4.11c.85-7.09-2.25-12-6-16.58a298.87,298.87,0,0,0-27.13-29.18c-11.13-10.43-22.89-19.78-35.9-26.73-14.69-7.85-29.45-15.5-44.21-23.18-1.91-1-4.45-3.72-5.87-.24C1150.61,815.29,1153.63,816.38,1155.37,817.53Z"/>
    <path class="cls-4" d="M1291.68,954c4.53.15,8.11-3.08,8.69-7.83.67-5.5-2.6-12.66-7-14.65-3-1.36-6.21-2-9,.65s-3.51,8.48-2,13.19C1284,950.36,1287.78,953.87,1291.68,954Z"/>
    <path class="cls-4" d="M1309.42,974.36c3.24.22,5.68-2.77,5.78-7.06.11-4.95-3.29-9.39-7.24-9.44-3.32,0-6,3.08-6,6.94C1302,969.46,1305.58,974.11,1309.42,974.36Z"/>
    <path class="cls-4" d="M1670.46,1012.6c-7.27-9.3-12.93-19.44-14.46-32.27-.43-3.66-1.34-7.25-2.08-10.85a30.68,30.68,0,0,0-8.51-16c-7.11-7.08-17.53-4.68-22,5-4.25,9.23-4.11,19.12-2.75,29a184.09,184.09,0,0,0,15.59,52.56h60A222.65,222.65,0,0,1,1670.46,1012.6Z"/>
    <path class="cls-3" d="M1340.94,567.09a106,106,0,0,0,22.63,34.57c8.07,8.09,16.9,14.71,27.78,16.47,5.73.93,10.76-.45,15-5.39,9.08-10.7,11.57-23.77,9.39-38.1-1.39-9.2-6.53-16.29-11.65-23.11-5.93-7.91-13.1-14.3-19.59-21.52a85.6,85.6,0,0,0-15.76-13.38,38.41,38.41,0,0,0-8.26-4.53q-1-.35-2-.6a16.93,16.93,0,0,0-2-.37,15.8,15.8,0,0,0-2.08-.13c-.35,0-.7,0-1.06,0a13.73,13.73,0,0,0-4.88.35,15.36,15.36,0,0,0-4.48,2c-4.69,3-8.32,8.53-9.81,15.08-.81,3.58.11,7,0,10.4C1333.82,549.14,1337.27,558.24,1340.94,567.09Z"/>
    <path class="cls-4" d="M518.11,344.88a18.92,18.92,0,0,0,6.36.13c.4-.06.79-.14,1.19-.23a14.59,14.59,0,0,0,1.6-.45,15.61,15.61,0,0,0,2.91-1.26l.11-.05a16.26,16.26,0,0,0,1.52-1,1.88,1.88,0,0,0,.23-.16c5-3.67,8.36-10.32,8-19.49.32-10.18-2.83-18.73-8.74-25.17a35.43,35.43,0,0,0-2.7-2.64c-7-6.12-14-12.4-21.4-17.86-6.51-4.78-13.54-7.63-21.45-7-10.53.87-18.67,11-18.42,23.36a37.85,37.85,0,0,0,4.91,18C483.16,330.45,499,341.29,518.11,344.88Z"/>
    <path class="cls-4" d="M1620.65,930.46c4.3-.1,8.78-5.45,8.76-10.47,0-5.28-5-10.32-10.17-10.39-4-.06-8.19,5.08-8.28,10.22C1610.86,925.6,1615.39,930.57,1620.65,930.46Z"/>
    <path class="cls-4" d="M1603.8,872c2.31.08,4.13-2.1,4.27-5.12.21-4.62-3.14-9.2-6.79-9.28-3-.06-5.14,2.38-5.29,6.16S1599.91,871.9,1603.8,872Z"/>
    <path class="cls-1" d="M503.46,488.56c3.31,4.35,7.59,7.31,11.41,10.93,14.47,13.74,29.26,27,44.73,39.18A536.49,536.49,0,0,0,629,585.36q23.73,13.3,48.44,24.15A501.77,501.77,0,0,0,744,633,323.65,323.65,0,0,0,784.3,642c14.78,2.16,29.56,4.31,44.44,5.69,15.57,1.43,31.17,2.46,46.73,3,41.25,1.32,82.55-.92,123.82,1.45,7.19.42,14.45-.43,21.6.36,11.52,1.27,23.07,2.22,34.59,3.15a403.15,403.15,0,0,1,47.48,7.13,358,358,0,0,1,49.15,13.89A402.14,402.14,0,0,1,1215.17,706a343.76,343.76,0,0,1,34.57,22.36c7.28,5.37,14.47,10.92,21.69,16.41,10.93,8.3,20.94,18,31,27.66,7.07,6.76,14.24,13.45,20.72,20.94,10.25,11.86,20.76,23.4,30.18,36.26,8,10.93,15.89,22,23.43,33.32,4.28,6.46,7.72,13.72,13.4,20.09.52-3.23-.71-4.89-1.51-6.61-6.06-13-12-26.11-18.44-38.87-11-21.59-22.37-42.85-35-63.13-6.13-9.79-12-19.86-18.55-29.22-5.13-7.28-10.23-14.62-15.47-21.81-7.08-9.7-14.19-19.36-21.8-28.46-9.21-11-18.48-22-28.27-32.37-10.55-11.19-21.3-22.08-32.49-32.31a529,529,0,0,0-50.34-40.52c-16.86-12-34.49-22.17-52.36-31.75-15.18-8.13-30.94-14.56-46.91-20.36a345.25,345.25,0,0,0-51.17-14.34,334.44,334.44,0,0,0-34.44-5.11c-8.39-.77-16.79-1.66-25.17-2-14.05-.59-28.12-.18-42.18-.15-1.93,0-3.86.18-5.78.35-7.69.69-15.38,2-23.06,2-11.81-.12-23.42,2.31-35.15,3.11-9,.61-18.15,1.84-27.21,3.07q-21.15,2.89-42.39,4.83c-4.89.45-9.77,1.58-14.67,1.43-7.23-.23-14.37,1-21.52,1.63-13.66,1.21-27.34,1.12-41,2.05-8.4.56-16.84-.61-25.23-.84a363.78,363.78,0,0,1-44.57-4.05c-18.8-2.86-37.42-6.78-55.63-13.25-23.65-8.41-46.36-19.2-67.36-34.6-2.77-2-5.75-3.17-9-2.64-3.07.5-4.1,3.19-2.43,6.27A25.56,25.56,0,0,0,503.46,488.56Zm354.71,77c3.32-.21,6.66,0,10,0,14.35,1.24,28.76.55,43.09,1.44,18.78,1.15,37.25,5.07,54.82,13.53A30.77,30.77,0,0,1,975,587a14,14,0,0,1-.91,20.12c-5,4.2-10.85,5.89-16.62,7.46-6.47,1.75-13,3.6-19.59,4.47-13.07,1.72-26.06,2.77-39.29,1.31a192.51,192.51,0,0,1-36.64-8.13c-8-2.51-14.81-7.09-18.91-16.26C837.28,583.14,842.75,566.52,858.17,565.55Z"/>
    <path class="cls-3" d="M1194.83,334.22c7.61,4.26,15.78,5.68,24.06,6s16.87.07,28.72.07c12.06-1.12,27.5.43,42.9,1.5a368.78,368.78,0,0,1,38.19,4.64,277.41,277.41,0,0,1,56.8,16c29.19,11.9,56.22,29,81.91,49a819.51,819.51,0,0,1,62.82,55.11c14.27,13.68,28.29,27.7,42.51,41.43,3.26,3.14,6.6,6.17,10.58,8,7.59,3.55,14.53,0,17.65-8.86,2.87-8.15,2.79-16.59,1.76-25a167.15,167.15,0,0,0-8.08-33.22c-10.12-29.9-25.55-55.84-44-79.33a379.73,379.73,0,0,0-41.06-44.3,311.18,311.18,0,0,0-62.87-44.87,266.45,266.45,0,0,0-43.5-18.64,201.44,201.44,0,0,0-52.33-10.44c-16.82-.94-33.7-.77-50.46,2.26A220.08,220.08,0,0,0,1200.13,298a178,178,0,0,0-15.35,13c-4.67,4.56-4.61,9.78-.35,14.91A36,36,0,0,0,1194.83,334.22Z"/>
    <path class="cls-1" d="M126.81,761.84c-7.35,17.69-10.13,36.68-11,56.14-.17,18.76,3.86,36.24,10.64,53.08,8.13,20.2,19.7,37.55,32.7,53.48,8.95,11,17.22,22.8,27.34,32.47,7.23,6.89,14.65,12.18,24.6,12,10.76-.15,18.1-11.06,19.66-19.76a51.42,51.42,0,0,0-2.09-26A222.34,222.34,0,0,0,220.34,902c-8.93-19.16-14.5-39.69-17.87-61.09-2.54-16.2-3.08-32.7-5.14-49-2-15.4-6.17-29.75-14.57-41.83-9.74-14-23.43-19-38.08-10.16C136.6,744.76,130.73,752.4,126.81,761.84Z"/>
    <path class="cls-4" d="M587.56,999.83a104.59,104.59,0,0,0-37.71-26.44,137.1,137.1,0,0,0-41.15-9.5,25.34,25.34,0,0,0-12.87,2.8c-5,2.46-9.16,6.48-10.36,13a24.16,24.16,0,0,0,2.38,16.07c7.45,13.73,15.28,27.17,24.71,39.15,1.36,1.74,2.75,3.42,4.15,5.09h93.9C606.79,1024.06,598,1011.11,587.56,999.83Z"/>
    <path class="cls-1" d="M1103,1001.72c-9.45-6.75-19-13.41-28.74-19.46A497.74,497.74,0,0,0,1019.58,953a468.19,468.19,0,0,0-64.19-24c-10.67-3.12-20.59,5.17-23.45,15.81-2.37,8.79-1.6,17.08,1.08,25.37,3.61,11.22,8.61,21.63,13.52,32.11A364.55,364.55,0,0,0,967,1040h182.54c-2.48-2.29-5-4.58-7.48-6.83A459.45,459.45,0,0,0,1103,1001.72Z"/>
    <path class="cls-1" d="M859.38,849.24a150.22,150.22,0,0,0-23.11-21.34,163.07,163.07,0,0,0-39.76-22.32c-16-6.07-32.21-9.84-49-9.85-2.8,0-5.63-.23-8.42,0-8.75.85-14,8.16-13.36,18.41.37,6.06,2.88,10.93,6.19,15.34A62,62,0,0,0,743.57,841a188.14,188.14,0,0,0,33.27,21,168,168,0,0,0,37.23,13c7.26,1.66,14.62,2,21.92,2.93,6.34.82,12.58,1,18.83-.58,10.3-2.64,14-13.43,8-23.42A33.36,33.36,0,0,0,859.38,849.24Z"/>
    <path class="cls-3" d="M861.92,612.2a192.51,192.51,0,0,0,36.64,8.13c13.23,1.46,26.22.41,39.29-1.31,6.64-.87,13.12-2.72,19.59-4.47,5.77-1.57,11.66-3.26,16.62-7.46A14,14,0,0,0,975,587a30.77,30.77,0,0,0-8.89-6.48C948.51,572,930,568.11,911.26,567c-14.33-.89-28.74-.2-43.09-1.44-3.34,0-6.68-.18-10,0-15.42,1-20.89,17.59-15.16,30.39C847.11,605.11,853.91,609.69,861.92,612.2Z"/>
  </g>
</svg>
