<?xml version="1.0" encoding="utf-8"?>
<!-- Generator: Adobe Illustrator 24.1.2, SVG Export Plug-In . SVG Version: 6.00 Build 0)  -->
<svg version="1.1" id="logo" xmlns="http://www.w3.org/2000/svg" xmlns:xlink="http://www.w3.org/1999/xlink" x="0px" y="0px" viewBox="0 0 500 250" style="fill: #fff" xml:space="preserve">
<g>
	<g>
		<path  d="M237.17,202.5h2.87v10.06h6.22v2.34h-9.09V202.5z"/>
		<path  d="M246.82,202.5h2.36l-0.2,5.03H247L246.82,202.5z"/>
		<path  d="M258.1,206.28c0.79,0.7,1.19,1.76,1.19,3.18v5.44h-2.59v-1.19c-0.52,0.89-1.49,1.33-2.9,1.33
			c-0.73,0-1.37-0.12-1.91-0.37c-0.54-0.25-0.95-0.59-1.23-1.03c-0.28-0.44-0.43-0.93-0.43-1.49c0-0.89,0.33-1.58,1-2.09
			c0.67-0.51,1.7-0.76,3.09-0.76h2.2c0-0.6-0.18-1.07-0.55-1.39c-0.36-0.32-0.91-0.49-1.65-0.49c-0.51,0-1.01,0.08-1.5,0.24
			c-0.49,0.16-0.91,0.37-1.25,0.65l-0.99-1.93c0.52-0.36,1.14-0.65,1.87-0.85s1.47-0.3,2.24-0.3
			C256.18,205.22,257.31,205.57,258.1,206.28z M255.75,212.85c0.36-0.22,0.63-0.54,0.78-0.97v-0.97h-1.89c-1.13,0-1.7,0.37-1.7,1.11
			c0,0.35,0.14,0.64,0.42,0.84s0.66,0.31,1.14,0.31C254.96,213.17,255.38,213.06,255.75,212.85z"/>
		<path  d="M276.38,206.28c0.7,0.7,1.05,1.76,1.05,3.16v5.45h-2.76v-5.03c0-0.76-0.16-1.32-0.47-1.69
			c-0.31-0.37-0.76-0.56-1.34-0.56c-0.65,0-1.16,0.21-1.54,0.63c-0.38,0.42-0.57,1.04-0.57,1.87v4.78H268v-5.03
			c0-1.5-0.6-2.25-1.8-2.25c-0.64,0-1.15,0.21-1.52,0.63c-0.38,0.42-0.57,1.04-0.57,1.87v4.78h-2.76v-9.53h2.64v1.1
			c0.35-0.4,0.79-0.71,1.3-0.92c0.51-0.21,1.08-0.32,1.69-0.32c0.67,0,1.28,0.13,1.82,0.4c0.54,0.27,0.98,0.65,1.31,1.16
			c0.39-0.5,0.88-0.88,1.48-1.15c0.6-0.27,1.25-0.41,1.96-0.41C274.73,205.22,275.68,205.57,276.38,206.28z"/>
		<path  d="M279.62,203.59c-0.32-0.3-0.48-0.66-0.48-1.1c0-0.44,0.16-0.8,0.48-1.1c0.32-0.3,0.73-0.44,1.24-0.44
			c0.51,0,0.92,0.14,1.24,0.43c0.32,0.28,0.48,0.64,0.48,1.06c0,0.46-0.16,0.84-0.48,1.14c-0.32,0.3-0.73,0.45-1.24,0.45
			C280.35,204.04,279.93,203.89,279.62,203.59z M279.47,205.36h2.76v9.53h-2.76V205.36z"/>
		<path  d="M290.51,214.43c-0.27,0.2-0.61,0.35-1,0.45c-0.4,0.1-0.81,0.15-1.25,0.15c-1.14,0-2.01-0.29-2.63-0.87
			c-0.62-0.58-0.93-1.43-0.93-2.55v-3.91h-1.47v-2.12h1.47v-2.32h2.76v2.32h2.37v2.12h-2.37v3.88c0,0.4,0.1,0.71,0.31,0.93
			c0.21,0.22,0.5,0.33,0.88,0.33c0.44,0,0.81-0.12,1.11-0.35L290.51,214.43z"/>
		<path  d="M291.76,203.59c-0.32-0.3-0.48-0.66-0.48-1.1c0-0.44,0.16-0.8,0.48-1.1c0.32-0.3,0.73-0.44,1.24-0.44
			c0.51,0,0.92,0.14,1.24,0.43c0.32,0.28,0.48,0.64,0.48,1.06c0,0.46-0.16,0.84-0.48,1.14c-0.32,0.3-0.73,0.45-1.24,0.45
			C292.5,204.04,292.08,203.89,291.76,203.59z M291.62,205.36h2.76v9.53h-2.76V205.36z"/>
		<path  d="M302.65,214.43c-0.27,0.2-0.61,0.35-1,0.45c-0.4,0.1-0.81,0.15-1.25,0.15c-1.14,0-2.01-0.29-2.63-0.87
			c-0.62-0.58-0.93-1.43-0.93-2.55v-3.91h-1.47v-2.12h1.47v-2.32h2.76v2.32h2.37v2.12h-2.37v3.88c0,0.4,0.1,0.71,0.31,0.93
			c0.21,0.22,0.5,0.33,0.88,0.33c0.44,0,0.81-0.12,1.11-0.35L302.65,214.43z"/>
		<path  d="M312.75,210.91h-7.21c0.13,0.59,0.44,1.06,0.92,1.4c0.48,0.34,1.09,0.51,1.8,0.51c0.5,0,0.94-0.07,1.32-0.22
			c0.39-0.15,0.74-0.38,1.07-0.7l1.47,1.59c-0.9,1.03-2.21,1.54-3.93,1.54c-1.07,0-2.03-0.21-2.85-0.63c-0.83-0.42-1.46-1-1.91-1.74
			c-0.45-0.74-0.67-1.59-0.67-2.53c0-0.93,0.22-1.77,0.66-2.52c0.44-0.75,1.05-1.33,1.82-1.75c0.77-0.42,1.64-0.63,2.59-0.63
			c0.93,0,1.78,0.2,2.53,0.6c0.76,0.4,1.35,0.98,1.78,1.73c0.43,0.75,0.65,1.62,0.65,2.61C312.8,210.2,312.78,210.45,312.75,210.91z
			 M306.29,207.84c-0.43,0.35-0.69,0.84-0.78,1.45h4.69c-0.09-0.6-0.35-1.08-0.78-1.44c-0.43-0.36-0.94-0.54-1.56-0.54
			C307.23,207.31,306.71,207.49,306.29,207.84z M308.57,201.59h2.98l-3.21,2.55h-2.16L308.57,201.59z"/>
		<path  d="M326.01,206.28c0.79,0.7,1.19,1.76,1.19,3.18v5.44h-2.59v-1.19c-0.52,0.89-1.49,1.33-2.9,1.33
			c-0.73,0-1.37-0.12-1.91-0.37c-0.54-0.25-0.95-0.59-1.23-1.03c-0.28-0.44-0.43-0.93-0.43-1.49c0-0.89,0.33-1.58,1-2.09
			c0.67-0.51,1.7-0.76,3.09-0.76h2.2c0-0.6-0.18-1.07-0.55-1.39c-0.36-0.32-0.91-0.49-1.65-0.49c-0.51,0-1.01,0.08-1.5,0.24
			c-0.49,0.16-0.91,0.37-1.25,0.65l-0.99-1.93c0.52-0.36,1.14-0.65,1.87-0.85s1.47-0.3,2.24-0.3
			C324.09,205.22,325.22,205.57,326.01,206.28z M323.66,212.85c0.36-0.22,0.63-0.54,0.78-0.97v-0.97h-1.89
			c-1.13,0-1.7,0.37-1.7,1.11c0,0.35,0.14,0.64,0.42,0.84s0.66,0.31,1.14,0.31C322.87,213.17,323.29,213.06,323.66,212.85z"/>
		<path  d="M338.85,205.36v9.53h-2.62v-1.13c-0.37,0.41-0.8,0.73-1.31,0.95c-0.51,0.22-1.06,0.33-1.65,0.33
			c-1.25,0-2.24-0.36-2.97-1.08c-0.73-0.72-1.1-1.79-1.1-3.21v-5.38h2.76v4.98c0,1.53,0.64,2.3,1.93,2.3c0.66,0,1.19-0.22,1.59-0.65
			c0.4-0.43,0.6-1.07,0.6-1.92v-4.71H338.85z"/>
		<path  d="M347.41,214.4c-0.81-0.42-1.44-1-1.89-1.74c-0.45-0.74-0.68-1.59-0.68-2.53c0-0.95,0.23-1.79,0.68-2.53
			c0.45-0.74,1.09-1.32,1.89-1.74c0.81-0.42,1.72-0.63,2.74-0.63c1,0,1.88,0.21,2.63,0.63c0.75,0.42,1.3,1.02,1.64,1.8l-2.14,1.15
			c-0.5-0.87-1.21-1.31-2.14-1.31c-0.72,0-1.32,0.24-1.79,0.71c-0.47,0.47-0.71,1.11-0.71,1.93c0,0.81,0.24,1.46,0.71,1.93
			c0.47,0.47,1.07,0.71,1.79,0.71c0.94,0,1.66-0.44,2.14-1.31l2.14,1.17c-0.34,0.76-0.89,1.34-1.64,1.77
			c-0.75,0.43-1.63,0.64-2.63,0.64C349.13,215.03,348.22,214.82,347.41,214.4z"/>
		<path  d="M372.39,210.91h-7.22c0.13,0.6,0.44,1.07,0.92,1.41c0.48,0.34,1.09,0.51,1.82,0.51c0.47,0,0.9-0.08,1.28-0.23
			c0.38-0.15,0.75-0.38,1.09-0.69l1.49,1.59c-0.45,0.51-1.01,0.89-1.68,1.15s-1.43,0.39-2.27,0.39c-0.87,0-1.66-0.15-2.35-0.43
			c-0.69-0.29-1.26-0.69-1.71-1.21c-0.45,0.52-1,0.92-1.65,1.21c-0.65,0.29-1.38,0.43-2.18,0.43c-0.99,0-1.88-0.21-2.67-0.63
			c-0.79-0.42-1.41-1-1.86-1.74c-0.45-0.74-0.67-1.59-0.67-2.53c0-0.95,0.22-1.79,0.67-2.53c0.45-0.74,1.07-1.32,1.86-1.74
			c0.79-0.42,1.68-0.63,2.67-0.63c0.8,0,1.53,0.14,2.19,0.43c0.66,0.28,1.2,0.68,1.62,1.2c0.43-0.52,0.96-0.92,1.6-1.2
			c0.64-0.28,1.35-0.43,2.13-0.43c0.93,0,1.77,0.2,2.52,0.6c0.75,0.4,1.34,0.97,1.78,1.72c0.44,0.74,0.66,1.61,0.66,2.6
			C372.44,210.42,372.42,210.67,372.39,210.91z M361.72,212.05c0.45-0.48,0.68-1.12,0.68-1.92s-0.23-1.44-0.68-1.92
			c-0.45-0.48-1.04-0.72-1.74-0.72s-1.29,0.24-1.75,0.72c-0.46,0.48-0.69,1.12-0.69,1.92s0.23,1.44,0.69,1.92
			c0.46,0.48,1.05,0.72,1.75,0.72S361.26,212.53,361.72,212.05z M365.91,207.84c-0.43,0.35-0.69,0.84-0.78,1.45h4.68
			c-0.09-0.6-0.35-1.08-0.76-1.44c-0.41-0.36-0.93-0.54-1.56-0.54S366.33,207.49,365.91,207.84z"/>
		<path  d="M383.44,205.36v9.53h-2.62v-1.13c-0.37,0.41-0.8,0.73-1.31,0.95s-1.06,0.33-1.65,0.33
			c-1.25,0-2.24-0.36-2.97-1.08c-0.73-0.72-1.1-1.79-1.1-3.21v-5.38h2.76v4.98c0,1.53,0.64,2.3,1.93,2.3c0.66,0,1.19-0.22,1.59-0.65
			c0.4-0.43,0.6-1.07,0.6-1.92v-4.71H383.44z"/>
		<path  d="M389.54,205.58c0.56-0.24,1.21-0.35,1.94-0.35v2.55c-0.31-0.02-0.51-0.03-0.62-0.03
			c-0.79,0-1.41,0.22-1.86,0.66c-0.45,0.44-0.67,1.11-0.67,1.99v4.5h-2.76v-9.53h2.64v1.26
			C388.53,206.16,388.98,205.81,389.54,205.58z"/>
		<path  d="M407.02,201.75v13.14h-2.64v-1.1c-0.69,0.83-1.68,1.24-2.98,1.24c-0.9,0-1.71-0.2-2.43-0.6
			c-0.73-0.4-1.3-0.97-1.71-1.72c-0.41-0.74-0.62-1.6-0.62-2.58s0.21-1.84,0.62-2.59c0.41-0.74,0.98-1.32,1.71-1.72
			c0.73-0.4,1.54-0.6,2.43-0.6c1.22,0,2.17,0.38,2.85,1.15v-4.62H407.02z M403.62,212.05c0.46-0.48,0.69-1.12,0.69-1.92
			s-0.23-1.44-0.69-1.92c-0.46-0.48-1.04-0.72-1.74-0.72c-0.71,0-1.29,0.24-1.75,0.72c-0.46,0.48-0.69,1.12-0.69,1.92
			s0.23,1.44,0.69,1.92c0.46,0.48,1.04,0.72,1.75,0.72C402.59,212.77,403.17,212.53,403.62,212.05z"/>
		<path  d="M418.41,210.91h-7.21c0.13,0.59,0.44,1.06,0.92,1.4c0.48,0.34,1.09,0.51,1.8,0.51c0.5,0,0.94-0.07,1.32-0.22
			c0.39-0.15,0.74-0.38,1.07-0.7l1.47,1.59c-0.9,1.03-2.21,1.54-3.93,1.54c-1.07,0-2.03-0.21-2.85-0.63c-0.83-0.42-1.46-1-1.91-1.74
			c-0.45-0.74-0.67-1.59-0.67-2.53c0-0.93,0.22-1.77,0.66-2.52c0.44-0.75,1.05-1.33,1.82-1.75c0.77-0.42,1.64-0.63,2.59-0.63
			c0.93,0,1.78,0.2,2.53,0.6c0.76,0.4,1.35,0.98,1.78,1.73c0.43,0.75,0.65,1.62,0.65,2.61C418.46,210.2,418.45,210.45,418.41,210.91
			z M411.95,207.84c-0.43,0.35-0.69,0.84-0.78,1.45h4.69c-0.09-0.6-0.35-1.08-0.78-1.44c-0.43-0.36-0.94-0.54-1.56-0.54
			C412.9,207.31,412.37,207.49,411.95,207.84z"/>
		<path  d="M424.43,201.75h2.76v13.14h-2.76V201.75z"/>
		<path  d="M428.91,202.5h2.36l-0.2,5.03h-1.98L428.91,202.5z"/>
		<path  d="M440.19,206.28c0.79,0.7,1.19,1.76,1.19,3.18v5.44h-2.59v-1.19c-0.52,0.89-1.49,1.33-2.9,1.33
			c-0.73,0-1.37-0.12-1.91-0.37c-0.54-0.25-0.95-0.59-1.23-1.03c-0.28-0.44-0.43-0.93-0.43-1.49c0-0.89,0.33-1.58,1-2.09
			c0.67-0.51,1.7-0.76,3.09-0.76h2.2c0-0.6-0.18-1.07-0.55-1.39c-0.36-0.32-0.91-0.49-1.65-0.49c-0.51,0-1.01,0.08-1.5,0.24
			c-0.49,0.16-0.91,0.37-1.25,0.65l-0.99-1.93c0.52-0.36,1.14-0.65,1.87-0.85s1.47-0.3,2.24-0.3
			C438.27,205.22,439.4,205.57,440.19,206.28z M437.84,212.85c0.36-0.22,0.63-0.54,0.78-0.97v-0.97h-1.89c-1.13,0-1.7,0.37-1.7,1.11
			c0,0.35,0.14,0.64,0.42,0.84s0.66,0.31,1.14,0.31C437.05,213.17,437.47,213.06,437.84,212.85z"/>
		<path  d="M458.48,206.28c0.7,0.7,1.05,1.76,1.05,3.16v5.45h-2.76v-5.03c0-0.76-0.16-1.32-0.47-1.69
			c-0.31-0.37-0.76-0.56-1.34-0.56c-0.65,0-1.16,0.21-1.54,0.63c-0.38,0.42-0.57,1.04-0.57,1.87v4.78h-2.76v-5.03
			c0-1.5-0.6-2.25-1.8-2.25c-0.64,0-1.15,0.21-1.52,0.63c-0.38,0.42-0.57,1.04-0.57,1.87v4.78h-2.76v-9.53h2.64v1.1
			c0.35-0.4,0.79-0.71,1.3-0.92c0.51-0.21,1.08-0.32,1.69-0.32c0.67,0,1.28,0.13,1.82,0.4c0.54,0.27,0.98,0.65,1.31,1.16
			c0.39-0.5,0.88-0.88,1.48-1.15c0.6-0.27,1.25-0.41,1.96-0.41C456.83,205.22,457.77,205.57,458.48,206.28z"/>
		<path  d="M463.51,214.4c-0.8-0.42-1.42-1-1.87-1.74c-0.45-0.74-0.67-1.59-0.67-2.53c0-0.95,0.22-1.79,0.67-2.53
			s1.07-1.32,1.87-1.74c0.8-0.42,1.7-0.63,2.7-0.63s1.9,0.21,2.69,0.63c0.79,0.42,1.41,1,1.86,1.74s0.67,1.59,0.67,2.53
			c0,0.94-0.22,1.79-0.67,2.53c-0.45,0.74-1.07,1.33-1.86,1.74c-0.79,0.42-1.69,0.63-2.69,0.63S464.3,214.82,463.51,214.4z
			 M467.95,212.05c0.45-0.48,0.68-1.12,0.68-1.92s-0.23-1.44-0.68-1.92c-0.45-0.48-1.04-0.72-1.74-0.72s-1.29,0.24-1.75,0.72
			c-0.46,0.48-0.69,1.12-0.69,1.92s0.23,1.44,0.69,1.92c0.46,0.48,1.05,0.72,1.75,0.72S467.5,212.53,467.95,212.05z"/>
		<path  d="M482.43,205.36v9.53h-2.62v-1.13c-0.37,0.41-0.8,0.73-1.31,0.95c-0.51,0.22-1.06,0.33-1.65,0.33
			c-1.25,0-2.24-0.36-2.97-1.08c-0.73-0.72-1.1-1.79-1.1-3.21v-5.38h2.76v4.98c0,1.53,0.64,2.3,1.93,2.3c0.66,0,1.19-0.22,1.59-0.65
			c0.4-0.43,0.6-1.07,0.6-1.92v-4.71H482.43z"/>
		<path  d="M488.53,205.58c0.56-0.24,1.21-0.35,1.94-0.35v2.55c-0.31-0.02-0.51-0.03-0.62-0.03
			c-0.79,0-1.41,0.22-1.86,0.66c-0.45,0.44-0.67,1.11-0.67,1.99v4.5h-2.76v-9.53h2.64v1.26
			C487.52,206.16,487.97,205.81,488.53,205.58z"/>
	</g>
	<path  d="M208.54,185.2l-26.18,23.43c-6.4,6.39-14.55,10.44-23.19,11.85c1.79-1.49,4.13-3.77,7.02-7.32
		c4.66-1.86,8.98-4.65,12.63-8.33l26.17-23.59c0.88-0.81,1.04-2.15,0.36-3.14l-1.33-1.91c-2.39-3.38-7.01-4.29-10.51-2.09
		l-14.94,9.49c-1.21,0.76-2.82,0.4-3.58-0.81c-0.4-0.63-0.5-1.4-0.3-2.11l18.92-64.39c0.85-2.46-0.14-5.17-2.36-6.51
		c-2.52-1.37-5.67-0.44-7.04,2.08c-0.19,0.36-0.34,0.73-0.45,1.13l-11.71,39.86c-0.4,1.38-1.85,2.16-3.22,1.76
		c-1.38-0.4-2.16-1.85-1.76-3.22l15.99-54.43c0.85-2.46-0.14-5.17-2.36-6.51c-2.52-1.37-5.67-0.44-7.04,2.08
		c-0.19,0.36-0.34,0.73-0.45,1.13l-14.07,47.9l-3.26-7.34l9.31-31.69c0.85-2.46-0.14-5.17-2.36-6.51c-2.52-1.37-5.67-0.44-7.04,2.08
		c-0.19,0.36-0.34,0.73-0.45,1.13l-5.97,20.31l-3.23-7.28c0.5-1.76,0.89-3.16,0.89-3.16l3.33-11.33c1.61-5.5,7.38-8.66,12.89-7.05
		c0.68,0.2,1.34,0.47,1.96,0.8c0.98,0.53,1.87,1.22,2.62,2.04l0.4-1.37c1.61-5.5,7.38-8.66,12.89-7.05c0.68,0.2,1.34,0.47,1.96,0.8
		c4.41,2.45,6.48,7.66,4.97,12.47l-1.75,5.95c5.57-1.36,11.19,2.06,12.55,7.64c0.46,1.9,0.38,3.89-0.24,5.75l-16.97,57.77l9.12-5.79
		c5.85-3.69,13.55-2.15,17.53,3.5l1.33,1.91C211.88,178.26,211.42,182.61,208.54,185.2z M156.22,220.27c0.34-0.25,0.67-0.5,1-0.76
		c0.43-0.34,0.88-0.7,1.34-1.1c0.47-0.4,0.93-0.8,1.37-1.21c0.2-0.18,0.4-0.37,0.6-0.56c0.56-0.54,1.11-1.1,1.63-1.67
		c0.18-0.2,0.36-0.39,0.53-0.59c0,0,0,0,0.01,0c10.43-11.77,13.66-28.99,6.84-44.28l-6.15-13.8l-0.08,0.04l-5.12-11.55l-0.01,0.02
		l-3.26-7.33l0.01-0.03l-11.59-26.13l0,0l-0.26-0.59c-0.18-0.43-0.41-0.83-0.68-1.2c-1.19-1.63-3.05-2.47-4.93-2.42
		c-1.16,0.03-2.32,0.4-3.33,1.14c-2.31,1.85-3.01,5.06-1.68,7.7l9.44,21.17l2.41,5.41c0.17,0.38,0.25,0.77,0.26,1.15
		c0.01,0.77-0.28,1.52-0.81,2.09c-0.26,0.27-0.57,0.5-0.94,0.66c-0.37,0.16-0.75,0.25-1.13,0.26c-1.16,0.03-2.27-0.63-2.78-1.75
		l-0.04-0.08l-21.62-48.5c-0.18-0.43-0.41-0.83-0.68-1.2c-1.19-1.63-3.05-2.47-4.93-2.42c-1.16,0.03-2.32,0.4-3.33,1.14
		c-2.31,1.85-3.01,5.06-1.68,7.7l21.48,48.17c0.66,1.49-0.01,3.24-1.5,3.9c-0.37,0.16-0.75,0.25-1.13,0.26
		c-1.16,0.03-2.27-0.63-2.78-1.75L96.24,92.76c-0.18-0.43-0.41-0.83-0.68-1.2c-1.19-1.63-3.05-2.47-4.93-2.42
		c-1.16,0.03-2.32,0.4-3.33,1.14c-2.31,1.85-3.01,5.06-1.68,7.7l26.29,58.97c0.66,1.49-0.01,3.24-1.5,3.9
		c-0.37,0.16-0.75,0.25-1.13,0.26c-1.16,0.03-2.27-0.63-2.78-1.75l-19.25-43.18c-0.18-0.43-0.41-0.83-0.68-1.2
		c-1.19-1.63-3.05-2.47-4.93-2.42c-1.16,0.03-2.32,0.4-3.33,1.14c-2.31,1.85-3.01,5.06-1.68,7.7l31.1,69.77
		c0.34,0.77,0.34,1.66-0.01,2.43c-0.48,1.06-1.52,1.7-2.61,1.73c-0.44,0.01-0.88-0.07-1.3-0.27l-18.29-8.44
		c-1.27-0.58-2.6-0.83-3.91-0.8c-3.12,0.08-6.09,1.81-7.63,4.75l-1.22,2.35c-0.62,1.22-0.24,2.71,0.88,3.49l33.1,22.64
		c7.83,6.02,17.38,9.03,26.96,8.78c5.03-0.13,10.07-1.15,14.88-3.11c2.39-1.07,4.62-2.35,6.7-3.79c0,0,0,0-0.01,0
		C155.55,220.75,155.87,220.52,156.22,220.27z M111.2,59.29c0.21,0.75,0.85,1.26,1.58,1.35c0.24,0.03,0.48,0.01,0.73-0.06
		c0.99-0.28,1.57-1.32,1.29-2.31l-8.53-30.06c-0.28-0.99-1.32-1.57-2.31-1.29c-0.99,0.28-1.57,1.32-1.29,2.31L111.2,59.29z
		 M51.67,106.12L24.39,90.89c-0.9-0.5-2.04-0.18-2.54,0.72c-0.5,0.9-0.18,2.04,0.72,2.54l27.29,15.22c0.22,0.12,0.46,0.2,0.69,0.23
		c0.73,0.08,1.47-0.27,1.85-0.95C52.9,107.76,52.57,106.62,51.67,106.12z M40.11,146.35c0.12-1.02-0.61-1.95-1.64-2.07l-31.03-3.62
		c-1.03-0.12-1.95,0.61-2.07,1.64s0.61,1.95,1.64,2.07l31.03,3.62C39.06,148.11,39.99,147.37,40.11,146.35z M40.87,184.59
		l-30.06,8.53c-0.99,0.28-1.57,1.32-1.29,2.31c0.21,0.75,0.85,1.26,1.58,1.35c0.24,0.03,0.48,0.01,0.73-0.06l30.06-8.53
		c0.99-0.28,1.57-1.32,1.29-2.31C42.9,184.88,41.86,184.31,40.87,184.59z M190.72,69.79c0.22,0.12,0.46,0.2,0.69,0.23
		c0.73,0.08,1.47-0.27,1.85-0.95l15.22-27.29c0.5-0.9,0.18-2.04-0.72-2.54c-0.9-0.5-2.04-0.18-2.54,0.72L190,67.25
		C189.5,68.15,189.82,69.29,190.72,69.79z M153.03,57.5c1.03,0.12,1.95-0.61,2.07-1.64l3.62-31.03c0.12-1.02-0.61-1.95-1.64-2.07
		c-1.03-0.12-1.95,0.61-2.07,1.64l-3.62,31.03C151.27,56.45,152.01,57.38,153.03,57.5z M80.17,74.83
		c2.95-8.99,5.68-20.21,0.68-27.23c-1.39-1.95-3.63-3.38-6.15-3.94c-2.84-0.63-5.71-0.04-8.07,1.64c-2.42,1.73-3.38,4.58-3.8,7.13
		c-2.54-0.43-5.55-0.46-7.98,1.27l0,0c-4.99,3.56-5.3,10.21-2.46,14.19c5.01,7.02,16.51,8.08,25.97,8.23c0.01,0,0.02,0,0.03,0
		C79.2,76.12,79.92,75.6,80.17,74.83z M57.03,56.74c1.39-1,3.67-1.07,6.96-0.24c0.53,0.13,1.1,0.03,1.55-0.29
		c0.45-0.32,0.73-0.82,0.78-1.37c0.28-3.38,1.09-5.5,2.49-6.5c1.9-1.36,3.82-1.31,5.09-1.03c1.6,0.35,3.07,1.27,3.91,2.46
		c3.85,5.39,1.57,15.18-0.76,22.58c-7.76-0.2-17.76-1.24-21.6-6.63C53.92,63.59,53.62,59.17,57.03,56.74L57.03,56.74z"/>
	<g>
		<g>
			<path  d="M276.89,75.06c-2.07,6.83-2.79,7.24-5.59,6c-1.97-0.93-4.86-1.86-8.18-1.86c-5.79,0-9.73,5.38-9.73,10.45
				c0,5.38,3.72,10.76,9.73,10.76c3.72,0,6.52-1.24,8.49-1.86c2.28-0.72,2.79,0,4.76,6.52c2.17,7.35,1.97,8.69-3.1,10.35
				c-3.31,1.14-6.31,1.55-10.14,1.55c-15.93,0-27.42-11.69-27.42-27.01c0-16.14,11.59-27.32,27.42-27.32
				c4.35,0,7.87,0.41,11.49,1.76C278.33,65.74,279.16,67.09,276.89,75.06z"/>
			<path  d="M315.89,108.58c-0.83-2.28-1.97-2.38-7.97-2.38h-1.66c-5.48,0-7.04,0.1-7.86,1.76c-1.97,6.31-3.62,9-10.04,9
				h-1.45c-7.24,0-9.21-3.52-5.59-12.42c0-0.1,12.31-30.63,12.31-30.73c4.35-10.76,4.55-11.18,12.42-11.18h1.97
				c7.87,0,8.18,0.41,12.52,11.18c0,0.1,12.21,30.63,12.21,30.73c3.62,8.9,1.76,12.42-5.48,12.42h-1.55c-5.59,0-7.55-2.07-9.31-6.83
				c0-0.1,0-0.21,0-0.31L315.89,108.58z M305.02,85.51l-2.17,7.24c-0.31,1.86,0.41,2.38,3.83,2.38h0.83c4.24,0,4.24-0.83,3.21-4.24
				c-0.1-0.1-0.1-0.31-0.1-0.62c-0.52-1.66-1.03-3.21-1.45-4.76C307.92,81.16,306.27,81.16,305.02,85.51z"/>
			<path  d="M356.24,116.96c-4.34,0-10.76-0.31-14.38-1.76c-4.03-1.34-5.07-2.59-3-9.93c1.97-6.73,4.35-6.21,6.93-5.07
				c1.97,0.83,3.41,1.66,6.83,1.66c3.83,0,4.66-2.17,4.66-3.21c0-2.48-1.45-3.93-7.24-5.79c-5.59-1.76-10.24-6.73-10.24-13.76
				c0-9.83,9.83-16.45,23.7-16.45c4.35,0,9.31,0.41,12.93,1.76c3.83,1.34,5.17,2.28,3,9.93c-2.07,6.83-4.35,5.79-6.93,4.66
				c-1.97-0.72-3.42-1.55-6.83-1.55c-3.62,0-5.59,1.34-5.59,2.79c0,1.86,1.45,3.52,7.24,5.07c6.62,1.66,11.9,6.93,11.9,14.49
				C379.21,109.62,371.03,116.96,356.24,116.96z"/>
			<path  d="M406.52,95.96c-2.59-0.1-4.03,0.83-4.03,2.9v0.1c0,2.07,1.45,2.79,4.03,2.69c0.1,0,6-0.1,6.1-0.1
				c6-0.1,8.59,2.69,8.59,6.62c0,6.83-4.45,8.8-11.07,8.8h-10.55c-11.49,0-14.59-3.62-14.59-17.69V80.33
				c0-14.07,3.1-17.69,14.59-17.69h10.55c6.62,0,11.07,2.59,11.07,8.79c0,3.93-2.59,6.83-8.59,6.62c-0.1,0-6-0.1-6.1-0.21
				c-2.59-0.1-4.03,0.72-4.03,2.79v0.1c0,2.07,1.45,2.9,4.03,2.9c0.1,0,3.83-0.1,5.59-0.21c3.93-0.1,6.52,1.03,6.52,6.42
				c0,5.48-1.97,6.52-6.52,6.31C410.76,96.06,406.62,95.96,406.52,95.96z"/>
		</g>
		<g>
			<path  d="M235.7,134.98c0-2.66,1.37-2.81,3.76-2.81h8.35c2.47,0,3.79,0.3,3.79,2.81c0,2.66-1.25,2.81-3.53,2.81
				c-0.91,0-1.21,0.15-1.21,1.14v9.41c0,2.66-0.46,3.76-2.96,3.76h-0.53c-2.62,0-2.92-1.37-2.92-4.55v-8.62
				c0-0.83-0.23-1.14-1.25-1.14C236.92,137.79,235.7,137.45,235.7,134.98z"/>
			<path  d="M271.91,142.19c0,5.62-4.21,9.91-10.02,9.91s-10.02-4.29-10.02-9.91c0-5.92,4.25-10.02,10.02-10.02
				C267.65,132.17,271.91,136.27,271.91,142.19z M265.45,142.08c0-1.86-1.52-3.83-3.57-3.83c-2.09,0-3.57,1.97-3.57,3.83
				c0,1.97,1.37,3.95,3.57,3.95C264.05,146.03,265.45,144.05,265.45,142.08z"/>
			<path  d="M286.21,152.1c-2.2,0-2.66-1.94-4.4-5.09c-0.91-1.59-1.59-1.33-1.59,0.08v1.25c0,2.66-0.49,3.76-2.96,3.76
				h-0.53c-2.66,0-2.96-1.37-2.96-4.55v-11.27c0.04-3.07,0.57-4.1,2.96-4.1h0.61c2.01,0,2.58,2.16,4.37,5.73
				c0.91,1.9,1.86,2.09,1.86-0.38v-1.25c0-3.07,0.57-4.1,2.96-4.1h0.53c2.54,0,2.96,1.44,2.96,4.89v11.27
				c0,2.66-0.46,3.76-2.96,3.76H286.21z"/>
		</g>
		<g>
			<path  d="M324.8,169.72v4.55c0,7.24-1.24,10.24-7.97,10.24h-1.45c-7.24,0-8.07-3.73-8.07-12.42v-30.73
				c0.1-8.38,1.55-11.18,8.07-11.18h16.35c14.07,0,20.07,7.86,20.07,17.49c0,11.38-7.35,17.38-20.8,17.38h-1.66
				C325.31,165.06,324.8,166.41,324.8,169.72z M328.83,141.99c-2.38,0-4.35,1.66-4.35,5.59c0,3.73,1.76,5.69,4.35,5.69
				c2.69,0,5.9-2.17,5.9-5.69C334.73,143.85,331.42,141.99,328.83,141.99z"/>
			<path  d="M410.05,157.51c0,15.31-11.49,27.01-27.32,27.01c-15.83,0-27.32-11.69-27.32-27.01
				c0-16.14,11.59-27.32,27.32-27.32C398.46,130.19,410.05,141.37,410.05,157.51z M392.46,157.2c0-5.07-4.14-10.45-9.73-10.45
				c-5.69,0-9.73,5.38-9.73,10.45c0,5.38,3.73,10.76,9.73,10.76C388.63,167.96,392.46,162.58,392.46,157.2z"/>
			<path  d="M410.77,137.85c0-7.24,3.72-7.66,10.24-7.66h22.76c6.73,0,10.35,0.83,10.35,7.66c0,7.24-3.42,7.66-9.62,7.66
				c-2.48,0-3.31,0.41-3.31,3.1v25.66c0,7.24-1.24,10.24-8.07,10.24h-1.45c-7.14,0-7.97-3.73-7.97-12.42v-23.49
				c0-2.28-0.62-3.1-3.41-3.1C414.08,145.5,410.77,144.57,410.77,137.85z"/>
			<path  d="M479.26,163.51c-2.59-0.1-4.03,0.83-4.03,2.9v0.1c0,2.07,1.45,2.79,4.03,2.69c0.1,0,6-0.1,6.1-0.1
				c6-0.1,8.59,2.69,8.59,6.62c0,6.83-4.45,8.8-11.07,8.8h-10.55c-11.49,0-14.59-3.62-14.59-17.69v-18.94
				c0-14.07,3.1-17.69,14.59-17.69h10.55c6.62,0,11.07,2.59,11.07,8.79c0,3.93-2.59,6.83-8.59,6.62c-0.1,0-6-0.1-6.1-0.21
				c-2.59-0.1-4.03,0.72-4.03,2.79v0.1c0,2.07,1.45,2.9,4.03,2.9c0.1,0,3.83-0.1,5.59-0.21c3.93-0.1,6.52,1.03,6.52,6.42
				c0,5.48-1.97,6.52-6.52,6.31C483.5,163.61,479.37,163.51,479.26,163.51z"/>
		</g>
	</g>
</g>
</svg>
