<svg xmlns="http://www.w3.org/2000/svg" xmlns:xlink="http://www.w3.org/1999/xlink" viewBox="0 0 451.4382 451.4382"><defs><style>.a{fill:url(#a);}.b{fill:url(#b);}.c{fill:url(#c);}</style><linearGradient id="a" x1="85.0425" y1="404.2377" x2="404.2476" y2="85.0326" gradientUnits="userSpaceOnUse"><stop offset="0" stop-color="#d31455"/><stop offset="1" stop-color="#fbd93e"/></linearGradient><linearGradient id="b" x1="-21.8713" y1="353.2684" x2="214.9538" y2="116.4433" gradientUnits="userSpaceOnUse"><stop offset="0" stop-color="#b73055"/><stop offset="1" stop-color="#eaa16e"/></linearGradient><linearGradient id="c" x1="183.8994" y1="510.4999" x2="420.7246" y2="273.6747" xlink:href="#b"/></defs><path class="a" d="M358.3238,280.6384a166.7742,166.7742,0,0,1,106.6435,38.3438A225.5423,225.5423,0,0,0,475.7191,250C475.7191,125.3387,374.6612,24.2809,250,24.2809A224.7052,224.7052,0,0,0,143.8443,50.7667,167.4747,167.4747,0,0,1,53.4269,359.2022c-.3375,0-.6724-.0107-1.0094-.0127A226.1918,226.1918,0,0,0,192.0684,468.2013,167.5046,167.5046,0,0,1,358.3238,280.6384Z" transform="translate(-24.2809 -24.2809)"/><path class="b" d="M220.8876,191.7416A167.3267,167.3267,0,0,0,143.8443,50.7667,225.824,225.824,0,0,0,52.4175,359.19c.337.002.6719.0127,1.0094.0127A167.4606,167.4606,0,0,0,220.8876,191.7416Z" transform="translate(-24.2809 -24.2809)"/><path class="c" d="M464.9673,318.9822A167.4639,167.4639,0,0,0,190.8631,448.0991a169.1026,169.1026,0,0,0,1.2053,20.1022A226.0132,226.0132,0,0,0,250,475.7191C350.6,475.7191,435.8145,409.9008,464.9673,318.9822Z" transform="translate(-24.2809 -24.2809)"/></svg>