<?xml version="1.0" encoding="utf-8"?>
<!-- Generator: Adobe Illustrator 26.0.0, SVG Export Plug-In . SVG Version: 6.00 Build 0)  -->
<svg version="1.1" id="logo" xmlns="http://www.w3.org/2000/svg" xmlns:xlink="http://www.w3.org/1999/xlink" x="0px" y="0px"
	 viewBox="0 0 500 250" style="enable-background:new 0 0 500 250;" xml:space="preserve">
<style type="text/css">
	.st0{fill:#FFFFFF;}
</style>
<g>
	<path class="st0" d="M10.8,78.8c0.4-3.4,0.6-6.8,1.2-10.1c3.8-20.5,19.3-35.6,39.9-38.9c10.3-1.6,20.5-1.2,30.5,2.1
		c0.7,0.2,1.3,0.5,2,0.8c4.4,1.8,5.9,4.3,5.2,9c-0.9,6.3-2.6,12.4-5.1,18.3c-1.8,4.4-3.3,5-7.6,3.1c-4.1-1.8-8.3-2.9-12.8-3.3
		c-9.9-0.9-16.1,5.4-18.7,11.8c-3.9,9.4,0,20.9,8.5,25.5c4.5,2.4,9.2,2.3,14,1.3c3.1-0.7,6.1-1.7,9.2-2.7c3.5-1.1,4.8-0.6,6.2,2.8
		c2.4,6,4.3,12.1,5.4,18.5c0.7,4.3-0.6,6.7-4.6,8.5c-5.4,2.4-11.2,3.6-17.1,4c-13,0.9-25.1-1.6-35.8-9.3
		c-10.8-7.8-17.2-18.5-19.4-31.6c-0.5-2.7-0.6-5.4-0.9-8.2C10.8,80,10.8,79.4,10.8,78.8z"/>
	<path class="st0" d="M140.5,29.3c3,0,6.1-0.1,9.1,0c4,0.2,7.3,2,9.1,5.6c2.4,4.9,4.7,9.8,6.7,14.8c7.9,19.6,15.7,39.3,23.4,59
		c1.2,2.9,1.9,6.1,2.4,9.2c1,6.3-1.7,10.1-8,11.3c-4.5,0.9-9.1,0.8-13.7,0c-4.3-0.7-7.5-3.1-9.4-6.9c-1.2-2.5-2.3-5.1-3.2-7.7
		c-1-3-3-4.5-6-4.5c-7.3,0-14.7,0-22,0.2c-2.6,0.1-4.4,1.5-5.1,4.2c-0.7,2.3-1.6,4.6-2.6,6.8c-2.3,5-6.2,7.9-11.7,8.2
		c-3.7,0.2-7.4,0.3-11-0.1c-6.8-0.8-10-5.2-8.8-12c0.6-3.4,1.5-6.7,2.8-9.9c8.8-22.2,17.7-44.3,26.6-66.4c0.9-2.3,2.1-4.4,3.3-6.5
		c1.9-3.3,4.9-5.1,8.7-5.3C134.3,29.2,137.4,29.3,140.5,29.3C140.5,29.3,140.5,29.3,140.5,29.3z M140.5,89.4c1.5-0.1,3-0.2,4.5-0.3
		c3-0.4,3.9-1.5,3.1-4.4c-1.4-5.2-2.9-10.3-4.5-15.5c-0.3-1-0.8-1.9-1.5-2.8c-1-1.4-2.2-1.4-3.2,0c-0.6,0.9-1.2,1.9-1.5,2.9
		c-1.2,3.8-2.4,7.7-3.6,11.6c-0.4,1.2-0.8,2.5-1.1,3.7c-0.7,2.7,0.2,4,2.9,4.4C137.4,89.2,139,89.3,140.5,89.4z"/>
	<path class="st0" d="M226.8,129.9c-6.6-0.2-13.3-0.5-19.8-2.1c-1.8-0.5-3.6-1.1-5.4-1.8c-4.9-1.8-6.4-4.1-5.8-9.3
		c0.6-4.8,1.8-9.4,3.8-13.8c0.3-0.7,0.7-1.4,1.2-2.1c2.1-3.2,4.5-4,8.1-2.7c1.4,0.5,2.7,1.1,4,1.7c4,1.7,8.1,2.3,12.4,1.9
		c3.3-0.3,5.7-2.1,6.4-4.7c0.7-2.6-0.4-5.7-3.2-7.3c-2.6-1.6-5.5-2.9-8.4-3.9c-5.4-1.8-10.3-4.3-14.1-8.6
		c-10.4-11.8-8.3-29.2,4.5-38.8c6.2-4.6,13.3-7.1,20.8-8.3c10.8-1.7,21.6-1.4,32.3,1.1c2.3,0.5,4.6,1.4,6.8,2.3
		c3.4,1.5,4.7,3.6,4.5,7.3c-0.4,5.4-1.8,10.5-4,15.4c-0.3,0.7-0.7,1.3-1.2,1.9c-1.9,2.6-3.9,3.3-6.9,2.2c-2.4-0.9-4.8-1.9-7.3-2.7
		c-4.5-1.4-9-1.6-13.6-0.4c-0.8,0.2-1.5,0.5-2.2,0.9c-2.9,1.6-3.4,4.4-1.4,7c1.7,2.1,4,3.1,6.4,4c3.1,1.1,6.4,1.9,9.5,3.1
		c9.9,3.9,16.5,10.9,18,21.7c1.8,12.8-4.1,23.7-15.5,29.9c-7.7,4.2-16,5.6-24.6,5.9C230.3,129.9,228.5,129.9,226.8,129.9z"/>
	<path class="st0" d="M281.5,79.3c0-8.7-0.2-17.4,0.1-26.1c0.1-3.5,0.8-7,1.6-10.3c2-7.9,7.4-12.3,15.9-13.2
		c3.4-0.4,6.8-0.6,10.2-0.6c7.8,0,15.6,0,23.4,0.3c4.5,0.2,8.6,1.7,11.8,5.1c3.7,3.9,5.1,11.2,2.9,16.1c-1.8,4-5.1,5.9-9.2,6.6
		c-1.9,0.3-3.9,0.4-5.8,0.4c-3.6,0-7.3-0.2-10.9-0.3c-1.3,0-2.6,0-3.9,0.3c-2.5,0.5-3.8,2.1-3.9,4.6c-0.1,2.7,1,4.6,3.5,5.2
		c1.5,0.4,3.1,0.6,4.7,0.6c3.6,0,7.3-0.3,10.9-0.3c7,0,10,2.6,10.6,9.6c0.2,2.5,0,5.1-0.4,7.6c-0.7,4-3.1,6-7.1,6.2
		c-3.4,0.1-6.8-0.1-10.2-0.1c-2.4,0-4.9-0.2-7.3,0.1c-3.3,0.4-4.9,2.4-4.7,5.6c0.2,2.9,1.9,4.6,5.3,4.6c4.2,0.1,8.5-0.1,12.7,0
		c2.2,0,4.4,0,6.6,0.5c7.3,1.4,10.9,6.6,10,14.1c-1,8.4-5.8,13.2-14.7,13.6c-10.8,0.4-21.7,0.2-32.5,0c-2.1,0-4.3-0.6-6.3-1.2
		c-6.4-1.9-10-6.4-11.7-12.7c-1.3-4.8-1.7-9.8-1.8-14.7c-0.1-7.2,0-14.4,0-21.6C281.3,79.3,281.4,79.3,281.5,79.3z"/>
</g>
<g>
	<path class="st0" d="M76.2,193.6c-2-0.7-2.7-1.7-2.4-3.8c0.2-2,0.7-4,1.6-5.8c0.1-0.3,0.3-0.5,0.4-0.8c0.9-1.4,1.9-1.7,3.4-1.1
		c0.6,0.2,1.3,0.5,1.9,0.8c1.6,0.6,3.2,0.8,4.8,0.7c0.1,0,0.2,0,0.4-0.1c1.1-0.2,2-0.7,2.3-1.9c0.3-1.2-0.1-2.3-1.2-2.9
		c-1-0.6-2.1-1.2-3.2-1.6c-1.7-0.6-3.4-1.2-4.8-2.4c-5.1-4-5.9-12.5,0.5-17.3c2.6-1.9,5.5-3,8.6-3.4c4.4-0.7,8.9-0.6,13.2,0.5
		c1,0.2,1.9,0.6,2.8,1c1.4,0.6,2,1.5,1.9,3.1c-0.2,2.2-0.7,4.3-1.6,6.2c-0.1,0.2-0.2,0.4-0.3,0.6c-0.8,1.3-1.7,1.6-3.2,1.1
		c-1.5-0.5-2.9-1.1-4.4-1.4c-1.6-0.3-3.2-0.3-4.7,0.4c-1.6,0.7-1.8,2.2-0.5,3.4c1,0.9,2.2,1.3,3.5,1.7c1.7,0.5,3.4,1,5,1.9
		c6.9,4.2,6.8,13.4,1.8,18.1c-4.6,4-9.2,4.7-15.3,4.7C79.7,195.4,76.2,193.6,76.2,193.6z"/>
	<path class="st0" d="M43.4,163.6c0-1.4,0.3-2.9,0.7-4.3c0.8-3.2,3-5.1,6.6-5.4c1.4-0.2,2.7-0.2,4.1-0.2c3.2,0,6.5,0,9.7,0.1
		c1.9,0.1,3.6,0.7,5,2.2c1.5,1.6,2,4.6,1.1,6.6c-0.7,1.6-2.1,2.4-3.8,2.7c-0.8,0.1-1.6,0.2-2.4,0.2c-1.5,0-3-0.1-4.5-0.1
		c-0.5,0-1.1,0-1.6,0.1c-1,0.2-1.6,0.9-1.6,1.9c-0.1,1.1,0.4,1.9,1.4,2.2c0.6,0.2,1.3,0.2,1.9,0.2c1.5,0,3-0.1,4.5-0.1
		c2.9,0,4.1,1.1,4.4,4c0.1,1,0,2.1-0.2,3.1c-0.3,1.7-1.3,2.5-3,2.6c-1.4,0.1-2.8,0-4.1,0c-1,0-2.1-0.1-3.1,0c-1.3,0.2-2,1-1.9,2.3
		c0.1,1.2,0.8,1.9,2.1,1.9c1.8,0,3.5,0,5.3,0c0.9,0,1.8,0,2.7,0.2c3,0.6,4.5,2.7,4.1,5.8c-0.4,3.5-2.4,5.5-6.1,5.6
		c-4.5,0.2-8.9,0.1-13.4,0c-0.9,0-1.8-0.3-2.6-0.5c-2.6-0.8-4.1-2.6-4.8-5.2c-0.5-2-0.7-4-0.7-6.1c0-2.9,0-5.9,0-8.8
		C43.3,174.4,43.3,167.2,43.4,163.6z"/>
	<path class="st0" d="M17.4,178.1c0-3.3,0-6.7,0-10c0-2.2-0.4-2.6-2.6-2.7c-1.2-0.1-2.4-0.1-3.6-0.3c-2-0.3-3.1-1.6-3.5-3.6
		c-0.2-1.5-0.2-3,0.1-4.5c0.4-1.6,1.4-2.6,3-2.9c1-0.2,2-0.4,3-0.4c6.7,0,13.5,0,20.2,0c1,0,2,0.1,2.9,0.3c2.1,0.4,3.3,1.6,3.6,3.7
		c0.2,1.5,0.2,2.9-0.1,4.4c-0.4,1.8-1.6,2.8-3.4,3.1c-1.1,0.1-2.2,0.2-3.3,0.2c-0.4,0-0.9,0-1.3,0.1c-0.9,0.1-1.4,0.6-1.5,1.5
		c0,0.5,0,0.9,0,1.4c0,6.1,0,12.2,0,18.3c0,1.6-0.1,3.2-0.3,4.7c-0.3,2.1-1.6,3.5-3.7,3.7c-1.7,0.2-3.5,0.2-5.2,0
		c-2.3-0.3-3.5-1.7-3.8-4.2c-0.2-1.8-0.3-3.7-0.3-5.5C17.3,182.9,17.4,180.5,17.4,178.1z"/>
</g>
<g>
	<path class="st0" d="M447.8,244.9c-6-0.2-12-0.4-17.9-1.9c-1.7-0.4-3.3-1-4.9-1.6c-4.4-1.6-5.8-3.7-5.2-8.4
		c0.5-4.3,1.6-8.5,3.4-12.5c0.3-0.7,0.7-1.5,1.2-2.1c1.8-2.7,3.9-3.4,6.9-2.3c1.3,0.5,2.6,1,3.9,1.6c3.6,1.6,7.4,2.1,11.3,1.7
		c2.9-0.3,5.1-1.9,5.7-4.2c0.6-2.4-0.3-5.2-2.9-6.6c-2.9-1.6-6-2.9-9.1-4.1c-5.6-2-10.2-5.1-13.5-10.2c-6.9-10.8-4.2-24.3,6.3-32.2
		c5.6-4.2,12-6.4,18.8-7.5c9.8-1.6,19.5-1.2,29.2,1c2.1,0.5,4.1,1.3,6.1,2.1c3.1,1.3,4.3,3.3,4,6.6c-0.3,4.9-1.6,9.5-3.7,14
		c-0.3,0.6-0.6,1.1-1,1.6c-1.7,2.4-3.5,3.1-6.3,2.1c-2.2-0.8-4.4-1.7-6.6-2.5c-4-1.3-8.2-1.4-12.3-0.4c-0.7,0.2-1.5,0.5-2.1,0.9
		c-2.5,1.4-2.9,3.9-1.2,6.2c1.5,1.9,3.6,2.9,5.7,3.7c2.9,1,5.9,1.7,8.7,2.9c9,3.6,14.9,9.9,16.3,19.6c1.6,11.6-3.7,21.5-14,27.1
		c-7,3.8-14.5,5.1-22.3,5.4C451,245,449.4,244.9,447.8,244.9z"/>
	<path class="st0" d="M117.6,200.5c0-9.2-0.1-18.4,0-27.6c0-3.3,0.2-6.6,0.8-9.9c1.2-6.5,4.3-9.3,10.9-9.4c11.6-0.1,23.1,0,34.7,0.2
		c4.6,0.1,9,1.4,13.2,3.4c7.2,3.5,11.8,9.1,13.9,16.8c1.6,6.2,1.6,12.4-0.1,18.5c-2.8,9.7-9.6,15.1-18.9,17.7
		c-5,1.4-10.2,1.8-15.4,1.8c-1.4,0-2.8,0-4.2,0.1c-3.4,0.2-5,1.6-5.3,5c-0.3,3.2-0.1,6.5-0.2,9.8c-0.2,3.2-0.3,6.5-0.8,9.7
		c-0.7,4.4-3.5,7-7.9,7.7c-4,0.6-8.1,0.7-12.1-0.1c-3.6-0.7-6.1-2.9-7-6.4c-0.8-3.1-1.3-6.4-1.3-9.6
		C117.5,219.1,117.7,209.8,117.6,200.5C117.6,200.5,117.6,200.5,117.6,200.5z M146.4,182.7c0.1,1.1,0.2,2.2,0.4,3.2
		c0.7,3.5,2.7,5.7,5.6,6.3c4.8,0.9,10.2-2.7,11.1-7.5c1-5.1-2.1-9.8-7.3-11c-4.8-1.1-8.4,1.1-9.4,5.9
		C146.5,180.7,146.5,181.7,146.4,182.7z"/>
	<path class="st0" d="M389,244.7c-4.7,0-9.5,0.1-14.2-0.1c-2.3-0.1-4.6-0.6-6.8-1.2c-5.7-1.6-8.8-5.7-10.3-11.3
		c-1.2-4.4-1.6-8.8-1.6-13.3c-0.1-13-0.1-26,0-39c0.1-4.3,0.6-8.6,1.5-12.8c1.7-7.9,6.5-12,14.5-12.8c4.2-0.4,8.5-0.5,12.7-0.6
		c5.9,0,11.8,0,17.6,0.3c4.2,0.2,8.1,1.6,11,4.8c3.3,3.5,4.3,10.1,2.3,14.5c-1.6,3.5-4.6,5.5-8.3,5.8c-4.7,0.4-9.5,0.1-14.2,0.2
		c-1.5,0-3,0-4.4,0.2c-2.3,0.4-3.4,1.9-3.5,4.2c-0.1,2.4,0.9,4.1,3.2,4.7c1.4,0.4,2.8,0.5,4.3,0.5c3.3,0,6.6-0.3,9.9-0.2
		c6.3,0,9,2.4,9.6,8.6c0.2,2.4,0,4.9-0.4,7.3c-0.6,3.3-2.8,5.2-6.3,5.3c-3.1,0.1-6.2-0.1-9.4-0.1c-2.3,0-4.6-0.1-6.9,0.1
		c-2.8,0.3-4.1,2.3-4,5.1c0.1,2.5,1.7,4,4.5,4.1c4,0.1,8-0.1,11.9,0c2.3,0,4.6,0.1,6.8,0.7c5.9,1.4,8.9,6.1,8.1,12.5
		c-1,7.7-5.3,11.8-13.5,12.3C398.5,244.9,393.7,244.6,389,244.7C389,244.7,389,244.7,389,244.7z"/>
	<path class="st0" d="M316.9,153.7c7.5,0,15-0.1,22.5,0c2.2,0,4.4,0.3,6.6,0.8c4.1,0.9,6.6,3.5,7.4,7.7c0.6,3.3,0.6,6.6-0.2,9.8
		c-0.9,4-3.4,6.3-7.6,6.9c-2.3,0.3-4.6,0.4-6.9,0.5c-1.1,0.1-2.2,0-3.3,0.1c-2.1,0.2-3.1,1.2-3.3,3.3c-0.1,1-0.1,2-0.1,3
		c0,13.7,0,27.4,0,41c0,3.2-0.3,6.4-0.7,9.6c-0.7,4.6-3.4,7.6-8.1,8.1c-3.8,0.4-7.7,0.5-11.5,0c-5-0.6-7.7-3.7-8.4-9.2
		c-0.5-4-0.7-8.1-0.7-12.2c-0.1-12.4,0-24.7,0-37.1c0-0.7,0-1.4-0.1-2.2c-0.2-3.1-1.3-4.2-4.5-4.4c-2.7-0.1-5.3-0.2-8-0.5
		c-5.8-0.8-8.7-3.9-9-9.7c-0.1-2.7,0-5.5,0.5-8.2c0.6-3.5,3-5.8,6.5-6.5c2.2-0.5,4.6-0.8,6.8-0.8
		C302.3,153.6,309.6,153.6,316.9,153.7C316.9,153.6,316.9,153.7,316.9,153.7z"/>
	<path class="st0" d="M284.4,191.2c-2.4-15-10.3-26.3-24.1-33c-9.9-4.8-20.4-5.7-31.1-3.6c-9.8,1.9-18.2,6.4-24.8,14
		c-7.7,8.8-10.9,19.3-11,32.3c0.1,1.4,0.3,4.3,0.8,7.1c2.4,13.4,9.4,23.9,21.2,30.8c10.2,5.9,21.3,7.5,32.9,5.4
		c13.5-2.4,23.9-9.4,30.8-21.4C284.8,212.9,286.2,202.3,284.4,191.2z M259.1,200c-2.8,8.9-14.2,13.9-23.9,17.3
		c-0.8,0.3-1.7,0-2.3-0.7c0,0,0,0,0,0c-6.1-8.3-12.7-18.9-9.9-27.9c1.6-5.1,7.5-9.2,13.8-7.2c3.1,1,5,3.6,6.3,6.1
		c2.5-1.3,5.6-2.4,8.6-1.4c3,0.9,5.4,3,6.7,5.9C259.7,194.7,259.9,197.5,259.1,200z"/>
</g>
<g>
	<path class="st0" d="M447.6,122.6c0.5-0.5,1-1,1.4-1.5c0.2-0.2,0.3-0.4,0.5-0.5c0,0,0,0,0,0c9.3-10.5,12.1-25.8,6.1-39.5l-5.5-12.3
		l-0.1,0l-4.5-10.3l0,0l-2.9-6.5l0,0l-10.3-23.3l0,0l-0.2-0.5c-0.2-0.4-0.4-0.7-0.6-1.1c-1.1-1.5-2.7-2.2-4.4-2.2c-1,0-2.1,0.4-3,1
		c-2,1.6-2.7,4.5-1.5,6.9l8.4,18.9l2.1,4.8c0.1,0.3,0.2,0.7,0.2,1c0,0.7-0.2,1.4-0.7,1.9c-0.2,0.2-0.5,0.4-0.8,0.6
		c-0.3,0.1-0.7,0.2-1,0.2c-1,0-2-0.6-2.5-1.6l0-0.1l-19.2-43.2c-0.2-0.4-0.4-0.7-0.6-1.1c-1.1-1.5-2.7-2.2-4.4-2.2c-1,0-2.1,0.4-3,1
		c-2,1.6-2.7,4.5-1.5,6.9l19.1,43c0.6,1.3,0,2.9-1.3,3.5c-0.3,0.1-0.7,0.2-1,0.2c-1,0-2-0.6-2.5-1.6l-23.5-52.9
		c-0.2-0.4-0.4-0.7-0.6-1.1c-1.1-1.5-2.7-2.2-4.4-2.2c-1,0-2.1,0.4-3,1c-2,1.6-2.7,4.5-1.5,6.9l23.3,52.6c0.6,1.3,0,2.9-1.3,3.5
		c-0.3,0.1-0.7,0.2-1,0.2c-1,0-2-0.6-2.5-1.6l-17.1-38.5c-0.2-0.4-0.4-0.7-0.6-1.1c-1.1-1.5-2.7-2.2-4.4-2.2c-1,0-2.1,0.4-3,1
		c-2,1.6-2.7,4.5-1.5,6.9l27.6,62.2c0.3,0.7,0.3,1.5,0,2.2c-0.4,0.9-1.4,1.5-2.3,1.5c-0.4,0-0.8-0.1-1.2-0.2L381,95.9
		c-1.1-0.5-2.3-0.7-3.5-0.7c-2.8,0.1-5.4,1.6-6.8,4.2l-1.1,2.1c-0.5,1.1-0.2,2.4,0.8,3.1l29.4,20.2c7,5.4,15.4,8.1,23.9,7.8
		c4.5-0.1,8.9-1,13.2-2.8c2.1-1,4.1-2.1,5.9-3.4c0,0,0,0,0,0c0.2-0.2,0.5-0.4,0.8-0.6c0.3-0.2,0.6-0.4,0.9-0.7
		c0.4-0.3,0.8-0.6,1.2-1c0.4-0.4,0.8-0.7,1.2-1.1C447.3,123,447.5,122.8,447.6,122.6z"/>
	<path class="st0" d="M491.2,85.6l-1.2-1.7c-3.5-5-10.4-6.4-15.6-3.1l-8.1,5.2l15.1-51.5c0.6-1.7,0.6-3.4,0.2-5.1
		c-1.2-5-6.2-8-11.1-6.8l1.6-5.3c1.3-4.3-0.5-8.9-4.4-11.1c-0.6-0.3-1.1-0.5-1.7-0.7c-4.9-1.4-10,1.4-11.4,6.3l-0.4,1.2
		c-0.7-0.7-1.5-1.4-2.3-1.8c-0.6-0.3-1.1-0.5-1.7-0.7c-4.9-1.4-10,1.4-11.4,6.3l-3,10.1c0,0-0.3,1.3-0.8,2.8l2.9,6.5l5.3-18.1
		c0.1-0.3,0.2-0.7,0.4-1c1.2-2.2,4-3.1,6.3-1.9c2,1.2,2.9,3.6,2.1,5.8l-8.3,28.3l2.9,6.5L458.9,13c0.1-0.3,0.2-0.7,0.4-1
		c1.2-2.2,4-3.1,6.3-1.9c2,1.2,2.9,3.6,2.1,5.8l-14.2,48.5c-0.4,1.2,0.3,2.5,1.6,2.9c1.2,0.4,2.5-0.3,2.9-1.6l10.4-35.5
		c0.1-0.3,0.2-0.7,0.4-1c1.2-2.2,4-3.1,6.3-1.9c2,1.2,2.9,3.6,2.1,5.8l-16.8,57.4c-0.2,0.6-0.1,1.3,0.3,1.9c0.7,1.1,2.1,1.4,3.2,0.7
		l13.3-8.5c3.1-2,7.2-1.2,9.3,1.9l1.2,1.7c0.6,0.9,0.5,2.1-0.3,2.8l-23.2,21c-3.2,3.3-7.1,5.8-11.2,7.4c-2.6,3.2-4.6,5.2-6.2,6.5
		c7.7-1.3,14.9-4.9,20.6-10.6l23.2-20.9C492.8,92.3,493.2,88.4,491.2,85.6z"/>
</g>
</svg>
