<svg id="logo" xmlns="http://www.w3.org/2000/svg" viewBox="0 0 488.66 205.16">
  <path d="M231.82,179.81h3v10.45h6.48v2.42h-9.43Z" transform="translate(0.06 0.06)" />
  <path d="M241.83,179.81h2.47l-.2,5.22H242Z" transform="translate(0.06 0.06)" />
  <path d="M253.55,183.74a4.22,4.22,0,0,1,1.23,3.3v5.64h-2.69v-1.23a3.2,3.2,0,0,1-3,1.38,4.58,4.58,0,0,1-2-.39,2.86,2.86,0,0,1-1.27-1.06,2.75,2.75,0,0,1-.45-1.55,2.59,2.59,0,0,1,1-2.17,5.4,5.4,0,0,1,3.21-.79h2.28a1.85,1.85,0,0,0-.57-1.44,2.5,2.5,0,0,0-1.71-.5,5.07,5.07,0,0,0-1.55.24,4.23,4.23,0,0,0-1.3.67l-1-2a6.3,6.3,0,0,1,1.94-.88,8.72,8.72,0,0,1,2.33-.31A5.17,5.17,0,0,1,253.55,183.74Zm-2.45,6.81a1.86,1.86,0,0,0,.81-1v-1h-2c-1.17,0-1.76.38-1.76,1.15a1,1,0,0,0,.43.88,2,2,0,0,0,1.19.32A2.48,2.48,0,0,0,251.1,190.55Z" transform="translate(0.06 0.06)" />
  <path d="M272.52,183.74a4.47,4.47,0,0,1,1.1,3.28v5.66h-2.87v-5.22a2.62,2.62,0,0,0-.49-1.75,1.71,1.71,0,0,0-1.39-.58,2,2,0,0,0-1.59.65,2.82,2.82,0,0,0-.59,1.94v5h-2.87V187.5c0-1.55-.63-2.33-1.87-2.33a2,2,0,0,0-1.59.65,2.82,2.82,0,0,0-.59,1.94v5h-2.86v-9.89h2.74V184a3.57,3.57,0,0,1,1.35-.95,4.57,4.57,0,0,1,1.75-.33,4.28,4.28,0,0,1,1.9.41,3.5,3.5,0,0,1,1.36,1.2,4,4,0,0,1,1.53-1.19,4.92,4.92,0,0,1,2-.42A4,4,0,0,1,272.52,183.74Z" transform="translate(0.06 0.06)" />
  <path d="M275.88,181a1.54,1.54,0,0,1-.09-2.18l.09-.09a1.8,1.8,0,0,1,1.29-.46,1.85,1.85,0,0,1,1.28.44,1.41,1.41,0,0,1,.5,1.1,1.58,1.58,0,0,1-.5,1.19A2,2,0,0,1,275.88,181Zm-.15,1.84h2.87v9.89h-2.87Z" transform="translate(0.06 0.06)" />
  <path d="M287.18,192.2a2.87,2.87,0,0,1-1,.47,5.07,5.07,0,0,1-1.29.16,3.88,3.88,0,0,1-2.73-.9,3.44,3.44,0,0,1-1-2.65v-4.06h-1.52V183h1.52v-2.4H284V183h2.46v2.21H284v4a1.4,1.4,0,0,0,.32,1,1.18,1.18,0,0,0,.91.34,1.85,1.85,0,0,0,1.16-.37Z" transform="translate(0.06 0.06)" />
  <path d="M288.49,181a1.54,1.54,0,0,1-.09-2.18l.09-.09a1.82,1.82,0,0,1,1.28-.46,1.85,1.85,0,0,1,1.29.44,1.41,1.41,0,0,1,.5,1.1,1.58,1.58,0,0,1-.5,1.19A2,2,0,0,1,288.49,181Zm-.15,1.84h2.87v9.89H288.3Z" transform="translate(0.06 0.06)" />
  <path d="M303.39,188.55h-7.48a2.31,2.31,0,0,0,1,1.45,3.11,3.11,0,0,0,1.87.53,3.76,3.76,0,0,0,1.37-.23,3.27,3.27,0,0,0,1.11-.72l1.53,1.65a5.1,5.1,0,0,1-4.08,1.6,6.47,6.47,0,0,1-3-.65,4.85,4.85,0,0,1-2-1.81,5,5,0,0,1-.69-2.63,5.13,5.13,0,0,1,.68-2.62,5,5,0,0,1,1.9-1.82,5.87,5.87,0,0,1,5.32,0,4.68,4.68,0,0,1,1.85,1.79,5.38,5.38,0,0,1,.67,2.72S303.43,188.06,303.39,188.55Zm-6.7-3.18a2.25,2.25,0,0,0-.81,1.51h4.87a2.36,2.36,0,0,0-2.43-2.06,2.47,2.47,0,0,0-1.63.54Zm2.36-6.49h3.09l-3.32,2.67h-2.25Z" transform="translate(0.06 0.06)" />
  <path d="M317.9,184.05a4.22,4.22,0,0,1,1.23,3.3V193h-2.68v-1.23a3.2,3.2,0,0,1-3,1.38,4.58,4.58,0,0,1-2-.39,2.86,2.86,0,0,1-1.27-1.06,2.74,2.74,0,0,1-.44-1.55,2.56,2.56,0,0,1,1-2.16,5.33,5.33,0,0,1,3.21-.79h2.35a1.85,1.85,0,0,0-.57-1.45,2.56,2.56,0,0,0-1.71-.5,5.07,5.07,0,0,0-1.55.24,4.25,4.25,0,0,0-1.3.68l-1-2a6.3,6.3,0,0,1,1.94-.88,8.72,8.72,0,0,1,2.33-.31A5.13,5.13,0,0,1,317.9,184.05Zm-2.45,6.82a1.86,1.86,0,0,0,.81-1v-1h-2c-1.18,0-1.77.38-1.77,1.16a1,1,0,0,0,.43.87,2,2,0,0,0,1.19.32A2.51,2.51,0,0,0,315.45,190.87Z" transform="translate(0.06 0.06)" />
  <path d="M331.22,183.1V193H328.5v-1.17a3.85,3.85,0,0,1-1.36,1,4.69,4.69,0,0,1-4.79-.78,4.48,4.48,0,0,1-1.14-3.33v-5.59h2.86v5.17c0,1.59.67,2.39,2,2.39a2.14,2.14,0,0,0,1.65-.67,2.84,2.84,0,0,0,.63-2v-4.89Z" transform="translate(0.06 0.06)" />
  <path d="M340.11,192.49a5,5,0,0,1,0-8.88A6.2,6.2,0,0,1,343,183a5.53,5.53,0,0,1,2.73.65,3.82,3.82,0,0,1,1.7,1.87l-2.22,1.19a2.58,2.58,0,0,0-4.08-.62,3.06,3.06,0,0,0,0,4,2.52,2.52,0,0,0,1.85.74,2.43,2.43,0,0,0,2.23-1.36l2.22,1.21a3.94,3.94,0,0,1-1.7,1.84,5.54,5.54,0,0,1-2.73.66A6.2,6.2,0,0,1,340.11,192.49Z" transform="translate(0.06 0.06)" />
  <path d="M366,188.86h-7.5a2.27,2.27,0,0,0,.95,1.46,3.27,3.27,0,0,0,1.9.52,3.56,3.56,0,0,0,1.33-.24,3.79,3.79,0,0,0,1.13-.71l1.54,1.65a4.29,4.29,0,0,1-1.74,1.2,6.81,6.81,0,0,1-2.36.4,6.31,6.31,0,0,1-2.43-.45,4.53,4.53,0,0,1-1.77-1.26,4.85,4.85,0,0,1-1.71,1.26,5.54,5.54,0,0,1-2.27.45,5.94,5.94,0,0,1-2.77-.65,4.81,4.81,0,0,1-1.93-1.81,5.31,5.31,0,0,1,0-5.26,4.81,4.81,0,0,1,1.93-1.81,5.94,5.94,0,0,1,2.77-.65,5.7,5.7,0,0,1,2.27.44,4.27,4.27,0,0,1,1.69,1.25,4.27,4.27,0,0,1,1.66-1.25,5.42,5.42,0,0,1,2.21-.44,5.56,5.56,0,0,1,2.62.62,4.62,4.62,0,0,1,1.85,1.79,5.1,5.1,0,0,1,.68,2.7A7,7,0,0,1,366,188.86ZM355,190a2.79,2.79,0,0,0,.71-2,2.83,2.83,0,0,0-.71-2,2.41,2.41,0,0,0-1.81-.74,2.45,2.45,0,0,0-1.82.74,2.79,2.79,0,0,0-.71,2,2.72,2.72,0,0,0,.71,2,2.57,2.57,0,0,0,3.63,0Zm4.35-4.36a2.34,2.34,0,0,0-.81,1.51h4.85a2.33,2.33,0,0,0-2.41-2.06,2.43,2.43,0,0,0-1.64.55Z" transform="translate(0.06 0.06)" />
  <path d="M377.51,183.1V193h-2.72v-1.17a3.85,3.85,0,0,1-1.36,1,4.71,4.71,0,0,1-4.8-.78,4.48,4.48,0,0,1-1.14-3.33v-5.59h2.87v5.17c0,1.59.67,2.39,2,2.39A2.13,2.13,0,0,0,374,190a2.84,2.84,0,0,0,.63-2v-4.89Z" transform="translate(0.06 0.06)" />
  <path d="M383.84,183.33a5.07,5.07,0,0,1,2-.37v2.64h-.64a2.63,2.63,0,0,0-1.93.69,2.74,2.74,0,0,0-.7,2.06V193H379.7v-9.89h2.74v1.31A3.17,3.17,0,0,1,383.84,183.33Z" transform="translate(0.06 0.06)" />
  <path d="M402,179.36V193H399.3v-1.14a3.79,3.79,0,0,1-3.09,1.29,5.14,5.14,0,0,1-2.52-.62,4.57,4.57,0,0,1-1.78-1.79,6,6,0,0,1,0-5.36,4.45,4.45,0,0,1,1.78-1.79,5.14,5.14,0,0,1,2.52-.62,3.76,3.76,0,0,1,3,1.19v-4.79ZM398.46,190a3.14,3.14,0,0,0,0-4,2.39,2.39,0,0,0-1.8-.74,2.45,2.45,0,0,0-1.82.74,3.14,3.14,0,0,0,0,4,2.56,2.56,0,0,0,3.62,0Z" transform="translate(0.06 0.06)" />
  <path d="M413.81,188.86H406.3a2.31,2.31,0,0,0,1,1.45,3.12,3.12,0,0,0,1.88.53,3.76,3.76,0,0,0,1.37-.23,3.27,3.27,0,0,0,1.11-.72l1.53,1.65a5.13,5.13,0,0,1-4.08,1.6,6.47,6.47,0,0,1-3-.65,4.85,4.85,0,0,1-2-1.81,5.3,5.3,0,0,1,0-5.25,4.86,4.86,0,0,1,1.89-1.82,5.91,5.91,0,0,1,5.33,0,4.59,4.59,0,0,1,1.84,1.79,5.39,5.39,0,0,1,.68,2.72A7.27,7.27,0,0,1,413.81,188.86Zm-6.71-3.18a2.34,2.34,0,0,0-.81,1.51h4.87a2.35,2.35,0,0,0-2.42-2.06,2.43,2.43,0,0,0-1.64.55Z" transform="translate(0.06 0.06)" />
  <path d="M420.06,179.36h2.87V193h-2.87Z" transform="translate(0.06 0.06)" />
  <path d="M424.71,180.13h2.44l-.2,5.22h-2Z" transform="translate(0.06 0.06)" />
  <path d="M436.42,184.05a4.22,4.22,0,0,1,1.23,3.3V193H435v-1.23a3.2,3.2,0,0,1-3,1.38,4.58,4.58,0,0,1-2-.39,2.88,2.88,0,0,1-1.28-1.06,2.82,2.82,0,0,1-.44-1.55,2.53,2.53,0,0,1,1-2.16,5.23,5.23,0,0,1,3.2-.79h2.28a1.85,1.85,0,0,0-.57-1.45,2.56,2.56,0,0,0-1.71-.5,5.07,5.07,0,0,0-1.55.24,4.09,4.09,0,0,0-1.29.68l-1-2a6.3,6.3,0,0,1,1.94-.88,8.72,8.72,0,0,1,2.33-.31A5.13,5.13,0,0,1,436.42,184.05ZM434,190.87a1.86,1.86,0,0,0,.81-1v-1h-2c-1.18,0-1.77.38-1.77,1.16a1,1,0,0,0,.43.87,2,2,0,0,0,1.19.32,2.51,2.51,0,0,0,1.34-.35Z" transform="translate(0.06 0.06)" />
  <path d="M455.4,184.05a4.46,4.46,0,0,1,1.09,3.28V193h-2.87v-5.22a2.67,2.67,0,0,0-.48-1.75,1.71,1.71,0,0,0-1.39-.58,2.06,2.06,0,0,0-1.6.65,2.82,2.82,0,0,0-.59,1.94v5h-2.87v-5.22c0-1.55-.62-2.33-1.87-2.33a2,2,0,0,0-1.58.65,2.82,2.82,0,0,0-.59,1.94v5h-2.87v-9.89h2.74v1.14a3.68,3.68,0,0,1,1.35-.95,4.62,4.62,0,0,1,1.76-.33,4.27,4.27,0,0,1,1.89.41,3.32,3.32,0,0,1,1.36,1.21,4.11,4.11,0,0,1,1.54-1.2,4.92,4.92,0,0,1,2-.42A4,4,0,0,1,455.4,184.05Z" transform="translate(0.06 0.06)" />
  <path d="M460.62,192.49a4.9,4.9,0,0,1-1.94-1.81,5.31,5.31,0,0,1,0-5.26,4.9,4.9,0,0,1,1.94-1.81,6.33,6.33,0,0,1,5.6,0,5,5,0,0,1,1.93,1.81,5.36,5.36,0,0,1,0,5.26,5,5,0,0,1-1.93,1.81A6.33,6.33,0,0,1,460.62,192.49Zm4.61-2.45a2.79,2.79,0,0,0,.71-2,2.83,2.83,0,0,0-.71-2,2.41,2.41,0,0,0-1.81-.74,2.45,2.45,0,0,0-1.82.74,2.79,2.79,0,0,0-.71,2,2.72,2.72,0,0,0,.71,2,2.57,2.57,0,0,0,3.63,0Z" transform="translate(0.06 0.06)" />
  <path d="M480.3,183.1V193h-2.72v-1.17a3.85,3.85,0,0,1-1.36,1,4.71,4.71,0,0,1-4.8-.78,4.48,4.48,0,0,1-1.14-3.33v-5.59h2.87v5.17c0,1.59.67,2.39,2,2.39a2.13,2.13,0,0,0,1.65-.67,2.84,2.84,0,0,0,.63-2v-4.89Z" transform="translate(0.06 0.06)" />
  <path d="M486.59,183.33a5.07,5.07,0,0,1,2-.37v2.64H488a2.63,2.63,0,0,0-1.93.69,2.74,2.74,0,0,0-.7,2.06V193h-2.87v-9.89h2.74v1.31A3.17,3.17,0,0,1,486.59,183.33Z" transform="translate(0.06 0.06)" />
  <path d="M203.19,162.46,177,185.89a42.46,42.46,0,0,1-23.19,11.85,52.75,52.75,0,0,0,7-7.33,37,37,0,0,0,12.63-8.32l26.19-23.54a2.42,2.42,0,0,0,.36-3.15l-1.34-1.9a7.77,7.77,0,0,0-10.5-2.09l-14.94,9.49a2.6,2.6,0,0,1-3.58-.78,2.57,2.57,0,0,1-.3-2.14l19-64.43A5.5,5.5,0,0,0,185.94,87a5.19,5.19,0,0,0-7,2.09,5,5,0,0,0-.46,1.12l-11.71,39.86a2.61,2.61,0,0,1-5-1.47h0l16-54.42a5.5,5.5,0,0,0-2.47-6.54,5.19,5.19,0,0,0-7,2.09,5.7,5.7,0,0,0-.45,1.12L153.78,118.8l-3.26-7.34,9.31-31.69a5.49,5.49,0,0,0-2.36-6.51,5.19,5.19,0,0,0-7,2.08,4.76,4.76,0,0,0-.45,1.13l-6,20.31-3.24-7.23c.5-1.76.88-3.16.88-3.16L145,75.05a10.38,10.38,0,0,1,12.89-7,9.83,9.83,0,0,1,2,.8,9.46,9.46,0,0,1,2.62,2l.41-1.37a10.43,10.43,0,0,1,14.88-6.19,10.61,10.61,0,0,1,5,12.47l-1.75,6a10.39,10.39,0,0,1,12.3,13.39l-17,57.76,9.11-5.79a13,13,0,0,1,17.54,3.5l1.33,1.91A7.57,7.57,0,0,1,203.19,162.46Zm-52.33,35.09,1-.76c.43-.34.88-.7,1.34-1.1s.93-.79,1.37-1.21c.21-.18.4-.37.6-.56.56-.55,1.11-1.1,1.63-1.68.18-.19.37-.39.53-.59h0a41.37,41.37,0,0,0,6.84-44.28L158,133.55H158L152.82,122h0l-3.26-7.33h0L138,88.55h0L137.7,88a5.09,5.09,0,0,0-.68-1.2,5.9,5.9,0,0,0-8.23-1.3l0,0a6.26,6.26,0,0,0-1.68,7.7l9.44,21.17,2.41,5.41a2.88,2.88,0,0,1,.25,1.16,2.93,2.93,0,0,1-.81,2.08,3.11,3.11,0,0,1-.94.67,3,3,0,0,1-3.9-1.5v-.08L111.9,73.6a5.92,5.92,0,0,0-7.75-3.16,6.06,6.06,0,0,0-1.19.67,6.27,6.27,0,0,0-1.68,7.71L122.76,127a3,3,0,0,1-1.5,3.9,2.92,2.92,0,0,1-1.13.26,3,3,0,0,1-2.77-1.75L90.89,70a6.18,6.18,0,0,0-.68-1.2A5.91,5.91,0,0,0,82,67.55a6.27,6.27,0,0,0-1.65,7.69l26.29,59a2.94,2.94,0,0,1-1.47,3.89h0a2.92,2.92,0,0,1-1.13.26,3,3,0,0,1-2.77-1.75L81.92,93.44a6.26,6.26,0,0,0-.68-1.21,6,6,0,0,0-4.94-2.42A5.89,5.89,0,0,0,73,91a6.27,6.27,0,0,0-1.67,7.7l31.1,69.77a3,3,0,0,1,0,2.43,2.94,2.94,0,0,1-2.62,1.72,3.05,3.05,0,0,1-1.3-.26l-18.29-8.45a8.86,8.86,0,0,0-11.53,3.95l-1.22,2.35a2.74,2.74,0,0,0,.86,3.49l33.09,22.65A42.49,42.49,0,0,0,143.23,202a40.92,40.92,0,0,0,6.7-3.79h0Zm-45-161a1.84,1.84,0,0,0,1.58,1.34,2,2,0,0,0,.73,0,1.87,1.87,0,0,0,1.27-2.29L100.91,5.49a1.87,1.87,0,1,0-3.67.7,1.11,1.11,0,0,0,.08.3ZM46.3,83.38,19,68.16a1.87,1.87,0,1,0-1.92,3.21l.09,0L44.5,86.64A1.85,1.85,0,0,0,47,85.92a1.86,1.86,0,0,0-.72-2.53ZM34.76,123.61a1.87,1.87,0,0,0-1.64-2.06l-31-3.62a1.87,1.87,0,0,0-.63,3.69l.2,0,31,3.62a1.87,1.87,0,0,0,2.07-1.65Zm.76,38.24L5.46,170.38a1.87,1.87,0,0,0,.3,3.65,1.75,1.75,0,0,0,.72-.06l30.06-8.53a1.87,1.87,0,1,0-.7-3.67,1.11,1.11,0,0,0-.3.08ZM185.37,47.05a1.74,1.74,0,0,0,.7.22,1.84,1.84,0,0,0,1.84-.94L203.14,19a1.87,1.87,0,1,0-3.27-1.82L184.65,44.55A1.87,1.87,0,0,0,185.37,47.05ZM147.68,34.76a1.87,1.87,0,0,0,2.07-1.63h0l3.62-31a1.87,1.87,0,0,0-3.69-.63,1.36,1.36,0,0,0,0,.2l-3.62,31a1.87,1.87,0,0,0,1.63,2.07ZM74.82,52.09c2.94-9,5.68-20.21.68-27.23a10.31,10.31,0,0,0-6.2-3.94,10,10,0,0,0-8,1.63c-2.43,1.73-3.38,4.58-3.8,7.13C55,29.25,52,29.22,49.5,31h0a10.33,10.33,0,0,0-2.45,14.2c5,7,16.5,8.08,26,8.23h0A1.86,1.86,0,0,0,74.82,52.09ZM51.67,34c1.4-1,3.67-1.08,7-.24a1.9,1.9,0,0,0,1.55-.29A1.84,1.84,0,0,0,61,32.1c.28-3.37,1.1-5.5,2.5-6.5a6.23,6.23,0,0,1,5.09-1,6.54,6.54,0,0,1,3.91,2.46c3.85,5.39,1.58,15.18-.76,22.58C64,49.44,54,48.4,50.13,43a6.63,6.63,0,0,1,1.58-9Z" transform="translate(0.06 0.06)" />
  <path d="M271.53,52.32c-2.07,6.83-2.79,7.24-5.58,6a19.45,19.45,0,0,0-8.18-1.86c-5.79,0-9.73,5.38-9.73,10.45,0,5.38,3.73,10.76,9.73,10.76a25.24,25.24,0,0,0,8.53-1.86c2.27-.73,2.79,0,4.76,6.52,2.17,7.34,2,8.69-3.11,10.34a29.34,29.34,0,0,1-10.14,1.56c-15.93,0-27.42-11.7-27.42-27,0-16.14,11.59-27.32,27.42-27.32a31.39,31.39,0,0,1,11.49,1.75C273,43,273.81,44.35,271.53,52.32Z" transform="translate(0.06 0.06)" />
  <path d="M310.54,85.84c-.83-2.27-2-2.38-8-2.38h-1.66c-5.48,0-7,.11-7.86,1.76-2,6.31-3.62,9-10,9h-1.45c-7.24,0-9.21-3.52-5.58-12.42,0-.1,12.31-30.63,12.31-30.73,4.35-10.77,4.55-11.18,12.42-11.18h2c7.87,0,8.18.41,12.52,11.18,0,.1,12.21,30.63,12.21,30.73,3.63,8.9,1.76,12.42-5.48,12.42h-1.55c-5.59,0-7.56-2.07-9.32-6.83v-.31ZM299.67,62.77,297.5,70c-.31,1.86.41,2.38,3.83,2.38h.83c4.24,0,4.24-.83,3.2-4.24-.1-.1-.1-.31-.1-.62-.52-1.66-1-3.21-1.45-4.76C302.57,58.42,300.91,58.42,299.67,62.77Z" transform="translate(0.06 0.06)" />
  <path d="M350.88,94.23c-4.34,0-10.76-.31-14.38-1.76-4-1.35-5.07-2.59-3-9.94,2-6.72,4.35-6.21,6.93-5.07a14.36,14.36,0,0,0,6.83,1.66c3.83,0,4.66-2.18,4.66-3.21,0-2.48-1.45-3.93-7.24-5.79a14.28,14.28,0,0,1-10.25-13.77c0-9.83,9.83-16.45,23.7-16.45,4.34,0,9.31.41,12.93,1.76,3.83,1.35,5.17,2.28,3,9.93-2.07,6.83-4.34,5.8-6.93,4.66a15.83,15.83,0,0,0-6.83-1.55c-3.62,0-5.59,1.34-5.59,2.79,0,1.86,1.45,3.52,7.25,5.07,6.62,1.66,11.89,6.94,11.89,14.49C373.85,86.88,365.68,94.23,350.88,94.23Z" transform="translate(0.06 0.06)" />
  <path d="M401.17,73.22c-2.59-.1-4,.83-4,2.9v.1c0,2.07,1.45,2.79,4,2.69l6.1-.1c6-.11,8.59,2.69,8.59,6.62,0,6.83-4.45,8.8-11.07,8.8H394.23c-11.48,0-14.59-3.63-14.59-17.7V57.6c0-14.08,3.11-17.7,14.59-17.7h10.56c6.62,0,11.07,2.59,11.07,8.8,0,3.93-2.59,6.83-8.59,6.62-.1,0-6-.1-6.1-.21-2.59-.1-4,.73-4,2.8V58c0,2.07,1.45,2.9,4,2.9.1,0,3.82-.11,5.58-.21,3.94-.1,6.52,1,6.52,6.42s-2,6.51-6.52,6.31C405.41,73.32,401.3,73.22,401.17,73.22Z" transform="translate(0.06 0.06)" />
  <path d="M230.35,112.24c0-2.65,1.37-2.8,3.76-2.8h8.35c2.46,0,3.79.3,3.79,2.8,0,2.66-1.25,2.81-3.53,2.81-.91,0-1.21.15-1.21,1.14v9.41c0,2.66-.46,3.76-3,3.76H238c-2.62,0-2.93-1.37-2.93-4.56v-8.61c0-.83-.22-1.14-1.25-1.14C231.56,115.05,230.35,114.71,230.35,112.24Z" transform="translate(0.06 0.06)" />
  <path d="M266.55,119.45a10,10,0,1,1-10-10,9.71,9.71,0,0,1,10,9.41A5.81,5.81,0,0,1,266.55,119.45Zm-6.45-.11A3.57,3.57,0,0,0,253,119a2.41,2.41,0,0,0,0,.38,3.58,3.58,0,1,0,7.13.65A3.53,3.53,0,0,0,260.1,119.34Z" transform="translate(0.06 0.06)" />
  <path d="M280.86,129.36c-2.2,0-2.66-1.94-4.41-5.09-.91-1.59-1.59-1.33-1.59.08v1.25c0,2.66-.49,3.76-3,3.76h-.53c-2.66,0-3-1.37-3-4.56V113.55c0-3.07.57-4.09,3-4.09h.61c2,0,2.58,2.16,4.36,5.73.91,1.89,1.86,2.08,1.86-.38v-1.26c0-3.07.57-4.09,3-4.09h.53c2.54,0,3,1.44,3,4.89v11.27c0,2.66-.45,3.76-3,3.76Z" transform="translate(0.06 0.06)" />
  <path d="M319.44,147v4.57c0,7.24-1.24,10.25-8,10.25H310c-7.25,0-8.07-3.73-8.07-12.42V118.63c.1-8.39,1.55-11.18,8.07-11.18h16.35c14.07,0,20.07,7.87,20.07,17.49,0,11.38-7.35,17.38-20.8,17.38H324C320,142.32,319.44,143.67,319.44,147Zm4-27.73c-2.38,0-4.35,1.65-4.35,5.58,0,3.73,1.76,5.7,4.35,5.7a5.9,5.9,0,0,0,5.9-5.7c0-3.72-3.27-5.58-5.86-5.58Z" transform="translate(0.06 0.06)" />
  <path d="M404.7,134.77c0,15.31-11.49,27-27.32,27s-27.32-11.7-27.32-27c0-16.14,11.59-27.32,27.32-27.32S404.7,118.63,404.7,134.77Zm-17.59-.31c0-5.07-4.14-10.45-9.73-10.45s-9.73,5.38-9.73,10.45c0,5.38,3.73,10.76,9.73,10.76S387.11,139.84,387.11,134.46Z" transform="translate(0.06 0.06)" />
  <path d="M405.42,115.11c0-7.25,3.72-7.66,10.24-7.66h22.76c6.73,0,10.35.83,10.35,7.66,0,7.24-3.41,7.66-9.62,7.66-2.49,0-3.31.41-3.31,3.1v25.68c0,7.24-1.24,10.25-8.07,10.25H426.3c-7.14,0-8-3.73-8-12.42V125.87c0-2.28-.62-3.1-3.41-3.1C408.73,122.77,405.42,121.83,405.42,115.11Z" transform="translate(0.06 0.06)" />
  <path d="M473.91,140.77c-2.59-.1-4,.83-4,2.9v.1c0,2.07,1.45,2.79,4,2.69l6.1-.1c6-.11,8.59,2.69,8.59,6.62,0,6.83-4.45,8.8-11.07,8.8H467c-11.49,0-14.59-3.63-14.59-17.7V125.14c0-14.07,3.1-17.69,14.59-17.69h10.55c6.62,0,11.07,2.59,11.07,8.8,0,3.93-2.58,6.83-8.59,6.62-.1,0-6-.1-6.1-.21-2.59-.1-4,.73-4,2.8v.1c0,2.07,1.45,2.9,4,2.9.1,0,3.83-.11,5.59-.21,3.93-.1,6.52,1,6.52,6.42s-2,6.51-6.52,6.31C478.15,140.87,474,140.77,473.91,140.77Z" transform="translate(0.06 0.06)" />
</svg>
