<svg id="logo2" xmlns="http://www.w3.org/2000/svg" viewBox="0 0 145.98 145.29"><defs><style>.cls-1{fill:#ce0058;}</style></defs><path class="cls-1" d="M167.6,142.45,149,159.05a30.21,30.21,0,0,1-16.45,8.39,38.1,38.1,0,0,0,5-5.19,26.33,26.33,0,0,0,9-5.9l18.58-16.67a1.71,1.71,0,0,0,.26-2.23l-1-1.34a5.51,5.51,0,0,0-7.45-1.48l-10.6,6.72a1.84,1.84,0,0,1-2.54-.56,1.87,1.87,0,0,1-.21-1.51L157,93.65A3.89,3.89,0,0,0,155.36,89a3.69,3.69,0,0,0-5,1.48,3.36,3.36,0,0,0-.32.79l-8.31,28.23a1.85,1.85,0,0,1-3.55-1h0L149.56,80a3.89,3.89,0,0,0-1.75-4.63,3.69,3.69,0,0,0-5,1.48,4.51,4.51,0,0,0-.32.79l-10,33.93-2.31-5.2,6.6-22.44a3.88,3.88,0,0,0-1.67-4.61,3.7,3.7,0,0,0-5,1.47,3.43,3.43,0,0,0-.32.8l-4.25,14.39-2.3-5.12c.35-1.25.62-2.24.62-2.24l2.36-8a7.38,7.38,0,0,1,9.15-5,7.27,7.27,0,0,1,1.42.57,6.77,6.77,0,0,1,1.86,1.41l.29-1a7.37,7.37,0,0,1,9.14-4.95,7.27,7.27,0,0,1,1.42.57,7.52,7.52,0,0,1,3.54,8.83l-1.24,4.25a7.37,7.37,0,0,1,8.9,5.42,7.29,7.29,0,0,1-.17,4.06l-12.06,40.91,6.46-4.1a9.23,9.23,0,0,1,12.45,2.48l.94,1.35A5.35,5.35,0,0,1,167.6,142.45ZM130.47,167.3l.71-.54c.3-.24.62-.49.95-.77s.66-.56,1-.86l.43-.4c.39-.39.78-.78,1.15-1.19a3.79,3.79,0,0,0,.38-.42h0a29.23,29.23,0,0,0,4.85-31.35L135.56,122h-.06l-3.64-8.17h0l-2.31-5.2h0l-8.23-18.5h0l-.19-.42a3.57,3.57,0,0,0-.48-.85,4.19,4.19,0,0,0-5.84-.92l0,0a4.43,4.43,0,0,0-1.19,5.45l6.7,15,1.71,3.83a2,2,0,0,1,.18.82,2.09,2.09,0,0,1-.58,1.48,2,2,0,0,1-.66.47,2.13,2.13,0,0,1-2.77-1.06v-.06L102.82,79.52a4.21,4.21,0,0,0-5.5-2.24,4.67,4.67,0,0,0-.84.48,4.44,4.44,0,0,0-1.19,5.46l15.24,34.11a2.12,2.12,0,0,1-1.06,2.76,2.09,2.09,0,0,1-.81.19,2.14,2.14,0,0,1-2-1.24L87.92,77a4,4,0,0,0-.49-.85,4.19,4.19,0,0,0-5.86-.9,4.43,4.43,0,0,0-1.17,5.44l18.66,41.79a2.08,2.08,0,0,1-1,2.75h0a2,2,0,0,1-.8.18,2.11,2.11,0,0,1-2-1.24L81.55,93.57a4.43,4.43,0,0,0-.48-.85,4.2,4.2,0,0,0-5.87-.91A4.42,4.42,0,0,0,74,97.26l22.06,49.41a2.08,2.08,0,0,1-1.85,2.94,2.12,2.12,0,0,1-.93-.18l-13-6a6.29,6.29,0,0,0-8.19,2.8l-.86,1.67a1.94,1.94,0,0,0,.61,2.47l23.48,16a30.18,30.18,0,0,0,29.68,4,29.66,29.66,0,0,0,4.76-2.68h0Zm-31.93-114a1.31,1.31,0,0,0,1.12.95,1.52,1.52,0,0,0,.52,0,1.33,1.33,0,0,0,.9-1.62L95,31.29a1.33,1.33,0,0,0-2.61.49.83.83,0,0,0,.06.21ZM56.28,86.45,36.94,75.67a1.33,1.33,0,0,0-1.37,2.27l.07,0L55,88.76a1.41,1.41,0,0,0,.49.16,1.34,1.34,0,0,0,1.31-.67,1.3,1.3,0,0,0-.51-1.79Zm-8.19,28.49a1.33,1.33,0,0,0-1.16-1.46l-22-2.56A1.32,1.32,0,0,0,23.4,112a1.33,1.33,0,0,0,1.09,1.53h.14l22,2.57a1.33,1.33,0,0,0,1.47-1.17ZM48.63,142l-21.33,6a1.33,1.33,0,0,0,.21,2.59,1.3,1.3,0,0,0,.52-.05l21.32-6a1.32,1.32,0,1,0-.49-2.6.9.9,0,0,0-.22.06ZM155,60.72a1.54,1.54,0,0,0,.5.16,1.32,1.32,0,0,0,1.31-.67l10.8-19.33a1.33,1.33,0,0,0-2.32-1.29L154.44,59A1.33,1.33,0,0,0,155,60.72ZM128.21,52a1.33,1.33,0,0,0,1.47-1.16h0l2.57-22a1.33,1.33,0,0,0-2.62-.44s0,.09,0,.14l-2.57,21.95A1.31,1.31,0,0,0,128.2,52ZM76.52,64.29C78.6,57.91,80.55,50,77,45a7.37,7.37,0,0,0-4.4-2.79,7.16,7.16,0,0,0-5.68,1.16,7.37,7.37,0,0,0-2.69,5.05,7.48,7.48,0,0,0-5.68.9h0a7.31,7.31,0,0,0-1.74,10c3.55,5,11.71,5.73,18.45,5.83h0A1.33,1.33,0,0,0,76.52,64.29ZM60.09,51.48c1-.71,2.6-.77,5-.17a1.32,1.32,0,0,0,1.64-1.18c.2-2.38.78-3.89,1.78-4.6a4.41,4.41,0,0,1,3.61-.71,4.71,4.71,0,0,1,2.77,1.74c2.73,3.82,1.12,10.75-.54,16-5.5-.14-12.6-.87-15.32-4.69a4.69,4.69,0,0,1,1.12-6.38Z" transform="translate(-23.38 -27.35)"/></svg>