<svg version="1.1" baseProfile="tiny" id="logo"	 xmlns="http://www.w3.org/2000/svg" xmlns:xlink="http://www.w3.org/1999/xlink" x="0px" y="0px" viewBox="0 0 500 250">
<path d="M237.2,192c0.6-0.4,1.2-0.5,1.7-0.5c0.7,0,1.3,0.4,1.8,1.1c0.5,0.9,1.1,1.3,1.9,1.3c0.4,0,0.8-0.1,1.1-0.3
	c0.6-0.4,1-1,1-1.7c0-0.8-0.5-1.7-1.6-2.7c-1.3-1.2-2.7-1.8-4.2-1.8c-1.3,0-2.6,0.4-3.8,1.2c-0.4,0.2-0.9,0.7-1.6,1.5
	c-1.2,1.7-1.9,3.8-1.9,6.2v0.2c0,1.3,0.2,2.6,0.7,3.9c0.7,1.9,1.8,3.3,3.2,4.1c1.4,0.7,2.7,1,4.1,1c1.2,0,2.3-0.3,3.2-0.9
	c1.2-0.8,1.7-1.7,1.7-2.5c0-0.4-0.1-0.8-0.3-1.1c-0.4-0.6-1-1-1.7-1c-0.6,0-1.2,0.3-1.6,0.8c-0.3,0.6-1.1,0.8-2.5,0.4
	c-0.7-0.2-1.2-0.5-1.5-0.9c-0.8-1-1.1-2.4-1.1-4c0-1.4,0.3-2.6,0.8-3.6C236.6,192.5,236.9,192.3,237.2,192z"/>
<path d="M257.7,196.5c0-0.5,0-0.7,0-0.8c0-0.8-0.2-1.3-0.5-1.7l0-0.1c0-0.8-0.4-1.5-1.2-1.9c-1.5-0.6-3-0.9-4.4-0.9
	c-1.9,0-3.5,0.6-4.7,1.7c-1.5,1.5-2.3,3.5-2.3,6.2c0,2.3,0.8,4.1,2.3,5.4c1.1,0.8,2.3,1.3,3.6,1.3h0.3c1.1,0,2.2-0.3,3.3-0.8
	c0.4,0.4,0.9,0.7,1.5,0.7c0.4,0,0.8-0.1,1.2-0.4c0.6-0.5,0.8-1,0.8-1.6c0-0.4,0-2-0.1-5.2C257.7,197.5,257.7,197,257.7,196.5z
	 M249.2,196.4c0.4-0.9,1.2-1.3,2.4-1.3c0.6,0,1.2,0.1,2,0.3c0,1.2,0,2,0,2.3c0,0.7-0.1,1.5-0.4,2.3c-0.1,0.3-0.3,0.6-0.4,0.7
	c-0.6,0.5-1.3,0.7-2.1,0.7c-0.4,0-0.7-0.1-1-0.2c-0.6-0.3-1-1.1-1-2.4C248.8,197.9,248.9,197.1,249.2,196.4z"/>
<path d="M266.6,196.8c-1.7-0.5-2.8-0.9-3.3-1.1c0.2-0.1,0.4-0.2,1-0.2c0.1,0,0.2,0,0.3,0c0.6,0,1.4,0.1,2.2,0.3
	c0.9,0.3,1.5,0.4,1.8,0.4h0c0.3,0,0.6-0.1,0.9-0.3c0.7-0.5,1-1.1,1-1.8V194c0-0.8-0.5-1.4-1.3-1.8c-1.7-0.6-3.3-0.8-4.6-0.8
	c-0.1,0-0.3,0-0.4,0l-0.2,0c-1.7,0.1-3,0.7-3.9,1.8c-0.7,0.9-1,1.8-1,2.7v0.2c0.1,1.9,1.6,3.3,4.5,4.1c1.5,0.4,2.5,0.8,2.9,1
	c-0.3,0.2-0.7,0.3-1.4,0.3c-0.8,0-1.6,0-2.6-0.2c-0.8-0.2-1.3-0.3-1.5-0.3c0,0,0,0,0,0c-0.4,0-0.7,0.1-1.1,0.4
	c-0.6,0.5-0.9,1-0.9,1.7v0.1c0,0.3,0.1,0.6,0.3,1c0.3,0.4,0.6,0.7,1,0.9c1.6,0.4,3.1,0.6,4.3,0.6c0.2,0,0.3,0,0.5,0l0.2,0
	c2.1-0.1,3.6-0.8,4.6-2.1c0.5-0.8,0.8-1.6,0.8-2.4v-0.2C270.6,198.9,269.2,197.6,266.6,196.8z"/>
<path d="M278.9,196.8c-1.7-0.5-2.8-0.9-3.3-1.1c0.2-0.1,0.4-0.2,1-0.2c0.1,0,0.2,0,0.3,0c0.6,0,1.4,0.1,2.2,0.3
	c0.9,0.3,1.5,0.4,1.8,0.4h0c0.3,0,0.6-0.1,0.9-0.3c0.7-0.5,1-1.1,1-1.8V194c0-0.8-0.5-1.4-1.3-1.8c-1.7-0.6-3.3-0.8-4.6-0.8
	c-0.1,0-0.3,0-0.4,0l-0.2,0c-1.7,0.1-3,0.7-3.9,1.8c-0.7,0.9-1,1.8-1,2.7v0.2c0.1,1.9,1.6,3.3,4.5,4.1c1.5,0.4,2.5,0.8,2.9,1
	c-0.3,0.2-0.7,0.3-1.4,0.3c-0.8,0-1.6,0-2.6-0.2c-0.8-0.2-1.3-0.3-1.5-0.3c0,0,0,0,0,0c-0.4,0-0.7,0.1-1.1,0.4
	c-0.6,0.5-0.9,1-0.9,1.7v0.1c0,0.3,0.1,0.6,0.3,1c0.3,0.4,0.6,0.7,1,0.9c1.6,0.4,3.1,0.6,4.3,0.6c0.2,0,0.3,0,0.5,0l0.2,0
	c2.1-0.1,3.6-0.8,4.6-2.1c0.5-0.8,0.8-1.6,0.8-2.4v-0.2C282.9,198.9,281.5,197.6,278.9,196.8z"/>
<path d="M290.4,191.3h-0.3c-2.1,0-3.8,0.7-5,2.1c-0.9,1.2-1.4,2.5-1.4,3.9v0.5c0,0.2,0,0.4,0,0.6c0.2,1.4,0.6,2.7,1.4,3.9
	c0.2,0.4,0.6,0.9,1.2,1.5c1.2,1.2,2.7,1.8,4.6,1.8c0.9,0,1.8-0.1,2.6-0.4c2-0.7,3.1-1.6,3.1-2.7v-0.1c0-0.2-0.1-0.5-0.2-0.8
	c-0.4-0.8-1.1-1.2-1.8-1.2h-0.1c-0.3,0-0.6,0.1-1,0.3c-0.6,0.5-1.5,0.8-2.5,0.8h-0.2c-0.4,0-0.8-0.1-1.1-0.3c-0.4-0.3-0.8-0.6-1-0.9
	c5.5-0.1,6.7-0.2,7-0.3l0,0c1.1-0.3,1.6-1.1,1.6-2.2c0-1.4-0.4-2.6-1.1-3.7C295,192.2,293,191.3,290.4,191.3z M292.5,195.9
	c-2.3,0.1-3.7,0.1-4.3,0.1c0.3-0.5,1-0.7,2-0.7C291.2,195.4,292,195.6,292.5,195.9z"/>
<path d="M308.2,188.5c-0.4-0.8-1.1-1.1-1.8-1.1c-0.6,0-1.1,0.2-1.6,0.7c-0.3,0.4-0.5,0.9-0.5,1.2c0.1,7.9,0.1,12.5,0.1,14
	c0,0.3,0.1,0.7,0.2,1c0.5,0.7,1.1,1.1,1.8,1.1c0.3,0,0.7-0.1,1-0.3c0.7-0.4,1-1,1-1.8c0-0.9,0-5.4-0.1-13.3
	C308.4,189,308.3,188.7,308.2,188.5z"/>
<path d="M316.3,191.3H316c-2.1,0-3.8,0.7-5,2.1c-0.9,1.2-1.4,2.5-1.4,3.9v0.5c0,0.2,0,0.4,0,0.6c0.2,1.4,0.6,2.7,1.4,3.9
	c0.2,0.4,0.6,0.9,1.2,1.5c1.2,1.2,2.7,1.8,4.6,1.8c0.9,0,1.8-0.1,2.6-0.4c2-0.7,3.1-1.6,3.1-2.7v-0.1c0-0.2-0.1-0.5-0.2-0.8
	c-0.4-0.8-1.1-1.2-1.8-1.2h-0.1c-0.3,0-0.6,0.1-1,0.3c-0.6,0.5-1.5,0.8-2.5,0.8h-0.2c-0.4,0-0.8-0.1-1.1-0.3c-0.4-0.3-0.8-0.6-1-0.9
	c5.5-0.1,6.7-0.2,7-0.3l0,0c1.1-0.3,1.6-1.1,1.6-2.2c0-1.4-0.4-2.6-1.1-3.7C320.9,192.2,319,191.3,316.3,191.3z M318.5,195.9
	c-2.3,0.1-3.7,0.1-4.3,0.1c0.3-0.5,1-0.7,2-0.7C317.2,195.4,318,195.6,318.5,195.9z"/>
<path d="M331.7,196.8c-1.7-0.5-2.8-0.9-3.3-1.1c0.2-0.1,0.4-0.2,1-0.2c0.1,0,0.2,0,0.3,0c0.6,0,1.4,0.1,2.2,0.3
	c0.9,0.3,1.5,0.4,1.8,0.4h0c0.3,0,0.6-0.1,0.9-0.3c0.7-0.5,1-1.1,1-1.8V194c0-0.8-0.5-1.4-1.3-1.8c-1.7-0.6-3.3-0.8-4.6-0.8
	c-0.1,0-0.3,0-0.4,0l-0.2,0c-1.7,0.1-3,0.7-3.9,1.8c-0.7,0.9-1,1.8-1,2.7v0.2c0.1,1.9,1.6,3.3,4.5,4.1c1.5,0.4,2.5,0.8,2.9,1
	c-0.3,0.2-0.7,0.3-1.4,0.3c-0.8,0-1.6,0-2.6-0.2c-0.8-0.2-1.3-0.3-1.5-0.3c0,0,0,0,0,0c-0.4,0-0.7,0.1-1.1,0.4
	c-0.6,0.5-0.9,1-0.9,1.7v0.1c0,0.3,0.1,0.6,0.3,1c0.3,0.4,0.6,0.7,1,0.9c1.6,0.4,3.1,0.6,4.3,0.6c0.2,0,0.3,0,0.5,0l0.2,0
	c2.1-0.1,3.6-0.8,4.6-2.1c0.5-0.8,0.8-1.6,0.8-2.4v-0.2C335.7,198.9,334.3,197.6,331.7,196.8z"/>
<path d="M347.7,196.3c0.8-0.8,1.6-1.2,2.6-1.2c0.8,0,1.6,0.3,2.4,0.7c0.5,0.4,1,0.6,1.4,0.6c0.3,0,0.6-0.1,1-0.2
	c0.8-0.5,1.1-1.1,1.1-1.8c0-0.7-0.3-1.3-1-1.7c-1.6-1.1-3.3-1.6-4.9-1.6h-0.1c-1.2,0-2.3,0.3-3.4,0.9c-0.5,0.2-1.1,0.7-1.8,1.3
	c-0.6,0.6-1.1,1.2-1.3,1.6c-0.6,1.2-0.9,2.3-0.9,3.3v0.5c0,0.9,0.3,2,0.8,3.1c0.2,0.4,0.5,0.9,0.9,1.3c0.6,0.6,1.1,1,1.4,1.2
	c1.4,0.8,2.8,1.2,4.3,1.2h0.2c1.2,0,2.3-0.3,3.4-0.8c1.3-0.6,1.9-1.3,1.9-2.3c0-0.3-0.1-0.7-0.3-1c-0.5-0.7-1-1-1.8-1
	c-0.4,0-0.7,0.1-1.1,0.3c-0.7,0.5-1.5,0.8-2.3,0.8c-0.7,0-1.4-0.2-2.1-0.5c-0.9-0.6-1.3-1.5-1.3-2.5v-0.1
	C346.9,197.6,347.2,196.9,347.7,196.3z"/>
<path d="M367,193.1c-1.1-1-2.4-1.5-3.7-1.5h-0.5c-1,0-2.1,0.3-3.1,0.9c-0.3,0.1-0.8,0.5-1.4,1.1c-1.2,1.4-1.9,3.1-1.9,4.9
	c0,1.7,0.5,3.3,1.6,4.6c0.9,0.9,1.1,1.1,1.2,1.1c1.2,0.8,2.5,1.2,3.8,1.2h0.3c1,0,2-0.3,2.8-0.8c0.3-0.1,0.7-0.5,1.3-1.1
	c1.1-1.3,1.7-3,1.7-4.9c0-1.3-0.3-2.6-0.9-3.7C368.1,194.3,367.6,193.7,367,193.1z M365.1,198.7c0,0.3-0.1,0.7-0.2,1.1
	c-0.3,1-0.9,1.6-1.7,1.6c-0.6,0-1.2-0.2-1.7-0.6c-0.6-0.6-0.9-1.3-0.9-2.2c0-0.3,0.1-0.7,0.2-1.2c0.5-1.1,1.2-1.7,2.3-1.7
	c0.4,0,0.8,0.1,1.1,0.4c0.6,0.6,0.9,1.5,0.9,2.5V198.7z"/>
<path d="M382.1,188.5c-0.4-0.8-1.1-1.2-1.8-1.2h-0.1c-0.2,0-0.5,0.1-0.8,0.2c-0.8,0.4-1.2,1.1-1.2,1.8v2.1c-0.3,0-0.9,0.1-1.7,0.3
	c-1.6,0.4-2.9,1-4,1.9c-0.7,0.6-1.1,1.1-1.2,1.4c-0.8,1.2-1.1,2.4-1.1,3.7v0.6c0,0.9,0.2,1.8,0.7,2.7c0.1,0.3,0.5,0.8,1.2,1.5
	c1.5,1.4,3.7,2,6.6,2c1,0,1.7-0.1,2.3-0.2c0.4-0.1,0.8-0.3,1.2-0.8c0.2-0.4,0.4-0.7,0.4-1c0-6.8,0-11.6,0-14.3
	C382.3,189.1,382.3,188.8,382.1,188.5z M378.2,201.1v0.2c-0.8,0-1.6-0.1-2.3-0.3c-1.2-0.3-1.8-1-1.8-2v0c0-1.1,0.4-1.9,1.1-2.4
	c0.8-0.6,1.8-1,2.9-1.1C378.2,197.9,378.2,199.8,378.2,201.1z"/>
<path d="M390.4,191.3h-0.3c-2.1,0-3.8,0.7-5,2.1c-0.9,1.2-1.4,2.5-1.4,3.9v0.5c0,0.2,0,0.4,0,0.6c0.2,1.4,0.6,2.7,1.4,3.9
	c0.2,0.4,0.6,0.9,1.2,1.5c1.2,1.2,2.7,1.8,4.6,1.8c0.9,0,1.8-0.1,2.6-0.4c2-0.7,3.1-1.6,3.1-2.7v-0.1c0-0.2-0.1-0.5-0.2-0.8
	c-0.4-0.8-1.1-1.2-1.8-1.2h-0.1c-0.3,0-0.6,0.1-1,0.3c-0.6,0.5-1.5,0.8-2.5,0.8h-0.2c-0.4,0-0.8-0.1-1.1-0.3c-0.4-0.3-0.8-0.6-1-0.9
	c5.5-0.1,6.7-0.2,7-0.3l0,0c1.1-0.3,1.6-1.1,1.6-2.2c0-1.4-0.4-2.6-1.1-3.7C395,192.2,393,191.3,390.4,191.3z M392.5,195.9
	c-2.3,0.1-3.7,0.1-4.3,0.1c0.3-0.5,1-0.7,2-0.7C391.3,195.4,392,195.6,392.5,195.9z"/>
<path d="M405.8,196.8c-1.7-0.5-2.8-0.9-3.3-1.1c0.2-0.1,0.4-0.2,1-0.2c0.1,0,0.2,0,0.3,0c0.6,0,1.4,0.1,2.2,0.3
	c0.9,0.3,1.5,0.4,1.8,0.4h0c0.3,0,0.6-0.1,0.9-0.3c0.7-0.5,1-1.1,1-1.8V194c0-0.8-0.5-1.4-1.3-1.8c-1.7-0.6-3.3-0.8-4.6-0.8
	c-0.1,0-0.3,0-0.4,0l-0.2,0c-1.7,0.1-3,0.7-3.9,1.8c-0.7,0.9-1,1.8-1,2.7v0.2c0.1,1.9,1.6,3.3,4.5,4.1c1.5,0.4,2.5,0.8,2.9,1
	c-0.3,0.2-0.7,0.3-1.4,0.3c-0.8,0-1.6,0-2.6-0.2c-0.8-0.2-1.3-0.3-1.5-0.3c0,0,0,0,0,0c-0.4,0-0.7,0.1-1.1,0.4
	c-0.6,0.5-0.9,1-0.9,1.7v0.1c0,0.3,0.1,0.6,0.3,1c0.3,0.4,0.6,0.7,1,0.9c1.6,0.4,3.1,0.6,4.3,0.6c0.2,0,0.3,0,0.5,0l0.2,0
	c2.1-0.1,3.6-0.8,4.6-2.1c0.5-0.8,0.8-1.6,0.8-2.4v-0.2C409.8,198.9,408.4,197.6,405.8,196.8z"/>
<path d="M239.5,100.6c4.4,2.2,8.8,3.3,13.1,3.3c3.8,0,7.4-1,10.5-3.1c3.8-2.8,5.7-5.6,5.7-8.5c0-1.3-0.4-2.6-1.2-3.9
	c-1.5-2.2-3.5-3.3-5.9-3.3c-2.2,0-4.1,0.9-5.6,2.6l-0.1,0.2c-0.9,1.7-3.2,2.1-7.2,1.1c-2.1-0.6-3.6-1.4-4.3-2.5
	c-2.3-3.2-3.5-7.3-3.5-12.3c0-4.3,0.9-8,2.6-10.9c0.5-0.8,1.2-1.6,2.1-2.3c1.8-1.1,3.5-1.6,4.9-1.6c1.9,0,3.6,1.1,5.2,3.3
	c1.7,2.9,3.9,4.4,6.6,4.4c1.3,0,2.6-0.4,3.9-1.2c2.2-1.5,3.3-3.5,3.3-5.9c0-2.6-1.7-5.6-5.3-9.1c-4.1-3.8-8.7-5.7-13.6-5.7
	c-4.2,0-8.4,1.3-12.4,3.8c-1.3,0.7-3.1,2.3-5.4,5c-4,5.6-6.1,12.3-6.1,19.9v0.7c0,4.2,0.7,8.4,2.2,12.7
	C231.4,93.5,234.9,98,239.5,100.6z"/>
<path d="M297.3,90.8c0.1,0.4,0.3,1.1,0.6,2.3c1.4,6.5,1.8,6.9,1.9,7.2c1.6,2.4,3.7,3.6,6.1,3.6c1,0,2-0.2,3.1-0.7l0.1-0.1
	c2.2-1.3,3.5-3.1,3.9-5.2c0.3,0.5,0.6,0.9,1,1.3c0.9,0.9,2.2,1.6,3.6,2.1c5.5,1.7,10.2,2.5,14.1,2.5l2.6-0.1c0.8,0,2-0.2,3.5-0.5
	c3.5-0.8,6.3-2.2,8.4-4c2-1.9,3.1-3.3,3.6-4.4c1.6-3.1,2.4-6.1,2.4-8.9l0-1.1c-0.2-4.5-2.5-8.5-6.8-11.8c-2.3-1.5-4.9-3-7.9-4.2
	c-10.6-4-11.2-5.6-11.2-5.8l0-0.4c0-0.1,0-0.5,0.2-1.4c0.2-0.7,0.7-1.7,3.4-1.8l0.9,0c2.2,0,5.1,0.6,8.4,1.7c2.3,1,4,1.5,5.2,1.5
	l0.2,0c1.3,0,2.6-0.5,3.9-1.3c2-1.6,3-3.5,3-5.8l0-0.3c-0.1-3.1-1.8-5.3-5.2-6.7c-6-2.3-11.1-3.5-15.2-3.5l-2.5,0.1
	c-3.3,0.1-6.4,1.2-9.3,3.1c-1,0.6-2.2,1.7-3.7,3.6c-2.3,3.4-3.5,7.1-3.5,10.9l0,0.7c0.1,2.7,1,5.3,2.7,7.8c0.6,1.1,2,2.5,4.4,4.4
	c2.4,1.6,5.4,3.2,8.8,4.5c9.5,3.6,10.1,5.1,10.1,5.2v0.1c0,0.6-0.2,1.3-0.5,2.1c-0.6,1.1-2.1,1.7-4.6,1.7l-0.9,0
	c-2.3,0-5.1-0.4-8.1-1.2c-2.4-0.8-4.1-1.2-5.1-1.2l-0.1,0c-1.3,0.1-2.6,0.5-3.8,1.3c-1.4,1.1-2.3,2.4-2.7,3.9
	c-4-17.4-7.5-30.1-10.5-37.7c-2.3-6.1-5.5-9.3-9.7-9.3h0c-2.5,0-4.8,1.2-6.8,3.6c-2.2,3.1-4.8,9.2-7.8,18.7
	c-7,23.2-7.8,27.2-7.8,28.2c0,1.3,0.4,2.6,1.2,3.9c1.5,2.2,3.5,3.3,5.9,3.3c1.1,0,2.2-0.3,3.4-0.9c1.6-1,2.8-2.3,3.3-4
	c1.1-4.2,1.6-6,1.9-6.8C291.6,91,295.6,90.9,297.3,90.8z M289.9,75.5c0.9-2.7,1.5-4.6,1.9-5.8c0.6,2.1,1.3,4.4,2,7
	c-1,0-2.4,0.1-4.2,0.2C289.6,76.5,289.7,76.1,289.9,75.5z"/>
<path d="M362.1,103.9C362.1,103.9,362.1,103.9,362.1,103.9c21.3-0.9,21.7-0.9,21.8-0.9c3.3,0,5.3-0.3,6.3-1c2.4-1.6,3.6-3.7,3.6-6.2
	c0-1.2-0.3-2.4-1-3.6c-1.5-2.3-3.6-3.5-6.1-3.5c-0.7,0-6.3,0.2-17.2,0.7l0.2-7c4.4,0,7.6,0,9.6,0c1.4,0,2.6-0.3,3.8-1
	c2.4-1.6,3.6-3.6,3.6-6.1c0-1-0.2-2-0.7-3.1l-0.1-0.1c-1.5-2.6-3.7-4-6.5-4c-2.1,0-5.2,0-9.3,0.1l0.2-8.4l12.1-0.2
	c5.1,0,6.5-0.4,7.1-0.9c2.5-1.5,3.8-3.6,3.8-6.3c0-2-0.8-3.8-2.3-5.3l-0.1-0.1c-1.5-1.2-3-1.8-4.4-1.8h0
	c-13.2,0.2-13.7,0.3-13.8,0.3c-9.3,0-10.6,0.3-11.1,0.4c-1,0.2-2.1,0.8-3.3,2c-0.9,0.9-1.6,2.2-1.9,3.9l0,0
	c-0.1,0.3-0.1,0.6-0.1,0.9c0,0.5,0,1.2-0.1,2.1c-0.1,1.9-0.1,4.7-0.3,8.4c-0.2,7.5-0.5,18.7-0.9,33.6c0,1.8,0.7,3.5,2.1,5
	C358.7,103.1,360.3,103.9,362.1,103.9z"/>
<path d="M316,152c6.2-3.7,9.3-9.2,9.3-16.2v-0.4c0-6.5-2.3-11.8-6.8-15.9c-4.4-3.5-9.9-5.3-16.4-5.3h-1.2c-3.3,0-7.1,0.5-11.1,1.4
	c-1.1,0.2-2.2,0.9-3.5,2.2c-1.3,1.5-1.9,3-1.9,4.6c0.2,21.8,0.5,35.2,0.7,39.8c0,2.9,0.3,5,1,6.6l0.1,0.1c1.5,2.6,3.7,4,6.4,4
	c1.2,0,2.4-0.3,3.6-1c2.3-1.5,3.5-3.6,3.5-6.1l0-0.1c-0.4-3.1-0.5-6.6-0.6-10.3c0.6,0,1.3,0,2.1,0C306.8,155.3,311.8,154.2,316,152z
	 M311.1,135.5c0,0.9-0.1,1.8-0.4,2.4c-1,2-4.2,3.1-9.5,3.2c-0.9,0-1.7,0-2.5-0.1l-0.1-12.5c0.5,0,1.3-0.1,2.7-0.1h0.1
	c2.7,0,4.8,0.4,6.4,1.1C310,130.4,311.1,132.3,311.1,135.5z"/>
<path d="M350,172.8c5.3,0,9.9-2.1,13.7-6.4c4.4-5.4,6.7-12.5,6.7-21.3c0-8-1.9-15.2-5.5-21.3c-0.7-1.3-2-2.9-4.2-5.1
	c-3.5-3.1-7.3-4.6-11.2-4.6h-0.7c-3.7,0-7.3,1.3-10.8,3.7c-1.4,1-2.8,2.4-4.3,4.3c-4.5,6.2-6.7,13.6-6.7,22.2
	c0,4.8,0.9,9.5,2.6,13.8c0.7,1.8,1.8,3.7,3.2,5.6c0.2,0.5,0.9,1.4,3.9,4.2c4,3.1,8.4,4.7,13.1,4.7H350z M341.2,144.3
	c0-2.7,0.4-5.4,1.1-7.9c1.8-5.4,4.1-8.1,6.8-8.1c1.3,0,2.5,0.9,3.7,2.7c2.3,4,3.4,8.7,3.4,14.1c0,1.4-0.1,2.9-0.3,4.5
	c-1,5.9-3,8.9-5.9,8.9c-2.2,0-4.1-0.9-5.5-2.7C342.3,152.9,341.2,149,341.2,144.3z"/>
<path d="M409.6,114.9L409.6,114.9c-0.5-0.1-1.3-0.1-2.6-0.1c-1.6,0-3.9-0.1-7-0.2c-6.2-0.1-15.5-0.3-28-0.5l0,0l0,0
	c-1.1,0.1-2.2,0.3-3.2,0.9c-2.5,1.5-3.7,3.6-3.7,6.2c0,1.3,0.4,2.6,1.1,3.8c0.9,1.4,2.3,2.5,4.2,3.1l0,0c1.2,0.3,4.3,0.4,12.6,0.5
	v37c0,1.1,0.2,2.2,0.7,3.2l0,0.1c1.5,2.6,3.7,3.9,6.3,3.9c0.8,0,1.7-0.2,2.6-0.5l0.1,0c2.9-1.4,4.4-3.7,4.4-6.7v-36.7
	c1.7,0,5.4,0.1,11.2,0.2c1,0,2-0.3,3.3-0.9c2.4-1.5,3.7-3.6,3.7-6.1c0-1.4-0.4-2.8-1.4-4.2C413,116.4,411.6,115.4,409.6,114.9z"/>
<path d="M495.1,153.9c-0.2-4.5-2.5-8.5-6.8-11.8c-2.3-1.5-4.9-3-7.9-4.2c-10.6-4-11.2-5.6-11.2-5.8l0-0.4c0-0.1,0-0.5,0.2-1.4
	c0.2-0.7,0.7-1.7,3.4-1.8l0.9,0c2.2,0,5.1,0.6,8.4,1.7c2.3,1,4,1.5,5.2,1.5h0.2c1.3,0,2.6-0.5,3.9-1.3c2-1.6,3-3.5,3-5.8l0-0.3
	c-0.1-3.1-1.8-5.3-5.2-6.7c-6-2.3-11.1-3.5-15.2-3.5l-2.5,0.1c-3.3,0.1-6.4,1.2-9.3,3.1c-1,0.6-2.2,1.7-3.7,3.6
	c-2.3,3.4-3.5,7.1-3.5,10.9l0,0.7c0.1,2.7,1,5.3,2.7,7.8c0.6,1.1,2,2.5,4.4,4.4c2.4,1.6,5.4,3.2,8.8,4.5c9.5,3.6,10.1,5.1,10.1,5.2
	v0.1c0,0.6-0.2,1.3-0.5,2.1c-0.6,1.1-2.1,1.7-4.6,1.7l-0.9,0c-2.3,0-5.1-0.4-8.1-1.2c-2.4-0.8-4.1-1.2-5.1-1.2l-0.1,0
	c-1.3,0.1-2.6,0.5-3.8,1.3c-2,1.5-3,3.5-3,5.7l0,0.3c-0.1-0.8-0.4-1.6-0.9-2.3c-1.5-2.3-3.6-3.5-6.1-3.5c-0.7,0-6.3,0.2-17.2,0.7
	l0.2-7c4.4,0,7.6,0,9.6,0c1.4,0,2.6-0.3,3.8-1c2.4-1.6,3.6-3.6,3.6-6.1c0-1-0.2-2-0.7-3.1l-0.1-0.1c-1.5-2.6-3.7-4-6.5-4
	c-2.1,0-5.2,0-9.3,0.1l0.2-8.4l12.1-0.2c5.1,0,6.5-0.4,7.1-0.9c2.5-1.5,3.8-3.6,3.8-6.3c0-2-0.8-3.8-2.3-5.3l-0.1-0.1
	c-1.5-1.2-3-1.8-4.4-1.8h0c-13.2,0.2-13.7,0.3-13.8,0.3c-9.3,0-10.6,0.3-11.1,0.4c-1,0.2-2.1,0.8-3.3,2c-0.9,0.9-1.6,2.2-1.9,3.9
	l0,0c-0.1,0.3-0.1,0.6-0.1,0.9c0,0.5,0,1.2-0.1,2.1c-0.1,1.9-0.1,4.7-0.3,8.4c-0.2,7.5-0.5,18.7-0.9,33.6c0,1.8,0.7,3.5,2.1,5
	c1.5,1.4,3.1,2.1,4.9,2.1c0,0,0,0,0,0c21.3-0.9,21.7-0.9,21.8-0.9c3.3,0,5.3-0.3,6.3-1c2.4-1.6,3.6-3.7,3.6-6.2c0-0.1,0-0.1,0-0.2
	c0.2,1.3,0.9,2.6,1.9,3.7c0.9,0.9,2.2,1.6,3.6,2.1c5.5,1.7,10.2,2.5,14.1,2.5l2.6-0.1c0.8,0,2-0.2,3.5-0.5c3.5-0.8,6.3-2.2,8.4-4
	c2-1.9,3.1-3.3,3.6-4.4c1.6-3.1,2.4-6.1,2.4-8.9L495.1,153.9z"/>
<path d="M233,135.8c0,0.4,0.1,0.7,0.3,1.1c0.6,1.1,1.5,1.3,2.2,1.3c0.3,0,0.6-0.1,0.9-0.2c1-0.5,1.5-1.3,1.5-2.3v-11.4
	c0.6,0,1.7,0,3.3,0.1c0.3,0,0.7-0.1,1.1-0.3c0.8-0.5,1.2-1.2,1.2-2.1c0-0.5-0.2-1-0.5-1.4c-0.3-0.4-0.8-0.8-1.5-0.9l0,0
	c-0.4-0.1-1.3-0.1-3.1-0.1c-2,0-4.9-0.1-8.8-0.2l0,0c-0.4,0-0.7,0.1-1.1,0.3c-0.8,0.5-1.3,1.2-1.3,2.1c0,0.5,0.1,0.9,0.4,1.3
	c0.3,0.5,0.8,0.8,1.4,1.1l0,0c0.5,0.1,1.5,0.1,3.9,0.2V135.8z"/>
<path d="M243.5,135.8c0,0.6,0.2,1.2,0.7,1.7c0.5,0.5,1.1,0.7,1.7,0.7c0,0,0,0,0,0c3.1-0.1,6.7-0.3,6.9-0.3c1.1,0,1.7-0.1,2.1-0.4
	c0.6-0.4,0.9-0.9,1.1-1.4c0.1,0.2,0.2,0.4,0.4,0.5c0.3,0.3,0.7,0.6,1.2,0.7c1.8,0.5,3.3,0.8,4.5,0.8l0.8,0c0.3,0,0.6-0.1,1.1-0.1
	c1.1-0.3,2.1-0.7,2.8-1.3c0.6-0.6,1-1.1,1.2-1.4c0.5-1,0.8-2,0.8-2.9v-0.3c-0.1-1.5-0.8-2.8-2.2-3.9c-0.7-0.5-1.6-0.9-2.5-1.4
	c-3-1.1-3.4-1.6-3.4-1.7l0-0.1c0,0,0-0.1,0.1-0.4c0-0.1,0.1-0.4,0.9-0.4l0.3,0c0.7,0,1.6,0.2,2.6,0.5c0.8,0.3,1.3,0.5,1.8,0.5h0
	c0.5,0,0.9-0.2,1.3-0.5c0.7-0.5,1-1.2,1-2.1c0-0.7-0.4-1.7-1.7-2.3c-1.9-0.7-3.5-1.1-4.9-1.1l-0.8,0c-1.1,0-2.1,0.4-3,1
	c-0.3,0.2-0.7,0.6-1.2,1.2c-0.8,1.1-1.1,2.3-1.1,3.6v0.2c0,0.9,0.3,1.8,0.9,2.5c0.2,0.4,0.6,0.8,1.5,1.5c0.8,0.5,1.7,1,2.8,1.5
	c2.8,1,3.1,1.5,3.1,1.5c0,0.2-0.1,0.4-0.1,0.6c-0.2,0.3-0.8,0.4-1.3,0.5l-0.3,0c-0.7,0-1.6-0.1-2.5-0.4c-0.8-0.3-1.3-0.4-1.7-0.4
	c-0.4,0-0.9,0.2-1.3,0.4c-0.5,0.4-0.8,0.8-0.9,1.3c0,0,0-0.1,0-0.1c-0.5-0.8-1.2-1.2-2.1-1.2c-0.3,0-2.9,0.1-5.2,0.2l0-1.8
	c1.3,0,2.2,0,2.9,0c0.5,0,0.9-0.1,1.3-0.3c0.8-0.5,1.2-1.2,1.2-2.1c0-0.3-0.1-0.7-0.3-1.1c-0.5-0.9-1.3-1.3-2.2-1.3
	c-0.6,0-1.5,0-2.7,0l0.1-2.3l3.6-0.1c1.6,0,2.1-0.1,2.3-0.3c0.9-0.5,1.3-1.3,1.3-2.2c0-0.7-0.3-1.3-0.8-1.8c-0.5-0.4-1-0.6-1.5-0.6
	h0c-4.2,0.1-4.3,0.1-4.3,0.1c-3.1,0-3.4,0.1-3.5,0.1c-0.4,0.1-0.7,0.3-1.2,0.7c-0.3,0.3-0.5,0.7-0.7,1.3l0.1,0
	c-0.1,0.5-0.1,1.5-0.2,3.6C243.7,127.6,243.6,131.1,243.5,135.8z"/>
<path d="M210.8,184.9l-26.8,23.9c-6.4,6.4-14.7,10.6-23.7,12.1c2.6-2.3,5-4.8,7.2-7.5c4.8-1.9,9.2-4.8,12.9-8.5l26.8-24
	c0.9-0.8,1.1-2.2,0.4-3.2l-1.4-1.9c-2.4-3.5-7.2-4.4-10.7-2.1l-15.3,9.7c-1.2,0.8-2.9,0.4-3.7-0.8c-0.4-0.6-0.5-1.4-0.3-2.2
	l19.4-65.8c0.9-2.5-0.1-5.3-2.4-6.6c-2.6-1.4-5.8-0.4-7.2,2.1c-0.2,0.4-0.4,0.7-0.5,1.1l-12,40.7c-0.4,1.4-1.9,2.2-3.3,1.8
	s-2.2-1.9-1.8-3.3l0,0l16.4-55.6c0.9-2.5-0.2-5.3-2.5-6.7c-2.6-1.4-5.8-0.4-7.2,2.1c-0.2,0.4-0.3,0.7-0.5,1.1l-14.4,48.9l-3.3-7.5
	l9.5-32.4c0.9-2.5-0.1-5.3-2.4-6.6c-2.6-1.4-5.8-0.4-7.2,2.1c-0.2,0.4-0.4,0.8-0.5,1.2l-6.1,20.7l-3.3-7.4c0.5-1.8,0.9-3.2,0.9-3.2
	l3.4-11.6c1.7-5.6,7.6-8.8,13.2-7.1c0.7,0.2,1.4,0.5,2,0.8c1,0.5,1.9,1.2,2.7,2l0.4-1.4c1.7-5.6,7.6-8.8,13.2-7.1
	c0.7,0.2,1.4,0.5,2,0.8c4.5,2.5,6.7,7.8,5.1,12.7l-1.8,6.1c5.7-1.4,11.4,2.1,12.8,7.8c0.5,1.9,0.4,4-0.2,5.9l-17.4,59l9.3-5.9
	c6-3.8,13.9-2.2,17.9,3.6l1.4,1.9C214.2,178,213.7,182.3,210.8,184.9z M157.3,220.7l1-0.8c0.4-0.3,0.9-0.7,1.4-1.1
	c0.5-0.4,1-0.8,1.4-1.2c0.2-0.2,0.4-0.4,0.6-0.6c0.6-0.6,1.1-1.1,1.7-1.7c0.2-0.2,0.4-0.4,0.5-0.6l0,0c11-12.4,13.8-30.1,7-45.2
	l-6.3-14.1h-0.1l-5.2-11.8l0,0l-3.3-7.5l0,0l-11.9-26.7l0,0l-0.3-0.6c-0.2-0.4-0.4-0.8-0.7-1.2c-2-2.7-5.7-3.3-8.4-1.3c0,0,0,0,0,0
	c-2.4,1.9-3.1,5.2-1.7,7.9l9.7,21.6l2.5,5.5c0.2,0.4,0.3,0.8,0.3,1.2c0,0.8-0.3,1.6-0.8,2.1c-0.3,0.3-0.6,0.5-1,0.7
	c-1.5,0.6-3.3,0-4-1.5v-0.1l-22.1-49.5c-1.3-3.1-4.8-4.5-7.9-3.2c-0.4,0.2-0.8,0.4-1.2,0.7c-2.4,1.9-3.1,5.2-1.7,7.9l22,49.2
	c0.7,1.5,0,3.3-1.5,4c-0.4,0.2-0.8,0.3-1.2,0.3c-1.2,0-2.3-0.7-2.8-1.8L96,90.5c-0.2-0.4-0.4-0.8-0.7-1.2c-2-2.7-5.8-3.3-8.4-1.3
	c-2.3,1.9-3,5.2-1.7,7.9l26.9,60.2c0.7,1.5,0,3.3-1.5,4c0,0,0,0,0,0c-0.4,0.2-0.8,0.3-1.2,0.3c-1.2,0-2.3-0.7-2.8-1.8l-19.7-44.1
	c-0.2-0.4-0.4-0.9-0.7-1.2c-1.2-1.6-3.1-2.5-5.1-2.5c-1.2,0-2.4,0.4-3.4,1.2c-2.4,1.9-3.1,5.2-1.7,7.9l31.8,71.2
	c0.4,0.8,0.4,1.7,0,2.5c-0.5,1.1-1.5,1.7-2.7,1.8c-0.5,0-0.9-0.1-1.3-0.3L85,186.3c-4.4-2-9.6-0.2-11.8,4l-1.2,2.4
	c-0.6,1.2-0.3,2.8,0.9,3.6l33.8,23.1c12.2,9.4,28.5,11.6,42.8,5.8c2.4-1.1,4.7-2.4,6.9-3.9l0,0C156.6,221.2,157,221,157.3,220.7z
	 M111.3,56.4c0.2,0.7,0.8,1.3,1.6,1.4c0.2,0,0.5,0,0.7-0.1c1-0.3,1.6-1.3,1.3-2.3l-8.7-30.7c-0.2-1-1.2-1.7-2.2-1.5
	c-1,0.2-1.7,1.2-1.5,2.2c0,0.1,0,0.2,0.1,0.3L111.3,56.4z M50.4,104.2L22.5,88.6c-0.9-0.5-2.1-0.2-2.6,0.7c-0.5,0.9-0.2,2.1,0.7,2.6
	c0,0,0.1,0,0.1,0.1l27.9,15.5c0.2,0.1,0.5,0.2,0.7,0.2c0.8,0.1,1.5-0.3,1.9-1C51.6,105.9,51.3,104.7,50.4,104.2
	C50.4,104.2,50.4,104.2,50.4,104.2z M38.6,145.3c0.1-1-0.6-2-1.7-2.1l-31.7-3.7c-1-0.2-2,0.5-2.2,1.6c-0.2,1,0.5,2,1.6,2.2
	c0.1,0,0.1,0,0.2,0l31.7,3.7C37.5,147.1,38.5,146.3,38.6,145.3C38.6,145.3,38.6,145.3,38.6,145.3z M39.3,184.3L8.6,193
	c-1,0.3-1.6,1.4-1.3,2.4c0.2,0.7,0.8,1.3,1.6,1.4c0.2,0,0.5,0,0.7-0.1l30.7-8.7c1-0.2,1.7-1.2,1.5-2.2c-0.2-1-1.2-1.7-2.2-1.5
	C39.6,184.2,39.5,184.3,39.3,184.3L39.3,184.3z M192.6,67.1c0.2,0.1,0.5,0.2,0.7,0.2c0.8,0.1,1.5-0.3,1.9-1l15.6-27.9
	c0.5-0.9,0.2-2.1-0.7-2.6c-0.9-0.5-2.1-0.2-2.6,0.7l-15.6,27.9C191.4,65.5,191.7,66.6,192.6,67.1z M154.1,54.5c1,0.1,2-0.6,2.1-1.7
	c0,0,0,0,0,0l3.7-31.6c0.2-1-0.5-2-1.6-2.2c-1-0.2-2,0.5-2.2,1.6c0,0.1,0,0.1,0,0.2l-3.7,31.6C152.3,53.5,153,54.4,154.1,54.5
	C154.1,54.5,154.1,54.5,154.1,54.5z M79.5,72.2c3-9.2,5.8-20.6,0.7-27.8c-1.5-2.1-3.8-3.5-6.3-4c-2.8-0.6-5.8,0-8.2,1.7
	c-2.5,1.8-3.5,4.7-3.9,7.3c-2.6-0.4-5.7-0.5-8.2,1.3l0,0c-4.6,3.4-5.7,9.8-2.5,14.5c5.1,7.1,16.9,8.2,26.6,8.4l0,0
	C78.6,73.6,79.3,73,79.5,72.2z M55.9,53.8c1.4-1,3.8-1.1,7.2-0.2c0.5,0.1,1.1,0,1.6-0.3c0.5-0.3,0.7-0.8,0.8-1.4
	c0.3-3.4,1.1-5.6,2.6-6.6c1.5-1.1,3.4-1.5,5.2-1c1.6,0.3,3,1.2,4,2.5c3.9,5.5,1.6,15.5-0.8,23.1c-7.9-0.2-18.2-1.3-22.1-6.8
	C52.3,60,53,55.9,55.9,53.8L55.9,53.8z"/>
</svg>
