<svg xmlns="http://www.w3.org/2000/svg" viewBox="0 0 2000 200"><defs><style>.cls-1{fill:#e97c1d;}.cls-2{fill:#e98316;}.cls-3{fill:#ea8626;}</style></defs><g id="Calque_1" data-name="Calque 1"><rect class="cls-1" width="2000" height="200"/></g><g id="Calque_2" data-name="Calque 2"><path class="cls-1" d="M1478.1,131.54c-6.46-5.38-12.72-10.94-20.29-15.69-4.61-2.89-8-6.57-12.7-9.41-9.68-5.79-18.92-11.9-28.82-17.55q-17.7-10.1-36.71-19c-12.37-5.74-25-11.21-38.3-16-9.38-3.41-18.78-6.8-28.35-10q-21-6.93-42.86-12.6c-13.3-3.48-26.78-6.59-40.34-9.54-21-4.57-42.35-8.25-63.9-11.41-21-3.09-42.16-5.43-63.4-7.45-11.62-1.11-23.27-2.26-35-2.73-1.37,0-2.73-.14-4.1-.21H372.56c3.42,2.06,6.9,4.07,10.5,6A424.41,424.41,0,0,0,424.91,25.4c18.48,7.47,37.78,13.79,57.47,19.64,20.88,6.21,42.24,11.56,63.68,16.76,17,4.12,34.28,7.61,51.31,11.64,25.09,6,50.42,11.44,75.09,18.23,16.73,4.6,33.37,9.35,49.55,14.76,12.59,4.2,24.77,9,36.77,14,10.71,4.46,21.05,9.3,30.9,14.52a405,405,0,0,1,43.47,26.69q11.28,7.94,22.17,16.12c9.54,7.2,18.68,14.65,27.52,22.26H996.15c-4.07-4.73-8.22-9.43-12.56-14.05-11.45-12.2-24.14-23.8-40-33.59a303.48,303.48,0,0,0-50.42-24.43c-11.09-4.26-22.18-8.51-33.74-12.13-20.33-6.39-40.58-12.91-61.12-19-8.85-2.63-17.4-5.74-26.11-8.58-12-3.93-23.52-8.47-34.7-13.31-13.74-5.94-27.34-12.2-37.75-21-5.23-4.41-8.94-9.31-9.72-15-1.1-8.16,3.81-14.3,14-18.51,7.79-3.23,16.49-4.44,25.4-5.34,10.47-1.06,20.71-.1,31.12.56,15.49,1,31,2,46.34,3.5,25.25,2.39,49.94,6.12,73.33,13.6,21.65,6.93,43.4,13.72,64.75,21.07q32.77,11.3,64.19,24.26c9.88,4.07,20.39,7.46,30.6,11.17,14.59,5.29,29.45,10.2,44.22,15.25,12,4.12,24.1,8.22,36.3,12.14,18.54,6,36.87,12.22,55.07,18.65,15.49,5.48,30.73,11.29,45.84,17.26,20.06,7.93,39.33,16.66,58.24,25.76,9.6,4.62,18.57,9.81,27.68,14.87,4,2.23,7.91,4.54,11.76,6.88H1545q-11.89-14.43-24.9-28.43A459,459,0,0,0,1478.1,131.54ZM1373.86,120.1c-.44,2.25-1.78,3.15-5.11,3.45-6.77.59-12.82-.59-17.92-3.7-11.84-7.23-23.45-14.65-35.51-21.71-15-8.74-28.88-18.25-44-26.82A167.07,167.07,0,0,0,1249,60.57c-1.87-.72-5.14-1.41-3.91-3.16,1.52-2.18,4.27-.47,6.34.15,16,4.81,31.91,9.61,47.79,14.53a212.42,212.42,0,0,1,38.81,16.75,288,288,0,0,1,29.34,18.29c4,2.87,7.39,6,6.47,10.39A13.14,13.14,0,0,1,1373.86,120.1Zm31.94,21.09c-.63,3-4.5,5-9.38,4.91-4.23-.08-8.3-2.28-10-5.42a6,6,0,0,1,2.17-8.26c3-1.66,6.46-1.26,9.69-.41C1403,133.26,1406.53,137.75,1405.8,141.19Zm9.79,17.67c-4.15-.15-8.08-3.07-8.09-6,0-2.42,2.92-4.38,6.51-4.35,4.27,0,8,2.81,7.83,5.92C1421.73,157.13,1419.09,159,1415.59,158.86Z" transform="translate(0)"/><path class="cls-1" d="M1886.82,178c-16.69-12.08-31.35-25.18-43.65-39.56s-22.46-29.6-31.68-45c-8.57-14.37-16.2-29-23.44-43.68-8.19-16.65-16.37-33.29-25.31-49.75H1508.82q10.14,10.49,19.63,21.24c13.55,15.4,26.68,31,39.14,46.8,6,7.63,11.65,15.39,17.44,23.09,5.61,7.45,11.35,14.87,16.85,22.36,4.91,6.7,9.59,13.47,14.34,20.22,2.62,3.73,5.07,7.51,7.78,11.2,10.42,14.23,20.07,28.7,30,43.06q4.18,6,8.46,12H1769c-8.16-10.23-14-21.13-16.86-32.94-1.46-6.16-1.62-12.36,3-18.15,4.8-6,16.06-7.55,23.75-3.12,4.63,2.68,7.78,6,9.2,10a53.11,53.11,0,0,1,2.26,6.8c1.64,8,7.77,14.4,15.63,20.23A215.77,215.77,0,0,0,1833.79,200h92.81q-9.94-4.53-19.38-9.63A185.89,185.89,0,0,1,1886.82,178Zm-153-83.3c-4.21-.09-8.62-2.78-8.45-5.17s2.44-3.9,5.72-3.86c4,0,7.57,2.92,7.34,5.82C1738.3,93.41,1736.34,94.78,1733.84,94.73Zm18.22,36.61c-5.7.08-10.59-3-10.48-6.66.1-3.23,4.59-6.44,9-6.41,5.64,0,11,3.21,11,6.51S1756.7,131.29,1752.06,131.34Z" transform="translate(0)"/><path class="cls-2" d="M1624,144.91c-2.71-3.69-5.16-7.47-7.78-11.2-4.75-6.75-9.43-13.52-14.34-20.22-5.5-7.49-11.24-14.91-16.85-22.36-5.79-7.7-11.43-15.46-17.44-23.09-12.46-15.83-25.59-31.4-39.14-46.8Q1519,10.47,1508.82,0H1404.67l2,1.57c5.67,4.5,11.18,9.1,16.72,13.67,7.12,5.86,13.44,12.17,20,18.31a525.89,525.89,0,0,1,37.88,39.57c7,8,13.39,16.2,20,24.36.86,1.07,2.18,2.12,1.63,4.14-6.14-4-9.86-8.54-14.49-12.59-8.16-7.13-16.68-14-25.33-20.88-10.18-8.06-21.55-15.3-32.63-22.73-7-4.69-14.76-8.89-22.4-13.12-10.88-6-21.7-12.13-33.52-17.34-7.8-3.44-15.57-6.92-23.45-10.28-3.78-1.62-7.61-3.16-11.46-4.68H1063.3c1.37.07,2.73.16,4.1.21,11.76.47,23.41,1.62,35,2.73,21.24,2,42.42,4.36,63.4,7.45,21.55,3.16,42.9,6.84,63.9,11.41,13.56,2.95,27,6.06,40.34,9.54q21.83,5.72,42.86,12.6c9.57,3.15,19,6.54,28.35,10,13.26,4.83,25.93,10.3,38.3,16q19,8.83,36.71,19c9.9,5.65,19.14,11.76,28.82,17.55,4.73,2.84,8.09,6.52,12.7,9.41,7.57,4.75,13.83,10.31,20.29,15.69a459,459,0,0,1,42,40q13,14,24.9,28.43h117.5q-4.26-6-8.46-12C1644.07,173.61,1634.42,159.14,1624,144.91Z" transform="translate(0)"/><path class="cls-1" d="M1910.26,2.31c5.81,8,11.57,16,17.6,23.91,10.14,13.31,21.25,26.24,33,38.91q15.11,16.22,32.35,31.41c2,1.72,3.64,3.65,6.75,4.6V0h-91.39C1909.16.77,1909.7,1.54,1910.26,2.31Z" transform="translate(0)"/><path class="cls-3" d="M1960.9,65.13c-11.79-12.67-22.9-25.6-33-38.91-6-7.92-11.79-15.92-17.6-23.91-.56-.77-1.1-1.54-1.65-2.31H1762.74c8.94,16.46,17.12,33.1,25.31,49.75,7.24,14.7,14.87,29.31,23.44,43.68,9.22,15.44,19.32,30.59,31.68,45s27,27.48,43.65,39.56a185.89,185.89,0,0,0,20.4,12.34q9.43,5.1,19.38,9.63H2000V101.14c-3.11-1-4.8-2.88-6.75-4.6Q1976,81.36,1960.9,65.13Z" transform="translate(0)"/><path class="cls-3" d="M321.83,153.35a307.58,307.58,0,0,1-23.12-26.67,301.91,301.91,0,0,1-35.65-57.76,248,248,0,0,1-14.78-39.39C245.6,19.72,243.49,9.86,241.44,0H116.56c-8.29,15.56-16.2,31.22-21.09,47.51a96.94,96.94,0,0,0-4.08,37.35,68.74,68.74,0,0,0,8.33,27.21c3.36,6,6.83,12,11.86,17.56a150,150,0,0,0,16.62,15.68c15.33,12.36,34,22,53.57,31,16.67,7.68,34.19,14.41,51.62,21.24l6.26,2.45H375.34c-8.44-6.12-16.27-12.59-24.13-19.07A372.62,372.62,0,0,1,321.83,153.35Zm-72.33-10.2c-1.68,5.46-9.62,12.3-21.25,12.39-10.76.08-18.79-3.23-26.6-7.56-10.94-6-19.88-13.47-29.55-20.34-14.06-10-26.57-20.86-35.36-33.52-7.32-10.55-11.68-21.51-11.5-33.27.9-12.2,3.91-24.1,11.85-35.18,4.24-5.92,10.59-10.71,19.33-13.76,15.83-5.53,30.63-2.42,41.16,6.37a45.41,45.41,0,0,1,15.74,26.21c2.23,10.21,2.82,20.55,5.57,30.7a103.28,103.28,0,0,0,19.31,38.29,113.77,113.77,0,0,1,9.05,13.36C250.37,132.1,251.21,137.59,249.5,143.15Z" transform="translate(0)"/><path class="cls-2" d="M833.15,161.62a405,405,0,0,0-43.47-26.69c-9.85-5.22-20.19-10.06-30.9-14.52-12-5-24.18-9.78-36.77-14-16.18-5.41-32.82-10.16-49.55-14.76-24.67-6.79-50-12.28-75.09-18.23-17-4-34.33-7.52-51.31-11.64-21.44-5.2-42.8-10.55-63.68-16.76-19.69-5.85-39-12.17-57.47-19.64A424.41,424.41,0,0,1,383.06,6c-3.6-1.92-7.08-3.93-10.5-6H241.44c2.05,9.86,4.16,19.72,6.84,29.53a248,248,0,0,0,14.78,39.39,301.91,301.91,0,0,0,35.65,57.76,307.58,307.58,0,0,0,23.12,26.67,372.62,372.62,0,0,0,29.38,27.58c7.86,6.48,15.69,12.95,24.13,19.07h57.4c-12.54-7.64-24.53-15.68-35.84-24.14C374,158.73,353.33,140.37,336,120.41c-10.91-12.56-21.71-25.2-29.34-38.9-3.74-6.7-6-13.65-3.36-20.85,2.61-7,8.23-12.67,17.34-16.61,18.67-8.08,37.74-7.13,57.13-1.37,13.19,3.92,24.64,9.72,36.1,15.45A459.47,459.47,0,0,0,458.93,77.7c21.71,8.09,44.59,14.32,67.74,20.16,20.12,5.08,40.55,9.54,61,14.07,23.13,5.13,46.16,10.46,68.77,16.52,16.58,4.44,32.85,9.42,48.52,15.3a388.43,388.43,0,0,1,42.71,18.51A183.81,183.81,0,0,1,768,174c3,2.13,6.77,3.72,9.83,5.87,9.3,6.55,18.37,13.22,27.12,20.09h77.91c-8.84-7.61-18-15.06-27.52-22.26Q844.46,169.55,833.15,161.62Z" transform="translate(0)"/><path class="cls-1" d="M768,174a183.81,183.81,0,0,0-20.36-11.78,388.43,388.43,0,0,0-42.71-18.51c-15.67-5.88-31.94-10.86-48.52-15.3-22.61-6.06-45.64-11.39-68.77-16.52-20.4-4.53-40.83-9-61-14.07-23.15-5.84-46-12.07-67.74-20.16a459.47,459.47,0,0,1-45.08-19.57c-11.46-5.73-22.91-11.53-36.1-15.45-19.39-5.76-38.46-6.71-57.13,1.37-9.11,3.94-14.73,9.58-17.34,16.61-2.67,7.2-.38,14.15,3.36,20.85,7.63,13.7,18.43,26.34,29.34,38.9,17.35,20,38,38.32,60.92,55.45,11.31,8.46,23.3,16.5,35.84,24.14H558.61q-2.28-1.56-4.49-3.19c-10.19-7.51-18.66-15.93-26.71-24.54-2.89-3.09-3.69-6.6-2.58-10.07,1.3-4.08,5.78-6.6,11.2-8.15A44.64,44.64,0,0,1,550,152.3a242.6,242.6,0,0,1,44.48,5.95,134,134,0,0,1,40.77,16.57C646.52,181.9,656,190,660.12,200H804.93c-8.75-6.87-17.82-13.54-27.12-20.09C774.75,177.76,771,176.17,768,174Z" transform="translate(0)"/><path class="cls-1" d="M110.78,176.16c-4.49-2.78-9.14-5.43-13.39-8.39-17.64-12.23-31.8-26-39.92-42.35-3.95-7.94-7-16.07-7.43-24.58-.19-3.59-1.19-7.17-1-10.8A126.82,126.82,0,0,1,54.57,58.2C60.33,39.55,69.76,21.69,79.48,3.87c.71-1.29,1.41-2.58,2.11-3.87H0V200H38.07q-1.95-3.65-3.59-7.37c-2-4.56-1.73-9.24-1.16-13.85s7.83-9.29,14.83-10a11.82,11.82,0,0,1,6.45,1.1,9.5,9.5,0,0,1,3.71,2.89c7.23,10.1,18.17,18.34,28.7,26.82.16.13.33.25.48.38h68.25c-7-3.39-14-6.8-20.82-10.31C126.59,185.42,118.51,180.94,110.78,176.16Z" transform="translate(0)"/><path class="cls-2" d="M1279.4,178.25c-18.91-9.1-38.18-17.83-58.24-25.76-15.11-6-30.35-11.78-45.84-17.26-18.2-6.43-36.53-12.69-55.07-18.65-12.2-3.92-24.26-8-36.3-12.14-14.77-5-29.63-10-44.22-15.25-10.21-3.71-20.72-7.1-30.6-11.17q-31.46-12.93-64.19-24.26c-21.35-7.35-43.1-14.14-64.75-21.07-23.39-7.48-48.08-11.21-73.33-13.6-15.38-1.46-30.85-2.52-46.34-3.5C750.11,14.93,739.87,14,729.4,15c-8.91.9-17.61,2.11-25.4,5.34-10.19,4.21-15.1,10.35-14,18.51.78,5.72,4.49,10.62,9.72,15,10.41,8.79,24,15,37.75,21,11.18,4.84,22.68,9.38,34.7,13.31,8.71,2.84,17.26,6,26.11,8.58,20.54,6.1,40.79,12.62,61.12,19,11.56,3.62,22.65,7.87,33.74,12.13a303.48,303.48,0,0,1,50.42,24.43c15.89,9.79,28.58,21.39,40,33.59,4.34,4.62,8.49,9.32,12.56,14.05h49.24a232,232,0,0,1-22.11-23.65c-5.3-6.57-10.7-13.1-14.61-20.13-2.89-5.19-3.72-10.39-1.17-15.9,3.09-6.67,13.82-11.86,25.35-9.91,23.65,4,46.71,9,69.4,15.08q30.3,8.06,59.06,18.32c10.57,3.8,20.86,8,31.07,12.2,14.61,6,28.68,12.67,42.27,19.71,2.72,1.41,5.4,2.84,8.08,4.28h76.11c-3.85-2.34-7.75-4.65-11.76-6.88C1298,188.06,1289,182.87,1279.4,178.25ZM924.13,98.05a91.06,91.06,0,0,1-20.35.36c-7.9-.6-15.86-.79-23.7-1.83a279.47,279.47,0,0,1-40.26-8.14,254.78,254.78,0,0,1-36-13.18,64,64,0,0,1-12.63-7.18c-3.58-2.76-6.29-5.81-6.68-9.61-.67-6.43,5-11,14.44-11.54,3-.17,6.07,0,9.1,0a244.56,244.56,0,0,1,53,6.17,232.83,232.83,0,0,1,43,14,162.12,162.12,0,0,1,25,13.37,26.55,26.55,0,0,1,3.69,2.93C939.28,89.63,935.26,96.4,924.13,98.05Z" transform="translate(0)"/><path class="cls-2" d="M181.77,176.31c-19.54-9-38.24-18.64-53.57-31a150,150,0,0,1-16.62-15.68c-5-5.52-8.5-11.52-11.86-17.56a68.74,68.74,0,0,1-8.33-27.21,96.94,96.94,0,0,1,4.08-37.35c4.89-16.29,12.8-31.95,21.09-47.51h-35c-.7,1.29-1.4,2.58-2.11,3.87C69.76,21.69,60.33,39.55,54.57,58.2A126.82,126.82,0,0,0,49,90c-.17,3.63.83,7.21,1,10.8.43,8.51,3.48,16.64,7.43,24.58,8.12,16.32,22.28,30.12,39.92,42.35,4.25,3,8.9,5.61,13.39,8.39,7.73,4.78,15.81,9.26,24.14,13.53,6.86,3.51,13.83,6.92,20.82,10.31h83.91l-6.26-2.45C216,190.72,198.44,184,181.77,176.31Z" transform="translate(0)"/><path class="cls-3" d="M58.31,172.8a9.5,9.5,0,0,0-3.71-2.89,11.82,11.82,0,0,0-6.45-1.1c-7,.68-14.26,5.25-14.83,10s-.86,9.29,1.16,13.85q1.64,3.72,3.59,7.37H87.49c-.15-.13-.32-.25-.48-.38C76.48,191.14,65.54,182.9,58.31,172.8Z" transform="translate(0)"/><path class="cls-3" d="M1367.41,107.13a288,288,0,0,0-29.34-18.29,212.42,212.42,0,0,0-38.81-16.75c-15.88-4.92-31.84-9.72-47.79-14.53-2.07-.62-4.82-2.33-6.34-.15-1.23,1.75,2,2.44,3.91,3.16a167.07,167.07,0,0,1,22.24,10.75c15.16,8.57,29.09,18.08,44,26.82,12.06,7.06,23.67,14.48,35.51,21.71,5.1,3.11,11.15,4.29,17.92,3.7,3.33-.3,4.67-1.2,5.11-3.45a13.14,13.14,0,0,0,0-2.58C1374.8,113.08,1371.45,110,1367.41,107.13Z" transform="translate(0)"/><path class="cls-3" d="M1398.26,132c-3.23-.85-6.72-1.25-9.69.41a6,6,0,0,0-2.17,8.26c1.72,3.14,5.79,5.34,10,5.42,4.88.09,8.75-1.93,9.38-4.91C1406.53,137.75,1403,133.26,1398.26,132Z" transform="translate(0)"/><path class="cls-3" d="M1414,148.52c-3.59,0-6.52,1.93-6.51,4.35,0,2.92,3.94,5.84,8.09,6,3.5.14,6.14-1.73,6.25-4.42C1422,151.33,1418.28,148.55,1414,148.52Z" transform="translate(0)"/><path class="cls-3" d="M1790.28,162.6a53.11,53.11,0,0,0-2.26-6.8c-1.42-4-4.57-7.33-9.2-10-7.69-4.43-19-2.93-23.75,3.12-4.6,5.79-4.44,12-3,18.15,2.81,11.81,8.7,22.71,16.86,32.94h64.84a215.77,215.77,0,0,1-27.88-17.17C1798.05,177,1791.92,170.64,1790.28,162.6Z" transform="translate(0)"/><path class="cls-3" d="M1750.53,118.27c-4.36,0-8.85,3.18-9,6.41-.11,3.62,4.78,6.74,10.48,6.66,4.64-.05,9.48-3.41,9.46-6.56S1756.17,118.32,1750.53,118.27Z" transform="translate(0)"/><path class="cls-3" d="M1731.11,85.7c-3.28,0-5.55,1.5-5.72,3.86s4.24,5.08,8.45,5.17c2.5,0,4.46-1.32,4.61-3.21C1738.68,88.62,1735.06,85.75,1731.11,85.7Z" transform="translate(0)"/><path class="cls-1" d="M1374.52,15c11.82,5.21,22.64,11.31,33.52,17.34,7.64,4.23,15.4,8.43,22.4,13.12,11.08,7.43,22.45,14.67,32.63,22.73C1471.72,75,1480.24,81.9,1488.4,89c4.63,4,8.35,8.6,14.49,12.59.55-2-.77-3.07-1.63-4.14-6.56-8.16-12.94-16.37-20-24.36a525.89,525.89,0,0,0-37.88-39.57c-6.61-6.14-12.93-12.45-20-18.31-5.54-4.57-11.05-9.17-16.72-13.67l-2-1.57h-65.06c3.85,1.52,7.68,3.06,11.46,4.68C1359,8,1366.72,11.52,1374.52,15Z" transform="translate(0)"/><path class="cls-1" d="M238.2,113.48a103.28,103.28,0,0,1-19.31-38.29c-2.75-10.15-3.34-20.49-5.57-30.7a45.41,45.41,0,0,0-15.74-26.21c-10.53-8.79-25.33-11.9-41.16-6.37-8.74,3.05-15.09,7.84-19.33,13.76-7.94,11.08-11,23-11.85,35.18-.18,11.76,4.18,22.72,11.5,33.27,8.79,12.66,21.3,23.53,35.36,33.52,9.67,6.87,18.61,14.29,29.55,20.34,7.81,4.33,15.84,7.64,26.6,7.56,11.63-.09,19.57-6.93,21.25-12.39s.87-11.05-2.25-16.31A113.77,113.77,0,0,0,238.2,113.48Z" transform="translate(0)"/><path class="cls-3" d="M635.2,174.82a134,134,0,0,0-40.77-16.57A242.6,242.6,0,0,0,550,152.3,44.64,44.64,0,0,0,536,154.05c-5.42,1.55-9.9,4.07-11.2,8.15-1.11,3.47-.31,7,2.58,10.07,8.05,8.61,16.52,17,26.71,24.54q2.21,1.63,4.49,3.19H660.12C656,190,646.52,181.9,635.2,174.82Z" transform="translate(0)"/><path class="cls-1" d="M1192.38,176c-10.21-4.23-20.5-8.4-31.07-12.2q-28.74-10.32-59.06-18.32c-22.69-6-45.75-11.07-69.4-15.08-11.53-1.95-22.26,3.24-25.35,9.91-2.55,5.51-1.72,10.71,1.17,15.9,3.91,7,9.31,13.56,14.61,20.13A232,232,0,0,0,1045.39,200h197.34c-2.68-1.44-5.36-2.87-8.08-4.28C1221.06,188.68,1207,182.05,1192.38,176Z" transform="translate(0)"/><path class="cls-1" d="M929.06,80.44a162.12,162.12,0,0,0-25-13.37,232.83,232.83,0,0,0-43-14,244.56,244.56,0,0,0-53-6.17c-3,0-6.09-.15-9.1,0-9.46.54-15.11,5.11-14.44,11.54.39,3.8,3.1,6.85,6.68,9.61a64,64,0,0,0,12.63,7.18,254.78,254.78,0,0,0,36,13.18,279.47,279.47,0,0,0,40.26,8.14c7.84,1,15.8,1.23,23.7,1.83a91.06,91.06,0,0,0,20.35-.36c11.13-1.65,15.15-8.42,8.62-14.68A26.55,26.55,0,0,0,929.06,80.44Z" transform="translate(0)"/></g></svg>