<?xml version="1.0" encoding="utf-8"?>
<!-- Generator: Adobe Illustrator 24.1.2, SVG Export Plug-In . SVG Version: 6.00 Build 0)  -->
<svg version="1.1" xmlns="http://www.w3.org/2000/svg" xmlns:xlink="http://www.w3.org/1999/xlink" x="0px" y="0px"
	 viewBox="0 0 1920 920" style="enable-background:new 0 0 1920 920;" xml:space="preserve">
<style type="text/css">
	.st0{fill:#E97C1D;}
	.st1{fill:#E98316;}
	.st2{fill:#EA8626;}
</style>
<g id="Calque_2">
	<rect class="st0" width="1919.77" height="920"/>
</g>
<g id="Calque_1">
	<g>
		<path class="st0" d="M54.89,216.13C73,229.26,89,244.6,104.47,260.57c5.31,5.48,10.02,11.55,15.04,17.31
			c8.15,9.36,15.49,19.34,22.59,29.49c10.66,15.23,20.5,30.98,30.2,46.83c10.28,16.8,19.35,34.26,29,51.4
			c6.43,11.43,12.14,23.26,18.38,34.8c7.19,13.31,14.72,26.43,21.88,39.75c6.74,12.52,13.66,24.94,20.93,37.15
			c4.66,7.83,9.5,15.55,14.34,23.28c10.85,17.32,22.76,33.89,35.49,49.86c5.78,7.25,11.81,14.34,18.31,20.98
			c11.86,12.11,23.73,24.23,37.06,34.75c12.74,10.05,26.21,19.09,40.18,27.39c17.74,10.54,36.26,19.46,55.16,27.72
			c20.05,8.76,40.55,16.32,61.13,23.66c16.29,5.82,32.91,10.74,49.25,16.43c24.09,8.39,48.4,16.14,72.08,25.73
			c16.06,6.5,32.03,13.21,47.56,20.83c12.09,5.93,23.78,12.68,35.3,19.74c10.28,6.3,20.21,13.13,29.67,20.5
			c14.78,11.53,28.66,24.15,41.72,37.67c7.22,7.47,14.33,15.04,21.28,22.75c9.16,10.16,17.93,20.68,26.42,31.42h108.76
			c-3.91-6.68-7.89-13.31-12.05-19.83c-10.99-17.23-23.18-33.6-38.42-47.41c-14.78-13.38-31.04-24.67-48.4-34.48
			c-10.64-6.01-21.29-12.01-32.38-17.13c-19.52-9.01-38.96-18.22-58.67-26.83c-8.5-3.71-16.7-8.1-25.06-12.11
			c-11.54-5.54-22.58-11.96-33.31-18.78c-13.19-8.39-26.24-17.22-36.24-29.63c-5.02-6.23-8.58-13.14-9.33-21.21
			c-1.06-11.51,3.66-20.18,13.44-26.13c7.48-4.55,15.83-6.26,24.38-7.53c10.05-1.5,19.89-0.13,29.88,0.79
			c14.86,1.38,29.72,2.88,44.48,4.94c24.24,3.38,47.93,8.63,70.38,19.2c20.78,9.78,41.66,19.37,62.15,29.74
			c20.97,10.62,41.49,22.07,61.62,34.24c9.49,5.74,19.58,10.52,29.38,15.76c14,7.48,28.27,14.41,42.44,21.54
			c11.56,5.82,23.14,11.6,34.85,17.13c17.79,8.4,35.39,17.24,52.85,26.32c14.87,7.73,29.5,15.93,44,24.36
			c19.26,11.19,37.76,23.51,55.91,36.36c9.21,6.52,17.82,13.84,26.56,20.98c3.85,3.15,7.59,6.4,11.29,9.71h217.09
			c-7.62-13.58-15.56-26.98-23.9-40.13c-12.4-19.55-25.67-38.55-40.32-56.5c-6.2-7.6-12.21-15.44-19.47-22.14
			c-4.42-4.08-7.65-9.28-12.19-13.28c-9.29-8.18-18.16-16.8-27.66-24.77c-11.32-9.51-23.06-18.46-35.24-26.76
			c-11.88-8.11-24.04-15.83-36.77-22.63c-9.01-4.82-18.03-9.6-27.21-14.05c-13.45-6.51-27.17-12.4-41.14-17.78
			c-12.77-4.92-25.71-9.31-38.72-13.47c-20.16-6.45-40.65-11.64-61.33-16.11c-20.14-4.35-40.47-7.65-60.86-10.51
			c-11.16-1.56-22.33-3.19-33.63-3.85c-9.8-0.57-19.54-1.97-29.32-2.92c-5.43-0.53-10.92-0.81-16.33-1
			c-9.28-0.32-18.5-1.51-27.82-1.5c-12.38,0.01-24.76-0.72-37.12-1.32c-9.1-0.45-18.2-0.46-27.29-0.79
			c-10.18-0.36-20.36-0.85-30.49-1.98c-0.54-0.06-1.09-0.16-1.63-0.13c-11.68,0.59-23.27-1.83-34.94-1.12
			c-9.03,0.55-17.86-1.05-26.58-2.76c-20.38-4-40.76-8.15-60.94-13.06c-18.93-4.61-37.58-10.3-56.25-15.9
			c-18.69-5.61-37.17-11.8-55.44-18.6c-21.69-8.07-43.1-16.88-64.3-26.18c-13.36-5.86-26.62-11.93-39.62-18.49
			c-21.79-10.99-43.65-21.87-64.53-34.57c-10.28-6.25-20.8-12.09-31-18.48c-11.88-7.44-23.59-15.16-35.24-22.96
			c-12.11-8.1-24.1-16.36-35.78-25.08c-13.28-9.92-26.57-19.82-39.4-30.31c-10.29-8.41-20.82-16.57-30.65-25.49
			c-8.49-7.71-17.31-15.04-25.71-22.88c-11.85-11.07-23.55-22.29-35.18-33.56c-13.85-13.42-27.14-27.51-39.83-42.04
			c-12.09-13.84-24.13-27.74-35.9-41.87c-19.26-23.13-37.16-47.25-54.53-71.8c-8-11.3-15.95-22.64-23.47-34.26
			C52.31,108.91,39.57,88.72,27.88,67.9c-8.03-14.3-16.53-28.35-23.7-43.12C3.28,22.93,2.25,21.22,0,20.8v160.91
			c1.87,0.07,3.56,0.65,5.15,1.63C22.1,193.71,38.78,204.44,54.89,216.13z M1357.28,847.34c4.1,0.04,7.63,3.97,7.52,8.36
			c-0.1,3.8-2.63,6.43-6,6.25c-3.98-0.22-7.75-4.34-7.76-8.46C1351.03,850.06,1353.84,847.3,1357.28,847.34z M1332.87,824.61
			c2.85-2.34,6.2-1.77,9.3-0.57c4.54,1.76,7.94,8.1,7.24,12.96c-0.6,4.2-4.32,7.06-9.01,6.93c-4.05-0.11-7.96-3.22-9.61-7.65
			C1329.23,832.11,1330,826.96,1332.87,824.61z M1195.18,718.74c1.47-3.08,4.1-0.67,6.09,0.21c15.31,6.79,30.63,13.56,45.88,20.5
			c13.5,6.15,25.7,14.42,37.25,23.65c9.97,7.96,19.34,16.59,28.16,25.81c3.88,4.05,7.1,8.4,6.21,14.67c0,1.09,0.14,2.38-0.03,3.63
			c-0.42,3.18-1.71,4.46-4.9,4.87c-6.5,0.84-12.3-0.83-17.2-5.22c-11.37-10.2-22.51-20.67-34.09-30.63
			c-14.34-12.34-27.71-25.77-42.27-37.85c-6.71-5.57-13.7-10.86-21.35-15.18C1197.14,722.19,1194,721.22,1195.18,718.74z"/>
		<path class="st0" d="M318.7,57.88c5.81,15.54,11.76,31.03,17.99,46.4c2.68,6.62,4.73,13.4,6.62,20.24
			c5.07,18.32,11.9,35.95,19.64,53.3c8.2,18.37,17.94,35.87,28.82,52.72c8.7,13.47,18.38,26.28,28.83,38.48
			c0.59,0.69,1.22,1.36,1.86,2.01c5.14,5.28,7.67,12.48,14.24,16.95c5.93,4.04,10.37,10.21,15.81,15.05
			c11.16,9.92,22.5,19.63,34.46,28.61c23.57,17.69,48.83,32.58,75.62,44.71c14.58,6.6,29.46,12.58,44.72,17.68
			c24.99,8.34,50.4,14.7,76.33,19.02c13.46,2.24,27,4,40.62,5.22c19.08,1.7,38.18,2.54,57.3,2c34.05-0.96,67.59-5.33,99.68-17.41
			c15.89-5.98,31.16-13.35,44.91-23.51c1.32-0.97,2.99-1.74,3.5-3.35c1.02-3.26,3.38-3.54,6.32-3.93
			c9.27-1.25,18.61-0.31,27.83-1.13c20.77-1.85,41.55-0.54,62.32-0.92c10.75-0.2,21.42,1.22,32.13,1.9
			c14.01,0.89,27.91,2.69,41.78,4.66c10.1,1.44,20.12,3.42,30.03,5.87c11.67,2.88,23.25,6.06,34.66,9.91
			c12.79,4.31,25.37,9.07,37.72,14.55c11.35,5.04,22.41,10.62,33.18,16.75c13.16,7.49,25.89,15.68,38.22,24.48
			c7.27,5.19,14.54,10.37,21.64,15.78c5.36,4.08,10.65,8.28,15.62,12.82c15.19,13.89,30.83,27.35,44.76,42.55
			c9.95,10.87,19.77,21.87,29.29,33.14c14.83,17.56,28.64,35.88,42.01,54.55c14.12,19.71,27.51,39.91,39.95,60.71
			c13.01,21.74,25.61,43.71,37.57,66.06c5.77,10.77,11.18,21.72,16.74,32.59c5.38,10.52,10.89,20.98,16.17,31.56
			c4.72,9.45,9.21,19.02,13.77,28.55c2.52,5.26,4.86,10.59,7.46,15.81c10,20.08,19.26,40.5,28.84,60.78
			c2.68,5.67,5.39,11.33,8.12,16.97h102.18c-7.83-14.44-13.48-29.83-16.18-46.5c-1.41-8.69-1.55-17.44,2.85-25.61
			c4.61-8.55,15.42-10.67,22.8-4.4c4.44,3.77,7.47,8.43,8.83,14.12c0.76,3.19,1.71,6.36,2.16,9.6c1.58,11.35,7.46,20.32,15,28.55
			c8.2,8.95,17.26,16.85,26.76,24.24h89.09c-6.36-4.26-12.56-8.8-18.6-13.59c-6.84-5.44-13.6-11.04-19.58-17.42
			c-16.02-17.05-30.1-35.54-41.9-55.83c-11.86-20.4-21.56-41.78-30.41-63.58c-8.23-20.27-15.55-40.9-22.5-61.65
			c-11.93-35.63-23.8-71.28-38.31-105.97c-8.16-19.52-17.45-38.51-28.17-56.78c-9.05-15.43-18.97-30.31-29.8-44.53
			c-8.27-10.86-16.94-21.4-26.12-31.56c-7.96-8.81-16.24-17.28-24.78-25.47c-15.66-15.02-32.45-28.73-50.13-41.34
			c-13.68-9.76-27.8-18.81-42.44-27c-10.65-5.96-21.65-11.36-32.71-16.54c-15.04-7.04-30.65-12.69-46.42-17.89
			c-21.54-7.1-43.52-12.45-65.97-15.32c-13.32-1.71-26.63-4.1-40.21-3.86c-5.04,0.09-10.13-1.36-15.24-0.92
			c-25.12,2.19-50.33-0.04-75.42,1.36c-11.07,0.62-22.25-0.36-33.24,1.77c-0.88,0.17-1.82,0.16-2.73,0.11
			c-11.14-0.6-22.24,0.63-33.29,1.35c-32.41,2.11-64.83,2.22-97.26,1.75c-8.85-0.13-17.79-0.74-26.68-1.65
			c-8.5-0.87-17.03-1.58-25.54-2.41c-14.52-1.42-28.92-3.59-43.28-6.04c-31.85-5.44-63.14-13.19-94.01-22.77
			c-27.56-8.56-54.42-18.85-80.83-30.43c-16.89-7.4-33.5-15.36-49.75-24.01c-19.31-10.27-38.14-21.38-56.48-33.34
			c-13.14-8.57-26.09-17.38-38.66-26.74c-13.73-10.22-27.37-20.59-40.33-31.81c-11.57-10.01-22.68-20.54-34.16-30.62
			c-13.49-11.84-25.5-25.05-37.57-38.17c-17.87-19.43-35.14-39.42-50.69-60.83c-3.53-4.86-7.32-9.54-10.77-14.47
			c-0.84-1.2-1.76-2.33-2.05-3.81H298.8c0.48,5.17,2.84,9.8,4.45,14.61C308.13,29.12,313.34,43.53,318.7,57.88z M1680.31,804.64
			c5.41,0.06,10.54,4.52,10.55,9.19c0.02,4.45-4.63,9.18-9.09,9.26c-5.47,0.1-10.16-4.29-10.06-9.41
			C1671.81,809.14,1676.12,804.6,1680.31,804.64z M1661.67,758.67c3.79,0.07,7.27,4.12,7.04,8.21c-0.15,2.67-2.03,4.6-4.42,4.53
			c-4.04-0.12-8.28-3.92-8.11-7.29C1656.34,760.78,1658.52,758.62,1661.67,758.67z M1384.48,467.46c1.55-5.8,5.31-10.7,10.18-13.34
			c1.46-0.79,3.02-1.38,4.65-1.74s3.33-0.47,5.06-0.3c0.37-0.02,0.74-0.04,1.1-0.04c0.73,0,1.45,0.03,2.15,0.11
			c0.71,0.08,1.4,0.19,2.09,0.33s1.36,0.32,2.03,0.53c3,0.93,5.82,2.41,8.57,4.01c5.83,3.39,11.47,7.2,16.35,11.83
			c6.74,6.39,14.17,12.04,20.33,19.04c5.31,6.04,10.65,12.31,12.1,20.44c2.26,12.67-0.32,24.24-9.74,33.71
			c-4.35,4.37-9.58,5.59-15.52,4.77c-11.29-1.56-20.45-7.42-28.83-14.57c-9.95-8.5-17.78-18.84-23.49-30.58
			c-3.81-7.83-7.39-15.88-7.04-25C1384.59,473.61,1383.64,470.62,1384.48,467.46z M504.04,238.63c8.2-0.58,15.5,1.94,22.25,6.17
			c7.7,4.82,14.94,10.38,22.21,15.8c0.99,0.74,1.92,1.51,2.8,2.33c6.13,5.7,9.41,13.26,9.08,22.27c0.39,8.11-3.06,13.99-8.28,17.25
			c-0.08,0.05-0.16,0.09-0.24,0.14c-0.51,0.31-1.04,0.6-1.58,0.86c-0.04,0.02-0.07,0.03-0.11,0.05c-0.97,0.45-1.98,0.82-3.02,1.11
			c-0.55,0.15-1.1,0.28-1.67,0.39c-0.41,0.08-0.82,0.15-1.24,0.2c-2.13,0.28-4.35,0.25-6.6-0.11
			c-19.88-3.18-36.26-12.76-47.62-29.85c-3.17-4.77-4.97-10.15-5.1-15.94C484.67,248.34,493.12,239.4,504.04,238.63z"/>
		<path class="st1" d="M4.17,24.78c7.18,14.77,15.67,28.82,23.7,43.12c11.7,20.83,24.44,41.01,37.41,61.05
			c7.52,11.62,15.47,22.96,23.47,34.26c17.37,24.54,35.27,48.67,54.53,71.8c11.77,14.13,23.81,28.03,35.9,41.87
			c12.69,14.53,25.98,28.62,39.83,42.04c11.63,11.27,23.34,22.5,35.18,33.56c8.39,7.84,17.21,15.17,25.71,22.88
			c9.83,8.93,20.36,17.08,30.65,25.49c12.83,10.49,26.12,20.4,39.4,30.31c11.68,8.72,23.68,16.98,35.78,25.08
			c11.65,7.8,23.36,15.52,35.24,22.96c10.19,6.38,20.72,12.23,31,18.48c20.88,12.7,42.75,23.58,64.53,34.57
			c13,6.56,26.27,12.63,39.62,18.49c21.2,9.3,42.61,18.11,64.3,26.18c18.27,6.8,36.76,13,55.44,18.6
			c18.67,5.6,37.33,11.29,56.25,15.9c20.18,4.91,40.55,9.07,60.94,13.06c8.72,1.71,17.54,3.31,26.58,2.76
			c11.67-0.71,23.26,1.71,34.94,1.12c0.54-0.03,1.09,0.07,1.63,0.13c10.13,1.13,20.31,1.61,30.49,1.98
			c9.09,0.33,18.19,0.34,27.29,0.79c12.35,0.6,24.74,1.33,37.12,1.32c9.31-0.01,18.53,1.18,27.82,1.5c5.41,0.19,10.9,0.47,16.33,1
			c9.78,0.95,19.52,2.35,29.32,2.92c11.3,0.66,22.47,2.28,33.63,3.85c20.39,2.86,40.72,6.16,60.86,10.51
			c20.68,4.47,41.18,9.66,61.33,16.11c13.02,4.16,25.95,8.55,38.72,13.47c13.97,5.38,27.68,11.27,41.14,17.78
			c9.19,4.45,18.21,9.23,27.21,14.05c12.72,6.81,24.89,14.53,36.77,22.63c12.18,8.31,23.91,17.26,35.24,26.76
			c9.5,7.97,18.37,16.6,27.66,24.77c4.54,4,7.77,9.19,12.19,13.28c7.26,6.71,13.27,14.55,19.47,22.14
			c14.65,17.94,27.92,36.94,40.32,56.5c8.34,13.16,16.29,26.55,23.9,40.13h112.78c-2.73-5.65-5.44-11.3-8.12-16.97
			c-9.58-20.28-18.84-40.7-28.84-60.78c-2.6-5.21-4.95-10.55-7.46-15.81c-4.56-9.53-9.05-19.09-13.77-28.55
			c-5.28-10.58-10.79-21.04-16.17-31.56c-5.56-10.87-10.97-21.81-16.74-32.59c-11.96-22.34-24.57-44.32-37.57-66.06
			c-12.44-20.8-25.83-41-39.95-60.71c-13.38-18.67-27.18-36.99-42.01-54.55c-9.52-11.27-19.34-22.27-29.29-33.14
			c-13.92-15.2-29.56-28.66-44.76-42.55c-4.96-4.54-10.26-8.74-15.62-12.82c-7.1-5.41-14.37-10.59-21.64-15.78
			c-12.33-8.8-25.06-16.99-38.22-24.48c-10.77-6.13-21.83-11.71-33.18-16.75c-12.35-5.48-24.93-10.24-37.72-14.55
			c-11.41-3.85-22.99-7.02-34.66-9.91c-9.91-2.45-19.94-4.43-30.03-5.87c-13.87-1.97-27.77-3.77-41.78-4.66
			c-10.71-0.68-21.39-2.1-32.13-1.9c-20.77,0.38-41.55-0.93-62.32,0.92c-9.22,0.82-18.56-0.11-27.83,1.13
			c-2.94,0.4-5.29,0.68-6.32,3.93c-0.51,1.61-2.18,2.38-3.5,3.35c-13.76,10.16-29.02,17.52-44.91,23.51
			c-32.1,12.09-65.63,16.45-99.68,17.41c-19.12,0.54-38.22-0.31-57.3-2c-13.62-1.21-27.16-2.97-40.62-5.22
			c-25.93-4.32-51.35-10.68-76.33-19.02c-15.26-5.1-30.14-11.08-44.72-17.68c-26.79-12.13-52.05-27.03-75.62-44.71
			c-11.96-8.97-23.3-18.68-34.46-28.61c-5.44-4.84-9.88-11.02-15.81-15.05c-6.56-4.46-9.09-11.67-14.24-16.95
			c-0.64-0.65-1.27-1.32-1.86-2.01c-10.44-12.2-20.13-25.01-28.83-38.48c-10.88-16.85-20.62-34.35-28.82-52.72
			c-7.74-17.35-14.58-34.99-19.64-53.3c-1.89-6.84-3.94-13.62-6.62-20.24c-6.23-15.37-12.18-30.86-17.99-46.4
			c-5.36-14.35-10.57-28.76-15.45-43.27C301.64,9.8,299.28,5.17,298.8,0h-73.33c-0.2,4.48,2.24,8.05,4.28,11.65
			c5.22,9.21,9.6,18.82,14.23,28.32c6.08,12.46,11.53,25.19,17.11,37.87c7.34,16.67,14.4,33.44,21,50.43
			c3.42,8.81,7.05,17.56,10.56,26.34c6.7,16.74,9.35,34.02,6.09,51.92c-1.66,9.12-6.48,16.62-13.22,22.79
			c-7.93,7.27-17.67,7.88-27.75,6.68c-9.2-1.09-16.69-6.03-24.33-10.68c-7.52-4.57-13.96-10.54-20.47-16.34
			c-8.56-7.63-17.23-15.2-24.94-23.72c-9.28-10.26-18.84-20.25-27.4-31.16c-5.85-7.45-12.04-14.65-17.46-22.41
			c-11.99-17.19-23.76-34.53-33.36-53.24c-4.32-8.43-8.92-16.72-13.09-25.22C89.24,38.01,82.71,22.37,77.1,6.35
			C76.38,4.29,75.62,2.22,75.52,0H0v20.8C2.25,21.22,3.28,22.93,4.17,24.78z M522.43,423.78c3.39-0.47,6.49,0.54,9.36,2.33
			c21.8,13.63,45.37,23.17,69.9,30.61c18.9,5.73,38.22,9.19,57.73,11.72c15.34,1.99,30.73,3.21,46.24,3.58
			c8.71,0.21,17.47,1.25,26.18,0.75c14.17-0.82,28.37-0.74,42.54-1.81c7.42-0.56,14.83-1.64,22.34-1.44
			c5.08,0.13,10.14-0.86,15.22-1.26c14.69-1.15,29.36-2.57,43.99-4.27c9.4-1.09,18.84-2.18,28.23-2.72
			c12.18-0.7,24.22-2.86,36.47-2.75c7.97,0.07,15.95-1.12,23.93-1.73c2-0.15,4-0.31,6-0.31c14.59-0.03,29.19-0.39,43.77,0.13
			c8.7,0.31,17.42,1.1,26.12,1.78c12.01,0.93,23.89,2.53,35.74,4.53c17.98,3.03,35.66,7.27,53.1,12.68
			c16.57,5.14,32.92,10.82,48.67,18.02c18.55,8.47,36.84,17.46,54.34,28.08c18.1,10.99,35.56,22.85,52.23,35.84
			c11.62,9.06,22.77,18.68,33.72,28.58c10.16,9.19,19.78,18.88,29.34,28.63c7.89,8.05,15.27,16.6,22.62,25.18
			c5.44,6.36,10.74,12.85,16.05,19.29c6.83,8.28,12.89,17.18,19.25,25.85c13.15,17.94,24.97,36.74,36.36,55.85
			c6.73,11.28,12.85,22.87,19.14,34.38c0.83,1.52,2.1,2.99,1.57,5.85c-5.9-5.63-9.46-12.06-13.91-17.77
			c-7.83-10.06-16.01-19.8-24.32-29.47c-9.77-11.37-20.68-21.59-31.32-32.07c-6.72-6.63-14.17-12.55-21.5-18.52
			c-10.45-8.52-20.84-17.13-32.18-24.47c-7.49-4.86-14.95-9.76-22.51-14.51c-11.58-7.28-23.56-13.82-35.87-19.78
			c-21.19-10.26-42.9-19.14-65.44-26.01c-16.77-5.11-33.77-9.3-51-12.29c-16.3-2.82-32.69-5.16-49.27-6.3
			c-11.96-0.83-23.94-1.66-35.9-2.79c-7.41-0.7-14.95,0.05-22.41-0.32c-42.82-2.1-85.68-0.12-128.49-1.29
			c-16.14-0.44-32.33-1.35-48.48-2.62c-15.45-1.21-30.79-3.11-46.12-5.03c-14.08-1.76-28.04-4.58-41.87-7.89
			c-23.42-5.6-46.45-12.35-69.04-20.81c-17.09-6.4-33.84-13.51-50.27-21.36c-25.01-11.96-48.97-25.85-72-41.3
			c-16.05-10.77-31.4-22.5-46.42-34.66c-3.96-3.21-8.4-5.82-11.84-9.67c-0.85-0.95-1.86-1.8-2.53-2.86
			C518.18,426.61,519.26,424.22,522.43,423.78z"/>
		<path class="st0" d="M713.84,40.96c1.56,30.26,7.97,59.6,20.31,87.41c8.47,19.08,19.42,36.73,32.37,53.11
			c10.2,12.9,21.65,24.59,34.06,35.38c20.51,17.84,43.09,32.5,67.78,43.74c18.77,8.54,38.17,15.39,58.43,19.77
			c12.67,2.74,25.44,4.63,38.28,6.2c1.8,0.22,3.64,0.2,5.46,0.21c7.66,0.02,15.33-0.2,22.98,0.05c18.02,0.59,35.56-2.74,53.09-6.17
			c16.12-3.16,31.96-7.55,47.53-12.75c16.25-5.42,32.42-11.08,48.2-17.83c13.91-5.95,27.98-11.52,41.77-17.75
			c12.46-5.62,24.93-11.21,37.45-16.71c24.03-10.55,48.02-21.19,72.65-30.34c19.34-7.19,38.98-13.31,58.94-18.44
			c15.22-3.91,30.71-6.36,46.3-7.9c11.58-1.14,23.28-2.21,34.92-1.22c15.95,1.35,31.86,2.95,47.52,6.82
			c20.15,4.97,39.31,12.36,57.6,21.94c19.59,10.26,37.79,22.66,54.81,36.85c14.18,11.82,27.27,24.75,39.97,38.07
			c9.16,9.61,17.66,19.86,25.79,30.39c11.59,15.01,22.24,30.66,32.35,46.71c16.65,26.42,31.09,54.04,44.62,82.13
			c8.94,18.55,17.54,37.28,25.52,56.27c6.99,16.64,13.86,33.33,21.05,49.88c5.38,12.37,10.45,24.87,15.76,37.27
			c5.59,13.07,11.33,26.08,16.93,39.14c5.47,12.73,11.2,25.35,17.34,37.77c5.58,11.28,11.11,22.58,16.9,33.75
			c9.73,18.79,20.4,37.04,31.72,54.92c9.66,15.26,20,30.05,31.04,44.34c1.87,2.42,3.5,5.15,6.48,6.49v-224.4
			c-11.59-3.89-21.33-10.75-30.31-18.84c-6.97-6.28-12.66-13.52-16.43-22.17c-3.52-8.07-4.72-16.29-1.88-24.93
			c3.32-10.12,12.1-16.8,22.8-17.27c7.21-0.32,14.13,0.53,20.72,3.62c1.64,0.77,3.4,1.26,5.11,1.87v-33.93
			c-4.72-1.67-8.8-4.51-12.44-7.78c-10.91-9.79-20.68-20.52-27.05-33.98c-7.87-16.62-12.89-34.03-15.26-52.24
			c-1.94-14.99-2.8-30.04-3.55-45.14c-0.63-12.76-0.17-25.5-0.86-38.22c-1.4-25.85-3.58-51.61-12.08-76.35
			c-8.99-26.13-22.32-49.8-40.26-70.85c-17.38-20.4-37.19-38.03-60.22-51.82c-27.15-16.26-56.25-27.48-87.51-32.92
			c-14.18-2.47-28.4-4.53-42.84-4.49c-4.38,0.01-8.62-1.35-13.05-1.11c-11.44,0.61-22.87,1.16-34.3,2
			c-18.03,1.33-35.77,4.37-53.46,7.85c-15.03,2.95-29.87,6.72-44.56,11.07c-2.22,0.66-4.42,1.55-7.11,1.22
			c0.47-2.77,2.43-3.85,4.22-4.95c7.77-4.75,15.46-9.64,23.52-13.91c22.58-11.98,45.73-22.61,70.1-30.47
			c1.58-0.51,3.08-1.14,4.27-2.34h-366.66c-0.44,2.46-2.47,3.5-4.3,4.67c-16.54,10.57-34.65,16.84-54.04,19.46
			c-9.55,1.29-19.15,2.47-28.8,2.09c-21.02-0.84-41.55-4.09-61.31-11.85c-8-3.14-15.71-6.76-23.38-10.55
			c-1.79-0.88-3.72-1.64-4.38-3.82H859.19c1.16,5.81,4.2,10.88,6.58,16.18c5.97,13.32,12.75,26.29,21.37,38.09
			c8.83,12.1,19.2,22.83,31.01,32.16c29.78,23.53,63.84,36.77,101.04,42.81c19.89,3.23,39.91,4.02,59.93,3.03
			c17.61-0.87,35.15-3,52.62-5.73c24.51-3.84,48.68-9.31,72.95-14.28c4.28-0.88,8.35-0.5,12.39,0.8c6.85,2.21,9.35,8.39,6.13,14.81
			c-2.75,5.48-7.89,8.55-12.49,12.02c-20.33,15.29-42.26,27.95-65.48,38.27c-25.94,11.52-52.99,19.5-80.97,24.33
			c-23.08,3.98-46.35,5.36-69.68,4.26c-24.26-1.14-48.15-5.1-71.52-11.95c-17.55-5.14-34.52-11.78-50.69-20.28
			c-19.43-10.21-37.38-22.51-53.37-37.76c-14.61-13.93-27.48-29.15-37.51-46.62c-8.74-15.21-15.9-31.14-20.52-48.18
			c-2.87-10.59-5.04-21.27-6.45-32.12c-0.42-3.24-0.27-6.55-0.37-9.83h-41.59C711.79,13.69,713.13,27.34,713.84,40.96z"/>
		<path class="st2" d="M456.1,18.28c15.55,21.41,32.82,41.4,50.69,60.83c12.07,13.12,24.09,26.33,37.57,38.17
			c11.48,10.08,22.59,20.61,34.16,30.62c12.96,11.22,26.6,21.59,40.33,31.81c12.57,9.35,25.53,18.17,38.66,26.74
			c18.34,11.96,37.17,23.07,56.48,33.34c16.25,8.65,32.87,16.61,49.75,24.01c26.42,11.58,53.28,21.87,80.83,30.43
			c30.87,9.59,62.16,17.33,94.01,22.77c14.36,2.45,28.77,4.62,43.28,6.04c8.51,0.83,17.04,1.54,25.54,2.41
			c8.89,0.91,17.83,1.52,26.68,1.65c32.42,0.47,64.85,0.36,97.26-1.75c11.05-0.72,22.15-1.95,33.29-1.35
			c0.91,0.05,1.84,0.06,2.73-0.11c10.99-2.13,22.17-1.15,33.24-1.77c25.09-1.4,50.3,0.83,75.42-1.36c5.11-0.45,10.2,1,15.24,0.92
			c13.57-0.24,26.89,2.16,40.21,3.86c22.45,2.87,44.43,8.22,65.97,15.32c15.78,5.2,31.38,10.84,46.42,17.89
			c11.06,5.18,22.06,10.57,32.71,16.54c14.63,8.19,28.76,17.25,42.44,27c17.68,12.62,34.47,26.32,50.13,41.34
			c8.54,8.19,16.82,16.66,24.78,25.47c9.18,10.16,17.84,20.71,26.12,31.56c10.83,14.22,20.75,29.09,29.8,44.53
			c10.72,18.27,20,37.26,28.17,56.78c14.51,34.69,26.38,70.34,38.31,105.97c6.95,20.75,14.27,41.38,22.5,61.65
			c8.85,21.79,18.55,43.18,30.41,63.58c11.8,20.29,25.88,38.78,41.9,55.83c5.99,6.37,12.74,11.98,19.58,17.42
			c6.03,4.8,12.23,9.33,18.6,13.59h70.46V780.46c-2.98-1.34-4.61-4.07-6.48-6.49c-11.05-14.29-21.38-29.08-31.04-44.34
			c-11.32-17.88-21.99-36.13-31.72-54.92c-5.79-11.17-11.32-22.47-16.9-33.75c-6.14-12.42-11.88-25.03-17.34-37.77
			c-5.61-13.06-11.34-26.07-16.93-39.14c-5.3-12.4-10.38-24.9-15.76-37.27c-7.19-16.55-14.07-33.24-21.05-49.88
			c-7.98-19-16.58-37.72-25.52-56.27c-13.53-28.09-27.97-55.71-44.62-82.13c-10.11-16.05-20.77-31.7-32.35-46.71
			c-8.13-10.53-16.63-20.78-25.79-30.39c-12.69-13.32-25.79-26.25-39.97-38.07c-17.02-14.19-35.22-26.59-54.81-36.85
			c-18.3-9.58-37.46-16.96-57.6-21.94c-15.66-3.87-31.57-5.46-47.52-6.82c-11.64-0.99-23.34,0.08-34.92,1.22
			c-15.59,1.54-31.08,3.99-46.3,7.9c-19.96,5.13-39.6,11.25-58.94,18.44c-24.63,9.15-48.62,19.79-72.65,30.34
			c-12.52,5.5-24.99,11.09-37.45,16.71c-13.79,6.22-27.86,11.8-41.77,17.75c-15.78,6.75-31.95,12.41-48.2,17.83
			c-15.57,5.2-31.4,9.59-47.53,12.75c-17.53,3.43-35.07,6.76-53.09,6.17c-7.65-0.25-15.32-0.03-22.98-0.05
			c-1.82-0.01-3.66,0.01-5.46-0.21c-12.84-1.58-25.6-3.46-38.28-6.2c-20.26-4.38-39.67-11.22-58.43-19.77
			c-24.69-11.24-47.27-25.91-67.78-43.74c-12.41-10.79-23.86-22.48-34.06-35.38c-12.96-16.38-23.91-34.03-32.37-53.11
			c-12.34-27.8-18.75-57.14-20.31-87.41c-0.7-13.62-2.04-27.27-1.31-40.96h-30.65c0.18,6.04,1.62,11.91,2.62,17.83
			c2.53,14.9,5.73,29.71,7.91,44.66c2.16,14.81,3.06,29.75-0.88,44.5c-5.31,19.91-23.22,33.3-43.76,34.43
			c-12.47,0.69-21.84-3.98-30.25-12.23c-9.49-9.31-19.09-18.5-28.56-27.84c-10.12-9.98-19.44-20.66-28.67-31.48
			c-8.77-10.29-16.63-21.22-24.76-31.96c-7.04-9.3-12.92-19.39-18.56-29.6c-1.42-2.56-2.35-5.34-2.56-8.31h-71.14
			c0.29,1.49,1.21,2.61,2.05,3.81C448.77,8.75,452.57,13.42,456.1,18.28z M1229.46,275.13c5.03-4.18,10.46-7.92,15.93-11.53
			c15.11-9.98,31.11-18.31,48.02-24.8c18.11-6.94,36.86-11.44,56.02-14.4c17.39-2.68,34.91-2.83,52.36-2.01
			c18.4,0.87,36.53,4.2,54.31,9.24c15.47,4.38,30.55,9.73,45.14,16.49c23.25,10.76,45.09,23.86,65.23,39.69
			c15.2,11.95,29.49,24.98,42.61,39.19c19.18,20.78,35.19,43.73,45.69,70.18c3.77,9.5,6.94,19.25,8.39,29.39
			c1.06,7.41,1.15,14.88-1.83,22.08c-3.24,7.82-10.43,10.99-18.31,7.84c-4.13-1.65-7.6-4.33-10.97-7.11
			c-14.76-12.15-29.31-24.55-44.11-36.65c-21.03-17.2-42.57-33.7-65.2-48.75c-26.66-17.73-54.7-32.84-85-43.36
			c-19.15-6.65-38.86-11.16-58.94-14.18c-13.16-1.98-26.4-3.32-39.63-4.1c-15.98-0.95-32-2.33-44.53-1.33
			c-12.29,0-21.05,0.22-29.8-0.06c-8.59-0.27-17.07-1.53-24.96-5.29c-3.98-1.9-7.72-4.19-10.79-7.35
			C1224.67,283.78,1224.61,279.16,1229.46,275.13z"/>
		<path class="st2" d="M63.04,325.36c23.03,19.9,43.11,42.34,58.78,68.59c12.56,21.05,21.5,43.46,25.48,67.66
			c2.07,12.58,3.54,25.35,2.5,38.08c-1.64,19.99-5.14,39.68-10.67,59.05c-7.01,24.58-16.1,48.41-24.84,72.39
			c-8.81,24.14-17.48,48.35-22.64,73.64c-3.56,17.43-5.06,35.03-3.91,52.72c0.85,13.08,3.3,26.02,7.99,38.41
			c3.23,8.53,6.55,16.99,11.39,24.78c4.81,7.75,10.07,15.15,15.95,22.13c14.72,17.45,32.67,31.07,51.42,43.76
			c16.01,10.83,32.82,20.34,49.55,29.98c2,1.15,4.01,2.31,6.01,3.46h130.24c-8.09-8.63-15.61-17.77-23.15-26.91
			c-10.24-12.41-19.33-25.59-28.21-38.93c-8.08-12.14-15.38-24.75-22.19-37.64c-13.83-26.16-25.29-53.33-34.22-81.53
			c-5.78-18.25-10.68-36.73-14.18-55.59c-2.76-14.87-4.9-29.83-7-44.79c-1.7-12.06-2.27-24.28-3.75-36.37
			c-1.59-13.01-1.86-26.13-3.94-39.09c-0.78-4.84-1.2-9.77-1.35-14.67c-0.34-11.32-2.39-22.44-3.79-33.63
			c-2.17-17.36-5.42-34.54-9.38-51.58c-2.1-9.07-5.03-17.89-7.66-26.8c-3.98-13.52-9.62-26.36-15.86-38.93
			c-3.88-7.82-8.23-15.43-12.68-22.96c-6.97-11.79-15.3-22.67-23.82-33.34c-6.93-8.67-15.06-16.33-22.73-24.37
			c-14.27-14.95-30.1-28.08-46.48-40.55C56.07,254.18,31,237.99,5.04,223.16c-1.56-0.89-3.36-1.37-5.04-2.05v61.3
			c4.25,0.85,7.58,3.56,11.14,5.7C29.44,299.12,46.87,311.39,63.04,325.36z M189.66,663.51c8.71,10.69,13.09,23.38,15.11,37
			c2.14,14.4,2.7,29,5.34,43.33c3.49,18.93,9.27,37.09,18.54,54.04c3.33,6.09,6.09,12.44,8.68,18.86c3,7.43,3.81,15.17,2.16,23.02
			c-1.61,7.7-9.23,17.35-20.4,17.48c-10.32,0.12-18.03-4.56-25.52-10.66c-10.51-8.55-19.08-19.01-28.37-28.72
			c-13.49-14.09-25.5-29.44-33.93-47.31c-7.03-14.9-11.22-30.36-11.04-46.96c0.86-17.21,3.75-34.01,11.37-49.65
			c4.07-8.36,10.17-15.11,18.55-19.42C165.34,646.71,179.54,651.11,189.66,663.51z"/>
		<path class="st1" d="M79.86,272.29c16.38,12.47,32.21,25.6,46.48,40.55c7.67,8.04,15.8,15.69,22.73,24.37
			c8.52,10.67,16.84,21.56,23.82,33.34c4.45,7.52,8.8,15.13,12.68,22.96c6.24,12.57,11.88,25.42,15.86,38.93
			c2.63,8.91,5.56,17.73,7.66,26.8c3.96,17.05,7.21,34.22,9.38,51.58c1.4,11.19,3.45,22.31,3.79,33.63
			c0.15,4.9,0.58,9.83,1.35,14.67c2.08,12.96,2.35,26.09,3.94,39.09c1.48,12.1,2.06,24.31,3.75,36.37c2.11,14.96,4.24,29.92,7,44.79
			c3.51,18.87,8.4,37.35,14.18,55.59c8.94,28.2,20.39,55.37,34.22,81.53c6.82,12.89,14.12,25.5,22.19,37.64
			c8.88,13.35,17.97,26.52,28.21,38.93c7.54,9.14,15.06,18.28,23.15,26.91h55.11c-12.04-10.78-23.55-22.13-34.41-34.08
			c-21.98-24.17-41.82-50.09-58.47-78.26c-10.47-17.72-20.84-35.56-28.17-54.9c-3.59-9.47-5.78-19.27-3.22-29.44
			c2.5-9.93,7.9-17.88,16.65-23.45c17.91-11.4,36.22-10.06,54.83-1.93c12.66,5.53,23.65,13.71,34.65,21.8
			c13.83,10.17,28.23,19.36,43.28,27.62c20.83,11.42,42.8,20.21,65.01,28.46c19.32,7.17,38.93,13.47,58.51,19.86
			c22.2,7.24,44.3,14.77,66.01,23.32c15.91,6.27,31.53,13.3,46.57,21.6c14.24,7.86,28.09,16.24,40.99,26.12
			c6.79,5.2,13.55,10.47,19.54,16.63c2.93,3.01,6.5,5.25,9.44,8.29c8.93,9.24,17.63,18.66,26.03,28.35h74.79
			c-8.49-10.75-17.26-21.26-26.42-31.42c-6.94-7.71-14.06-15.27-21.28-22.75c-13.06-13.52-26.94-26.14-41.72-37.67
			c-9.46-7.37-19.39-14.2-29.67-20.5c-11.51-7.06-23.21-13.8-35.3-19.74c-15.53-7.62-31.5-14.33-47.56-20.83
			c-23.68-9.58-47.99-17.33-72.08-25.73c-16.34-5.69-32.95-10.61-49.25-16.43c-20.58-7.35-41.08-14.9-61.13-23.66
			c-18.89-8.26-37.42-17.17-55.16-27.72c-13.97-8.3-27.44-17.34-40.18-27.39c-13.33-10.51-25.2-22.64-37.06-34.75
			c-6.51-6.64-12.53-13.72-18.31-20.98c-12.73-15.97-24.65-32.54-35.49-49.86c-4.84-7.72-9.68-15.45-14.34-23.28
			c-7.27-12.21-14.19-24.63-20.93-37.15c-7.17-13.32-14.69-26.44-21.88-39.75c-6.24-11.54-11.95-23.37-18.38-34.8
			c-9.64-17.14-18.71-34.6-29-51.4c-9.71-15.86-19.55-31.61-30.2-46.83c-7.1-10.15-14.44-20.13-22.59-29.49
			c-5.02-5.77-9.73-11.83-15.04-17.31C89,244.6,73,229.26,54.89,216.13c-16.11-11.69-32.79-22.42-49.74-32.79
			c-1.59-0.97-3.29-1.55-5.15-1.63v39.41c1.69,0.67,3.48,1.15,5.04,2.05C31,237.99,56.07,254.18,79.86,272.29z"/>
		<path class="st0" d="M737.17,883.36c-5.99-6.16-12.75-11.43-19.54-16.63c-12.91-9.88-26.76-18.26-40.99-26.12
			c-15.04-8.3-30.66-15.34-46.57-21.6c-21.71-8.55-43.82-16.08-66.01-23.32c-19.58-6.39-39.2-12.69-58.51-19.86
			c-22.21-8.24-44.18-17.03-65.01-28.46c-15.05-8.25-29.45-17.44-43.28-27.62c-11-8.09-21.99-16.28-34.65-21.8
			c-18.61-8.13-36.92-9.48-54.83,1.93c-8.75,5.57-14.15,13.52-16.65,23.45c-2.56,10.17-0.37,19.97,3.22,29.44
			c7.33,19.34,17.7,37.18,28.17,54.9c16.65,28.18,36.5,54.1,58.47,78.26c10.86,11.94,22.37,23.29,34.41,34.08H536.2
			c-1.45-1.47-2.9-2.97-4.31-4.5c-9.79-10.6-17.91-22.49-25.64-34.64c-2.77-4.36-3.54-9.31-2.48-14.22
			c1.25-5.76,5.55-9.32,10.75-11.5c4.2-1.76,8.69-2.73,13.36-2.47c14.59,0.95,28.81,3.64,42.7,8.4c14.74,5.06,27.83,13,39.13,23.39
			c10.86,9.98,19.95,21.43,23.92,35.54h139c-8.4-9.69-17.11-19.11-26.03-28.35C743.67,888.61,740.09,886.37,737.17,883.36z"/>
		<path class="st0" d="M33.09,909.59c-1.93-6.44-1.66-13.03-1.12-19.55c0.56-6.65,7.52-13.11,14.24-14.08
			c2.31-0.33,4.33,0.24,6.19,1.56c1.51,1.07,2.75,2.42,3.56,4.08c6.94,14.26,17.43,25.89,27.55,37.86c0.15,0.18,0.31,0.35,0.46,0.53
			h65.51c-6.71-4.78-13.4-9.6-19.98-14.56c-8-6.02-15.76-12.34-23.18-19.09c-4.31-3.92-8.77-7.66-12.86-11.84
			c-16.93-17.27-30.52-36.74-38.31-59.78c-3.79-11.2-6.72-22.68-7.14-34.69c-0.18-5.07-1.14-10.12-0.98-15.24
			c0.48-15.14,2.21-30.13,5.33-44.95c5.53-26.32,14.58-51.53,23.92-76.68c9.01-24.26,17.71-48.61,23.89-73.81
			c5.4-21.99,7.37-44.3,5.75-66.73c-1.72-23.8-8.07-46.62-17.97-68.4c-6.96-15.32-15.34-29.81-25.48-43.21
			c-15.52-20.52-34.05-37.9-55.5-52.14c-2.15-1.43-4.28-2.8-6.98-2.83V920h36.54C35.3,916.57,34.15,913.1,33.09,909.59z"/>
		<path class="st1" d="M1228.08,889.3c-18.15-12.85-36.66-25.17-55.91-36.36c-14.5-8.43-29.13-16.63-44-24.36
			c-17.46-9.07-35.06-17.92-52.85-26.32c-11.71-5.53-23.29-11.32-34.85-17.13c-14.17-7.13-28.44-14.06-42.44-21.54
			c-9.8-5.23-19.89-10.02-29.38-15.76c-20.13-12.17-40.64-23.62-61.62-34.24c-20.49-10.37-41.37-19.96-62.15-29.74
			c-22.45-10.57-46.15-15.82-70.38-19.2c-14.76-2.06-29.62-3.56-44.48-4.94c-9.99-0.93-19.83-2.29-29.88-0.79
			c-8.55,1.27-16.9,2.98-24.38,7.53c-9.78,5.95-14.5,14.62-13.44,26.13c0.75,8.07,4.31,14.99,9.33,21.21
			c10,12.41,23.05,21.24,36.24,29.63c10.73,6.82,21.77,13.24,33.31,18.78c8.36,4.02,16.57,8.4,25.06,12.11
			c19.71,8.61,39.15,17.81,58.67,26.83c11.09,5.12,21.74,11.12,32.38,17.13c17.36,9.81,33.62,21.1,48.4,34.48
			c15.25,13.81,27.43,30.18,38.42,47.41c4.16,6.52,8.15,13.15,12.05,19.83h47.26c-7.73-10.64-14.84-21.74-21.22-33.38
			c-5.09-9.28-10.28-18.48-14.03-28.4c-2.77-7.34-3.57-14.67-1.12-22.45c2.97-9.41,13.26-16.75,24.34-13.99
			c22.7,5.65,44.84,12.76,66.61,21.28c19.39,7.59,38.31,16.16,56.69,25.87c10.14,5.36,20.02,11.25,29.82,17.21
			c14.02,8.53,27.53,17.88,40.58,27.82c2.61,1.99,5.18,4.01,7.75,6.04h73.05c-3.69-3.31-7.44-6.57-11.29-9.71
			C1245.9,903.14,1237.29,895.82,1228.08,889.3z M887.06,776.1c-6.49,1.41-12.96,1.24-19.54,0.51c-7.58-0.84-15.22-1.12-22.75-2.59
			c-13.26-2.58-26.13-6.23-38.64-11.48c-12.16-5.1-23.61-11.29-34.52-18.6c-4.39-2.95-8.6-6.14-12.12-10.13
			c-3.44-3.9-6.04-8.21-6.42-13.57c-0.64-9.07,4.78-15.53,13.86-16.28c2.89-0.24,5.82-0.04,8.74-0.04
			c17.45,0.01,34.31,3.34,50.88,8.71c14.65,4.75,28.34,11.49,41.25,19.75c8.58,5.49,16.67,11.73,23.98,18.87
			c1.29,1.27,2.5,2.66,3.55,4.13C901.6,764.22,897.74,773.77,887.06,776.1z"/>
		<path class="st1" d="M62.49,391.01c10.14,13.4,18.51,27.9,25.48,43.21c9.91,21.79,16.26,44.61,17.97,68.4
			c1.62,22.43-0.35,44.74-5.75,66.73c-6.18,25.2-14.89,49.56-23.89,73.81c-9.33,25.14-18.38,50.36-23.92,76.68
			c-3.12,14.83-4.85,29.81-5.33,44.95c-0.16,5.13,0.8,10.17,0.98,15.24c0.42,12.01,3.35,23.48,7.14,34.69
			c7.79,23.04,21.39,42.51,38.31,59.78c4.09,4.17,8.55,7.91,12.86,11.84c7.42,6.75,15.18,13.07,23.18,19.09
			c6.59,4.96,13.27,9.78,19.98,14.56h80.54c-2-1.15-4.01-2.31-6.01-3.46c-16.73-9.64-33.55-19.14-49.55-29.98
			c-18.75-12.69-36.7-26.31-51.42-43.76c-5.89-6.98-11.15-14.39-15.95-22.13c-4.83-7.79-8.16-16.25-11.39-24.78
			c-4.69-12.39-7.14-25.32-7.99-38.41c-1.15-17.69,0.35-35.29,3.91-52.72c5.17-25.29,13.83-49.49,22.64-73.64
			c8.75-23.97,17.83-47.8,24.84-72.39c5.53-19.37,9.03-39.06,10.67-59.05c1.05-12.73-0.43-25.51-2.5-38.08
			c-3.98-24.21-12.92-46.61-25.48-67.66c-15.67-26.25-35.75-48.69-58.78-68.59c-16.17-13.97-33.6-26.23-51.9-37.24
			c-3.56-2.14-6.9-4.85-11.14-5.7v53.64c2.7,0.03,4.83,1.4,6.98,2.83C28.43,353.11,46.97,370.49,62.49,391.01z"/>
		<path class="st2" d="M1492.96,32.81c-8.06,4.27-15.75,9.16-23.52,13.91c-1.79,1.1-3.76,2.18-4.22,4.95
			c2.69,0.33,4.89-0.57,7.11-1.22c14.69-4.35,29.53-8.12,44.56-11.07c17.68-3.47,35.43-6.52,53.46-7.85
			c11.43-0.84,22.87-1.39,34.3-2c4.43-0.23,8.66,1.13,13.05,1.11c14.44-0.05,28.66,2.02,42.84,4.49
			c31.26,5.44,60.36,16.66,87.51,32.92c23.03,13.79,42.84,31.41,60.22,51.82c17.94,21.05,31.27,44.72,40.26,70.85
			c8.51,24.74,10.68,50.5,12.08,76.35c0.69,12.72,0.23,25.46,0.86,38.22c0.75,15.1,1.61,30.15,3.55,45.14
			c2.36,18.21,7.39,35.63,15.26,52.24c6.37,13.46,16.14,24.19,27.05,33.98c3.64,3.26,7.72,6.1,12.44,7.78V42.69
			c-4.19-1.39-7.67-4.09-11.4-6.3c-23.2-13.72-47.56-24.86-73.13-33.38c-2.22-0.74-4.58-1.25-6.32-3.02h-261.59
			c-1.2,1.2-2.7,1.83-4.27,2.34C1538.7,10.2,1515.54,20.83,1492.96,32.81z"/>
		<path class="st2" d="M760.95,41.95c4.62,17.04,11.78,32.97,20.52,48.18c10.04,17.47,22.91,32.69,37.51,46.62
			c15.99,15.25,33.94,27.55,53.37,37.76c16.17,8.5,33.14,15.14,50.69,20.28c23.37,6.85,47.27,10.8,71.52,11.95
			c23.33,1.1,46.6-0.28,69.68-4.26c27.99-4.83,55.03-12.81,80.97-24.33c23.23-10.31,45.15-22.98,65.48-38.27
			c4.61-3.46,9.74-6.54,12.49-12.02c3.22-6.42,0.72-12.6-6.13-14.81c-4.04-1.3-8.11-1.68-12.39-0.8
			c-24.28,4.97-48.44,10.45-72.95,14.28c-17.47,2.73-35.01,4.86-52.62,5.73c-20.02,0.99-40.04,0.2-59.93-3.03
			c-37.2-6.04-71.26-19.29-101.04-42.81c-11.81-9.33-22.17-20.06-31.01-32.16c-8.62-11.8-15.4-24.77-21.37-38.09
			c-2.37-5.3-5.42-10.37-6.58-16.18H754.12c0.11,3.28-0.05,6.59,0.37,9.83C755.9,20.67,758.08,31.36,760.95,41.95z"/>
		<path class="st2" d="M55.97,881.61c-0.81-1.67-2.05-3.01-3.56-4.08c-1.86-1.31-3.89-1.89-6.19-1.56
			c-6.71,0.97-13.68,7.42-14.24,14.08c-0.54,6.51-0.82,13.11,1.12,19.55c1.05,3.51,2.2,6.97,3.45,10.41h47.44
			c-0.15-0.18-0.31-0.35-0.46-0.53C73.41,907.5,62.91,895.87,55.97,881.61z"/>
		<path class="st0" d="M96.72,53.24c4.17,8.5,8.77,16.79,13.09,25.22c9.59,18.7,21.36,36.04,33.36,53.24
			c5.42,7.77,11.61,14.97,17.46,22.41c8.57,10.91,18.13,20.9,27.4,31.16c7.71,8.52,16.38,16.09,24.94,23.72
			c6.51,5.8,12.95,11.77,20.47,16.34c7.64,4.64,15.13,9.59,24.33,10.68c10.08,1.19,19.82,0.58,27.75-6.68
			c6.73-6.16,11.55-13.66,13.22-22.79c3.26-17.9,0.61-35.18-6.09-51.92c-3.52-8.78-7.14-17.54-10.56-26.34
			c-6.59-16.99-13.66-33.76-21-50.43c-5.58-12.68-11.03-25.4-17.11-37.87c-4.63-9.5-9.01-19.11-14.23-28.32
			c-2.04-3.6-4.48-7.17-4.28-11.65H75.52c0.1,2.22,0.86,4.29,1.58,6.35C82.71,22.37,89.24,38.01,96.72,53.24z"/>
		<path class="st1" d="M535.54,37.91c8.13,10.74,15.99,21.67,24.76,31.96c9.22,10.82,18.55,21.5,28.67,31.48
			c9.47,9.33,19.07,18.52,28.56,27.84c8.41,8.26,17.78,12.92,30.25,12.23c20.54-1.14,38.45-14.53,43.76-34.43
			c3.94-14.76,3.04-29.69,0.88-44.5c-2.18-14.95-5.38-29.75-7.91-44.66c-1.01-5.92-2.44-11.78-2.62-17.83H514.42
			c0.21,2.97,1.15,5.74,2.56,8.31C522.62,18.52,528.5,28.61,535.54,37.91z"/>
		<path class="st1" d="M1028.84,3.82c7.67,3.79,15.38,7.41,23.38,10.55c19.76,7.76,40.3,11.01,61.31,11.85
			c9.65,0.39,19.25-0.8,28.8-2.09c19.4-2.62,37.5-8.89,54.04-19.46c1.82-1.17,3.85-2.2,4.3-4.67h-176.22
			C1025.12,2.19,1027.05,2.94,1028.84,3.82z"/>
		<path class="st2" d="M1893.94,472.86c-10.7,0.47-19.47,7.15-22.8,17.27c-2.84,8.64-1.63,16.85,1.88,24.93
			c3.77,8.65,9.45,15.89,16.43,22.17c8.98,8.09,18.72,14.95,30.31,18.84v-77.72c-1.71-0.62-3.47-1.11-5.11-1.87
			C1908.07,473.39,1901.15,472.54,1893.94,472.86z"/>
		<path class="st0" d="M1908.37,36.39c3.73,2.21,7.21,4.91,11.4,6.3V0h-90.84c1.74,1.77,4.09,2.28,6.32,3.02
			C1860.81,11.53,1885.18,22.67,1908.37,36.39z"/>
		<path class="st2" d="M1198.94,723.2c7.65,4.32,14.63,9.6,21.35,15.18c14.56,12.08,27.93,25.51,42.27,37.85
			c11.58,9.96,22.72,20.43,34.09,30.63c4.9,4.39,10.7,6.06,17.2,5.22c3.2-0.41,4.49-1.69,4.9-4.87c0.16-1.25,0.03-2.55,0.03-3.63
			c0.88-6.27-2.34-10.62-6.21-14.67c-8.82-9.22-18.2-17.85-28.16-25.81c-11.55-9.23-23.75-17.51-37.25-23.65
			c-15.24-6.94-30.56-13.71-45.88-20.5c-1.99-0.88-4.62-3.29-6.09-0.21C1194,721.22,1197.14,722.19,1198.94,723.2z"/>
		<path class="st2" d="M1340.4,843.92c4.69,0.13,8.41-2.73,9.01-6.93c0.7-4.86-2.7-11.2-7.24-12.96c-3.1-1.2-6.45-1.77-9.3,0.57
			c-2.86,2.35-3.64,7.5-2.08,11.67C1332.44,840.7,1336.34,843.81,1340.4,843.92z"/>
		<path class="st2" d="M1358.8,861.94c3.37,0.19,5.9-2.45,6-6.25c0.12-4.38-3.42-8.31-7.52-8.36c-3.44-0.04-6.25,2.73-6.25,6.14
			C1351.05,857.6,1354.82,861.72,1358.8,861.94z"/>
		<path class="st2" d="M1733.46,895.76c-7.54-8.23-13.43-17.2-15-28.55c-0.45-3.24-1.4-6.41-2.16-9.6
			c-1.36-5.69-4.39-10.35-8.83-14.12c-7.38-6.26-18.19-4.14-22.8,4.4c-4.41,8.17-4.26,16.91-2.85,25.61
			c2.69,16.67,8.35,32.06,16.18,46.5h62.24C1750.72,912.62,1741.66,904.71,1733.46,895.76z"/>
		<path class="st1" d="M1391.51,501.65c5.71,11.74,13.54,22.08,23.49,30.58c8.38,7.16,17.54,13.02,28.83,14.57
			c5.94,0.82,11.16-0.4,15.52-4.77c9.42-9.47,12-21.03,9.74-33.71c-1.45-8.14-6.78-14.4-12.1-20.44
			c-6.15-6.99-13.59-12.65-20.33-19.04c-4.88-4.63-10.52-8.45-16.35-11.83c-2.75-1.6-5.57-3.08-8.57-4.01
			c-0.67-0.21-1.34-0.38-2.03-0.53s-1.38-0.26-2.09-0.33c-0.71-0.08-1.42-0.11-2.15-0.11c-0.36,0-0.73,0.01-1.1,0.04
			c-1.74-0.16-3.43-0.05-5.06,0.3s-3.19,0.94-4.65,1.74c-4.87,2.65-8.63,7.54-10.18,13.34c-0.84,3.16,0.11,6.15-0.01,9.19
			C1384.12,485.78,1387.7,493.83,1391.51,501.65z"/>
		<path class="st2" d="M537.65,305.09c2.24,0.36,4.47,0.39,6.6,0.11c0.42-0.05,0.83-0.12,1.24-0.2c0.56-0.11,1.12-0.24,1.67-0.39
			c1.04-0.29,2.06-0.66,3.02-1.11c0.04-0.02,0.07-0.03,0.11-0.05c0.54-0.26,1.07-0.55,1.58-0.86c0.08-0.05,0.16-0.09,0.24-0.14
			c5.22-3.25,8.67-9.13,8.28-17.24c0.33-9.01-2.95-16.57-9.08-22.27c-0.88-0.81-1.81-1.59-2.8-2.33
			c-7.27-5.41-14.51-10.97-22.21-15.8c-6.75-4.23-14.05-6.75-22.25-6.17c-10.92,0.77-19.37,9.71-19.12,20.67
			c0.13,5.79,1.94,11.17,5.1,15.94C501.38,292.32,517.77,301.91,537.65,305.09z"/>
		<path class="st2" d="M1681.77,823.1c4.46-0.08,9.1-4.82,9.09-9.26c-0.02-4.67-5.14-9.13-10.55-9.19c-4.18-0.05-8.5,4.49-8.59,9.04
			C1671.61,818.8,1676.31,823.2,1681.77,823.1z"/>
		<path class="st2" d="M1664.29,771.41c2.4,0.07,4.28-1.86,4.42-4.53c0.22-4.09-3.25-8.14-7.04-8.21c-3.15-0.06-5.33,2.11-5.49,5.45
			C1656.01,767.49,1660.25,771.3,1664.29,771.41z"/>
		<path class="st0" d="M522.44,432.19c3.44,3.84,7.88,6.46,11.84,9.67c15.02,12.16,30.37,23.89,46.42,34.66
			c23.02,15.45,46.99,29.35,72,41.3c16.42,7.85,33.17,14.97,50.27,21.36c22.59,8.45,45.62,15.21,69.04,20.81
			c13.83,3.31,27.79,6.13,41.87,7.89c15.33,1.92,30.67,3.82,46.12,5.03c16.16,1.27,32.35,2.18,48.48,2.62
			c42.81,1.17,85.67-0.81,128.49,1.29c7.46,0.37,15-0.38,22.41,0.32c11.95,1.13,23.94,1.97,35.9,2.79
			c16.58,1.14,32.96,3.48,49.27,6.3c17.24,2.99,34.24,7.18,51,12.29c22.54,6.87,44.26,15.76,65.44,26.01
			c12.31,5.96,24.3,12.51,35.87,19.78c7.56,4.75,15.02,9.66,22.51,14.51c11.34,7.35,21.73,15.96,32.18,24.47
			c7.33,5.98,14.78,11.9,21.5,18.52c10.63,10.48,21.55,20.7,31.32,32.07c8.3,9.67,16.49,19.41,24.32,29.47
			c4.45,5.72,8.01,12.14,13.91,17.77c0.53-2.86-0.74-4.33-1.57-5.85c-6.29-11.51-12.41-23.1-19.14-34.38
			c-11.39-19.11-23.21-37.91-36.36-55.85c-6.35-8.66-12.42-17.57-19.25-25.85c-5.32-6.45-10.61-12.94-16.05-19.29
			c-7.35-8.58-14.73-17.13-22.62-25.18c-9.56-9.75-19.18-19.45-29.34-28.63c-10.95-9.9-22.1-19.53-33.72-28.58
			c-16.67-13-34.13-24.86-52.23-35.84c-17.5-10.62-35.79-19.61-54.34-28.08c-15.75-7.19-32.1-12.88-48.67-18.02
			c-17.45-5.41-35.12-9.65-53.1-12.68c-11.85-2-23.73-3.59-35.74-4.53c-8.7-0.68-17.42-1.47-26.12-1.78
			c-14.57-0.52-29.18-0.15-43.77-0.13c-2,0-4,0.16-6,0.31c-7.98,0.61-15.96,1.8-23.93,1.73c-12.26-0.11-24.3,2.05-36.47,2.75
			c-9.39,0.54-18.84,1.63-28.23,2.72c-14.63,1.7-29.3,3.12-43.99,4.27c-5.08,0.4-10.14,1.39-15.22,1.26
			c-7.5-0.2-14.92,0.88-22.34,1.44c-14.17,1.07-28.37,1-42.54,1.81c-8.71,0.5-17.47-0.54-26.18-0.75
			c-15.51-0.37-30.9-1.59-46.24-3.58c-19.51-2.53-38.84-5.99-57.73-11.72c-24.53-7.44-48.1-16.98-69.9-30.61
			c-2.87-1.79-5.97-2.8-9.36-2.33c-3.18,0.44-4.25,2.83-2.52,5.55C520.59,430.39,521.6,431.24,522.44,432.19z M890.53,500.29
			c3.45-0.18,6.92-0.03,10.38-0.03c14.89,1.09,29.84,0.49,44.72,1.27c19.49,1.02,38.65,4.49,56.89,11.97
			c3.44,1.41,6.5,3.33,9.22,5.74c5.68,5.03,5.21,13.35-0.95,17.8c-5.15,3.71-11.26,5.21-17.24,6.59
			c-6.71,1.55-13.44,3.19-20.33,3.96c-13.56,1.52-27.05,2.44-40.77,1.16c-12.97-1.22-25.54-3.85-38.02-7.19
			c-8.31-2.22-15.37-6.28-19.63-14.38C868.86,515.86,874.53,501.15,890.53,500.29z"/>
		<path class="st1" d="M1239.9,295.66c7.9,3.77,16.37,5.02,24.96,5.29c8.75,0.28,17.51,0.06,29.8,0.06
			c12.52-0.99,28.54,0.39,44.53,1.33c13.23,0.78,26.47,2.13,39.63,4.1c20.07,3.02,39.79,7.53,58.94,14.18
			c30.3,10.52,58.34,25.63,85,43.36c22.63,15.05,44.17,31.54,65.2,48.75c14.8,12.11,29.35,24.51,44.11,36.65
			c3.38,2.78,6.84,5.46,10.97,7.11c7.88,3.15,15.08-0.02,18.31-7.84c2.98-7.2,2.9-14.67,1.83-22.08
			c-1.46-10.14-4.62-19.89-8.39-29.39c-10.5-26.45-26.51-49.4-45.69-70.18c-13.12-14.21-27.4-27.24-42.61-39.19
			c-20.14-15.83-41.98-28.93-65.23-39.69c-14.59-6.75-29.68-12.11-45.14-16.49c-17.79-5.03-35.91-8.37-54.31-9.24
			c-17.45-0.82-34.97-0.68-52.36,2.01c-19.16,2.95-37.92,7.46-56.02,14.4c-16.91,6.48-32.91,14.82-48.02,24.8
			c-5.47,3.61-10.9,7.35-15.93,11.53c-4.85,4.03-4.79,8.65-0.36,13.19C1232.18,291.47,1235.92,293.76,1239.9,295.66z"/>
		<path class="st0" d="M131.59,673.94c-7.62,15.65-10.51,32.44-11.37,49.65c-0.18,16.6,4.01,32.06,11.04,46.96
			c8.44,17.87,20.45,33.21,33.93,47.31c9.29,9.71,17.87,20.17,28.37,28.72c7.5,6.1,15.2,10.78,25.52,10.66
			c11.17-0.13,18.79-9.78,20.4-17.48c1.65-7.85,0.84-15.6-2.16-23.02c-2.59-6.42-5.35-12.77-8.68-18.86
			c-9.27-16.95-15.05-35.11-18.54-54.04c-2.64-14.33-3.2-28.92-5.34-43.33c-2.02-13.62-6.4-26.32-15.11-37
			c-10.11-12.4-24.32-16.8-39.51-8.99C141.75,658.83,135.66,665.58,131.59,673.94z"/>
		<path class="st2" d="M609.72,884.46c-11.3-10.39-24.39-18.33-39.13-23.39c-13.89-4.77-28.11-7.46-42.7-8.4
			c-4.66-0.26-9.15,0.71-13.36,2.47c-5.2,2.18-9.51,5.74-10.75,11.5c-1.06,4.91-0.29,9.86,2.48,14.22
			c7.73,12.15,15.86,24.04,25.64,34.64c1.41,1.53,2.85,3.02,4.31,4.5h97.44C629.68,905.9,620.58,894.45,609.72,884.46z"/>
		<path class="st0" d="M1144.55,886.14c-9.8-5.97-19.68-11.86-29.82-17.21c-18.39-9.71-37.3-18.28-56.69-25.87
			c-21.77-8.52-43.91-15.62-66.61-21.28c-11.07-2.76-21.37,4.58-24.34,13.99c-2.45,7.77-1.65,15.11,1.12,22.45
			c3.75,9.92,8.94,19.13,14.03,28.4c6.39,11.64,13.49,22.75,21.22,33.38h189.42c-2.57-2.03-5.15-4.05-7.75-6.04
			C1172.08,904.02,1158.57,894.67,1144.55,886.14z"/>
		<path class="st0" d="M891.79,751.25c-7.32-7.15-15.4-13.39-23.98-18.87c-12.92-8.26-26.6-15-41.25-19.75
			c-16.56-5.37-33.43-8.7-50.88-8.71c-2.91,0-5.84-0.2-8.74,0.04c-9.08,0.75-14.5,7.21-13.86,16.28c0.38,5.36,2.98,9.67,6.42,13.57
			c3.52,4,7.73,7.19,12.12,10.13c10.91,7.31,22.37,13.5,34.52,18.6c12.51,5.26,25.38,8.9,38.64,11.48
			c7.52,1.47,15.16,1.74,22.75,2.59c6.57,0.73,13.05,0.9,19.54-0.51c10.69-2.33,14.54-11.88,8.28-20.72
			C894.29,753.91,893.08,752.51,891.79,751.25z"/>
		<path class="st1" d="M894.43,541.57c12.48,3.34,25.05,5.97,38.02,7.19c13.73,1.29,27.21,0.36,40.77-1.16
			c6.89-0.77,13.62-2.41,20.33-3.96c5.98-1.38,12.09-2.88,17.24-6.59c6.15-4.44,6.63-12.76,0.95-17.8
			c-2.72-2.41-5.79-4.33-9.22-5.74c-18.24-7.48-37.4-10.94-56.89-11.97c-14.87-0.78-29.83-0.18-44.72-1.27
			c-3.46,0-6.93-0.16-10.38,0.03c-16,0.86-21.67,15.56-15.73,26.89C879.05,535.29,886.12,539.34,894.43,541.57z"/>
	</g>
</g>
</svg>
